M48
; DRILL file {KiCad 9.0.3} date 2026-04-22T13:54:20-0400
; FORMAT={-:-/ absolute / inch / decimal}
; #@! TF.CreationDate,2026-04-22T13:54:20-04:00
; #@! TF.GenerationSoftware,Kicad,Pcbnew,9.0.3
; #@! TF.FileFunction,Plated,1,4,PTH
FMAT,2
INCH
; #@! TA.AperFunction,Plated,PTH,ComponentDrill
T1C0.0079
; #@! TA.AperFunction,Plated,PTH,ViaDrill
T2C0.0118
; #@! TA.AperFunction,Plated,PTH,ComponentDrill
T3C0.0157
; #@! TA.AperFunction,Plated,PTH,ComponentDrill
T4C0.0236
%
G90
G05
T1
X5.7146Y-3.6066
X5.7146Y-3.6617
X5.7422Y-3.5791
X5.7422Y-3.6342
X5.7422Y-3.6893
X5.7698Y-3.6066
X5.7698Y-3.6617
X5.7973Y-3.5791
X5.7973Y-3.6342
X5.7973Y-3.6893
X5.8249Y-3.6066
X5.8249Y-3.6617
X5.9753Y-4.7273
X5.9753Y-4.7667
X5.9753Y-4.8061
X5.9753Y-4.9473
X5.9753Y-4.9867
X5.9753Y-5.0261
X6.0265Y-4.7273
X6.0265Y-4.7667
X6.0265Y-4.8061
X6.0265Y-4.9473
X6.0265Y-4.9867
X6.0265Y-5.0261
T2
X5.2833Y-3.5173
X5.2873Y-3.3635
X5.3733Y-3.8617
X5.3736Y-3.7617
X5.4233Y-3.3802
X5.4693Y-5.3253
X5.4833Y-4.3673
X5.5283Y-4.9323
X5.5433Y-3.4802
X5.5433Y-3.5302
X5.5433Y-3.5802
X5.5433Y-3.6302
X5.5433Y-3.6802
X5.5433Y-3.7302
X5.5633Y-4.155
X5.5789Y-4.8523
X5.5833Y-3.9173
X5.6608Y-4.6073
X5.6833Y-3.9173
X5.6913Y-5.1793
X5.7389Y-4.8273
X5.7483Y-4.8923
X5.7483Y-5.0349
X5.7833Y-3.9173
X5.8033Y-3.9773
X5.8283Y-4.155
X5.8583Y-3.9773
X5.8839Y-3.9173
X5.9034Y-4.7917
X5.9633Y-4.0973
X5.9839Y-3.9173
X5.9883Y-5.0773
X5.9883Y-5.2225
X6.0793Y-4.7993
X6.0793Y-4.8313
X6.0793Y-5.0213
X6.0793Y-5.0533
X6.0839Y-3.9173
X6.0933Y-4.155
X6.1173Y-4.7993
X6.1173Y-4.8313
X6.1173Y-5.0213
X6.1173Y-5.0533
X6.1733Y-4.0903
X6.1913Y-5.1673
X6.2283Y-3.5802
X6.2283Y-3.6302
X6.2283Y-3.6802
X6.2283Y-4.0173
X6.2633Y-4.3673
T3
X5.3756Y-5.5093
X5.3759Y-5.4313
X5.3759Y-5.5873
X5.4156Y-5.4313
X5.4156Y-5.5093
X5.4156Y-5.5873
X5.5356Y-5.4313
X5.5356Y-5.5873
X5.5359Y-5.5093
X5.5753Y-5.4313
X5.5753Y-5.5093
X5.5753Y-5.5873
X6.0833Y-5.4373
X6.0833Y-5.5153
X6.0833Y-5.5933
X6.1227Y-5.5153
X6.123Y-5.4373
X6.123Y-5.5933
X6.243Y-5.4373
X6.243Y-5.5153
X6.243Y-5.5933
X6.2827Y-5.4373
X6.2827Y-5.5933
X6.283Y-5.5153
T4
G00X5.6587Y-5.3426
M15
G01X5.6587Y-5.3859
M16
G05
G00X5.6587Y-5.5139
M15
G01X5.6587Y-5.5454
M16
G05
G00X5.9989Y-5.3426
M15
G01X5.9989Y-5.3859
M16
G05
G00X5.9989Y-5.5139
M15
G01X5.9989Y-5.5454
M16
G05
M30
