%TF.GenerationSoftware,KiCad,Pcbnew,9.0.3*%
%TF.CreationDate,2026-04-22T13:54:26-04:00*%
%TF.ProjectId,g660-ctrl,67363630-2d63-4747-926c-2e6b69636164,rev?*%
%TF.SameCoordinates,Original*%
%TF.FileFunction,Paste,Top*%
%TF.FilePolarity,Positive*%
%FSLAX46Y46*%
G04 Gerber Fmt 4.6, Leading zero omitted, Abs format (unit mm)*
G04 Created by KiCad (PCBNEW 9.0.3) date 2026-04-22 13:54:26*
%MOMM*%
%LPD*%
G01*
G04 APERTURE LIST*
G04 Aperture macros list*
%AMRoundRect*
0 Rectangle with rounded corners*
0 $1 Rounding radius*
0 $2 $3 $4 $5 $6 $7 $8 $9 X,Y pos of 4 corners*
0 Add a 4 corners polygon primitive as box body*
4,1,4,$2,$3,$4,$5,$6,$7,$8,$9,$2,$3,0*
0 Add four circle primitives for the rounded corners*
1,1,$1+$1,$2,$3*
1,1,$1+$1,$4,$5*
1,1,$1+$1,$6,$7*
1,1,$1+$1,$8,$9*
0 Add four rect primitives between the rounded corners*
20,1,$1+$1,$2,$3,$4,$5,0*
20,1,$1+$1,$4,$5,$6,$7,0*
20,1,$1+$1,$6,$7,$8,$9,0*
20,1,$1+$1,$8,$9,$2,$3,0*%
G04 Aperture macros list end*
%ADD10RoundRect,0.250000X0.337500X0.475000X-0.337500X0.475000X-0.337500X-0.475000X0.337500X-0.475000X0*%
%ADD11R,1.050000X0.650000*%
%ADD12RoundRect,0.250000X-0.475000X0.337500X-0.475000X-0.337500X0.475000X-0.337500X0.475000X0.337500X0*%
%ADD13RoundRect,0.250000X0.475000X-0.337500X0.475000X0.337500X-0.475000X0.337500X-0.475000X-0.337500X0*%
%ADD14RoundRect,0.250000X-0.337500X-0.475000X0.337500X-0.475000X0.337500X0.475000X-0.337500X0.475000X0*%
%ADD15RoundRect,0.240000X-0.240000X-0.385000X0.240000X-0.385000X0.240000X0.385000X-0.240000X0.385000X0*%
%ADD16RoundRect,0.150000X-0.825000X-0.150000X0.825000X-0.150000X0.825000X0.150000X-0.825000X0.150000X0*%
%ADD17R,0.600000X1.240000*%
%ADD18R,0.300000X1.240000*%
%ADD19RoundRect,0.250000X0.250000X-0.250000X0.250000X0.250000X-0.250000X0.250000X-0.250000X-0.250000X0*%
%ADD20RoundRect,0.250000X-0.250000X0.250000X-0.250000X-0.250000X0.250000X-0.250000X0.250000X0.250000X0*%
%ADD21RoundRect,0.250000X-0.250000X-0.250000X0.250000X-0.250000X0.250000X0.250000X-0.250000X0.250000X0*%
%ADD22RoundRect,0.250000X0.250000X0.250000X-0.250000X0.250000X-0.250000X-0.250000X0.250000X-0.250000X0*%
%ADD23R,1.500000X3.600000*%
%ADD24RoundRect,0.150000X0.587500X0.150000X-0.587500X0.150000X-0.587500X-0.150000X0.587500X-0.150000X0*%
%ADD25RoundRect,0.250000X-0.450000X0.350000X-0.450000X-0.350000X0.450000X-0.350000X0.450000X0.350000X0*%
%ADD26RoundRect,0.250000X0.350000X0.450000X-0.350000X0.450000X-0.350000X-0.450000X0.350000X-0.450000X0*%
%ADD27RoundRect,0.250000X-0.350000X-0.450000X0.350000X-0.450000X0.350000X0.450000X-0.350000X0.450000X0*%
%ADD28RoundRect,0.250000X0.450000X-0.350000X0.450000X0.350000X-0.450000X0.350000X-0.450000X-0.350000X0*%
%ADD29R,0.900000X0.900000*%
%ADD30R,1.500000X0.900000*%
%ADD31R,0.900000X1.500000*%
%ADD32RoundRect,0.150000X-0.512500X-0.150000X0.512500X-0.150000X0.512500X0.150000X-0.512500X0.150000X0*%
%ADD33RoundRect,0.750000X0.750000X1.750000X-0.750000X1.750000X-0.750000X-1.750000X0.750000X-1.750000X0*%
%ADD34RoundRect,0.750000X-0.750000X-1.750000X0.750000X-1.750000X0.750000X1.750000X-0.750000X1.750000X0*%
G04 APERTURE END LIST*
D10*
%TO.C,C13*%
X133506300Y-131681800D03*
X131431300Y-131681800D03*
%TD*%
D11*
%TO.C,RST*%
X143345000Y-114291000D03*
X139195000Y-114291000D03*
X143345000Y-112141000D03*
X139220000Y-112141000D03*
%TD*%
D12*
%TO.C,C8*%
X159215000Y-112051500D03*
X159215000Y-114126500D03*
%TD*%
D10*
%TO.C,C7*%
X143361500Y-110168000D03*
X141286500Y-110168000D03*
%TD*%
D13*
%TO.C,C9*%
X134297600Y-87507300D03*
X134297600Y-85432300D03*
%TD*%
D14*
%TO.C,C12*%
X135575400Y-131580200D03*
X137650400Y-131580200D03*
%TD*%
D10*
%TO.C,C10*%
X131431300Y-137803200D03*
X133506300Y-137803200D03*
%TD*%
%TO.C,C11*%
X131431300Y-135771200D03*
X133506300Y-135771200D03*
%TD*%
%TO.C,C14*%
X131431300Y-133739200D03*
X133506300Y-133739200D03*
%TD*%
D15*
%TO.C,Q1*%
X151852000Y-125912000D03*
X151852000Y-127412000D03*
X152992000Y-125912000D03*
X152992000Y-127412000D03*
D16*
X149947000Y-124757000D03*
X149947000Y-126027000D03*
X149947000Y-127297000D03*
X149947000Y-128567000D03*
X154897000Y-128567000D03*
X154897000Y-127297000D03*
X154897000Y-126027000D03*
X154897000Y-124757000D03*
%TD*%
D17*
%TO.C,J2*%
X144852000Y-135653000D03*
X145652000Y-135653000D03*
D18*
X146802000Y-135653000D03*
X147802000Y-135653000D03*
X148302000Y-135653000D03*
X149302000Y-135653000D03*
D17*
X150452000Y-135653000D03*
X151252000Y-135653000D03*
X151252000Y-135653000D03*
X150452000Y-135653000D03*
D18*
X149802000Y-135653000D03*
X148802000Y-135653000D03*
X147302000Y-135653000D03*
X146302000Y-135653000D03*
D17*
X145652000Y-135653000D03*
X144852000Y-135653000D03*
%TD*%
D19*
%TO.C,D1*%
X153398400Y-130152400D03*
X153398400Y-132652400D03*
%TD*%
D20*
%TO.C,D3*%
X157259200Y-130061600D03*
X157259200Y-127561600D03*
%TD*%
D21*
%TO.C,D2*%
X155171000Y-132647000D03*
X157671000Y-132647000D03*
%TD*%
D22*
%TO.C,D5*%
X131345800Y-139835200D03*
X133845800Y-139835200D03*
%TD*%
D19*
%TO.C,D4*%
X157259200Y-119241200D03*
X157259200Y-116741200D03*
%TD*%
D23*
%TO.C,L1*%
X132518600Y-128303600D03*
X135568600Y-128303600D03*
%TD*%
D24*
%TO.C,Q2*%
X147579500Y-129787000D03*
X147579500Y-127887000D03*
X145704500Y-128837000D03*
%TD*%
%TO.C,Q3*%
X147579500Y-126231000D03*
X147579500Y-124331000D03*
X145704500Y-125281000D03*
%TD*%
D25*
%TO.C,R1*%
X141485800Y-134466400D03*
X141485800Y-136466400D03*
%TD*%
D26*
%TO.C,R2*%
X145743600Y-131580200D03*
X147743600Y-131580200D03*
%TD*%
%TO.C,R9*%
X145769000Y-122614000D03*
X147769000Y-122614000D03*
%TD*%
D15*
%TO.C,Q4*%
X151852000Y-120324000D03*
X151852000Y-121824000D03*
X152992000Y-120324000D03*
X152992000Y-121824000D03*
D16*
X149947000Y-119169000D03*
X149947000Y-120439000D03*
X149947000Y-121709000D03*
X149947000Y-122979000D03*
X154897000Y-122979000D03*
X154897000Y-121709000D03*
X154897000Y-120439000D03*
X154897000Y-119169000D03*
%TD*%
D27*
%TO.C,R5*%
X149553600Y-130335600D03*
X151553600Y-130335600D03*
%TD*%
D26*
%TO.C,R6*%
X141705000Y-125281000D03*
X143705000Y-125281000D03*
%TD*%
D28*
%TO.C,R11*%
X147658000Y-118693000D03*
X147658000Y-120693000D03*
%TD*%
D25*
%TO.C,R3*%
X136355000Y-85165000D03*
X136355000Y-87165000D03*
%TD*%
D26*
%TO.C,R8*%
X143737000Y-120709000D03*
X145737000Y-120709000D03*
%TD*%
D29*
%TO.C,U2*%
X145152000Y-90908000D03*
X145152000Y-92308000D03*
X145152000Y-93708000D03*
X146552000Y-90908000D03*
X146552000Y-92308000D03*
X146552000Y-93708000D03*
X147952000Y-90908000D03*
X147952000Y-92308000D03*
X147952000Y-93708000D03*
D30*
X139302000Y-84588000D03*
X139302000Y-85858000D03*
X139302000Y-87128000D03*
X139302000Y-88398000D03*
X139302000Y-89668000D03*
X139302000Y-90938000D03*
X139302000Y-92208000D03*
X139302000Y-93478000D03*
X139302000Y-94748000D03*
X139302000Y-96018000D03*
X139302000Y-97288000D03*
X139302000Y-98558000D03*
X139302000Y-99828000D03*
X139302000Y-101098000D03*
D31*
X141067000Y-102348000D03*
X142337000Y-102348000D03*
X143607000Y-102348000D03*
X144877000Y-102348000D03*
X146147000Y-102348000D03*
X147417000Y-102348000D03*
X148687000Y-102348000D03*
X149957000Y-102348000D03*
X151227000Y-102348000D03*
X152497000Y-102348000D03*
X153767000Y-102348000D03*
X155037000Y-102348000D03*
D30*
X156802000Y-101098000D03*
X156802000Y-99828000D03*
X156802000Y-98558000D03*
X156802000Y-97288000D03*
X156802000Y-96018000D03*
X156802000Y-94748000D03*
X156802000Y-93478000D03*
X156802000Y-92208000D03*
X156802000Y-90938000D03*
X156802000Y-89668000D03*
X156802000Y-88398000D03*
X156802000Y-87128000D03*
X156802000Y-85858000D03*
X156802000Y-84588000D03*
%TD*%
D32*
%TO.C,U3*%
X137619500Y-133348000D03*
X137619500Y-134298000D03*
X137619500Y-135248000D03*
X135344500Y-135248000D03*
X135344500Y-134298000D03*
X135344500Y-133348000D03*
%TD*%
D26*
%TO.C,R7*%
X141705000Y-123249000D03*
X143705000Y-123249000D03*
%TD*%
%TO.C,R4*%
X141705000Y-129980000D03*
X143705000Y-129980000D03*
%TD*%
%TO.C,R10*%
X145737000Y-118677000D03*
X143737000Y-118677000D03*
%TD*%
D11*
%TO.C,BOOT*%
X152720000Y-112141000D03*
X156845000Y-112141000D03*
X152695000Y-114291000D03*
X156845000Y-114291000D03*
%TD*%
%TO.C,SW2*%
X145977000Y-105537000D03*
X150127000Y-105537000D03*
X145977000Y-107687000D03*
X150102000Y-107687000D03*
%TD*%
%TO.C,SW3*%
X156852000Y-107687000D03*
X152727000Y-107687000D03*
X156877000Y-105537000D03*
X152727000Y-105537000D03*
%TD*%
%TO.C,SW1*%
X143352000Y-107687000D03*
X139227000Y-107687000D03*
X143377000Y-105537000D03*
X139227000Y-105537000D03*
%TD*%
D33*
%TO.C,M1*%
X155016000Y-140089200D03*
X159088000Y-140089200D03*
%TD*%
D34*
%TO.C,J4*%
X141112800Y-139936800D03*
X137040800Y-139936800D03*
%TD*%
M02*
