%TF.GenerationSoftware,KiCad,Pcbnew,9.0.3*%
%TF.CreationDate,2026-04-22T13:54:26-04:00*%
%TF.ProjectId,g660-ctrl,67363630-2d63-4747-926c-2e6b69636164,rev?*%
%TF.SameCoordinates,Original*%
%TF.FileFunction,Legend,Bot*%
%TF.FilePolarity,Positive*%
%FSLAX46Y46*%
G04 Gerber Fmt 4.6, Leading zero omitted, Abs format (unit mm)*
G04 Created by KiCad (PCBNEW 9.0.3) date 2026-04-22 13:54:26*
%MOMM*%
%LPD*%
G01*
G04 APERTURE LIST*
%ADD10C,0.100000*%
%ADD11C,0.150000*%
%ADD12C,0.120000*%
G04 APERTURE END LIST*
D10*
G36*
X143244719Y-115785724D02*
G01*
X142307382Y-115785724D01*
X142307382Y-115275951D01*
X142418493Y-115275951D01*
X142418493Y-115314219D01*
X142445553Y-115341279D01*
X142464687Y-115345085D01*
X142557544Y-115345085D01*
X142557544Y-115628419D01*
X142561350Y-115647553D01*
X142588410Y-115674613D01*
X142626678Y-115674613D01*
X142653738Y-115647553D01*
X142657544Y-115628419D01*
X142657544Y-115345085D01*
X143083734Y-115345085D01*
X143102868Y-115341279D01*
X143108687Y-115335459D01*
X143116494Y-115332857D01*
X143121698Y-115322449D01*
X143129928Y-115314219D01*
X143129928Y-115305989D01*
X143133608Y-115298629D01*
X143131168Y-115279273D01*
X142893073Y-114564989D01*
X142883412Y-114548040D01*
X142849183Y-114530926D01*
X142812879Y-114543027D01*
X142795765Y-114577256D01*
X142798205Y-114596611D01*
X143014363Y-115245085D01*
X142657544Y-115245085D01*
X142657544Y-114961752D01*
X142653738Y-114942618D01*
X142626678Y-114915558D01*
X142588410Y-114915558D01*
X142561350Y-114942618D01*
X142557544Y-114961752D01*
X142557544Y-115245085D01*
X142464687Y-115245085D01*
X142445553Y-115248891D01*
X142418493Y-115275951D01*
X142307382Y-115275951D01*
X142307382Y-114419815D01*
X143244719Y-114419815D01*
X143244719Y-115785724D01*
G37*
G36*
X150019658Y-104867530D02*
G01*
X149082195Y-104867530D01*
X149082195Y-103896895D01*
X149193306Y-103896895D01*
X149193306Y-103992133D01*
X149194869Y-103999995D01*
X149195872Y-104007944D01*
X149243491Y-104150801D01*
X149244731Y-104152976D01*
X149244731Y-104154124D01*
X149249184Y-104160788D01*
X149253152Y-104167749D01*
X149254178Y-104168262D01*
X149255570Y-104170345D01*
X149741643Y-104656419D01*
X149243306Y-104656419D01*
X149224172Y-104660225D01*
X149197112Y-104687285D01*
X149197112Y-104725553D01*
X149224172Y-104752613D01*
X149243306Y-104756419D01*
X149862353Y-104756419D01*
X149881487Y-104752613D01*
X149908547Y-104725553D01*
X149908547Y-104687285D01*
X149897708Y-104671064D01*
X149334626Y-104107981D01*
X149293306Y-103984019D01*
X149293306Y-103908698D01*
X149332017Y-103831274D01*
X149368162Y-103795130D01*
X149445586Y-103756419D01*
X149660074Y-103756419D01*
X149737497Y-103795130D01*
X149779378Y-103837012D01*
X149795599Y-103847851D01*
X149833868Y-103847851D01*
X149860928Y-103820791D01*
X149860928Y-103782522D01*
X149850089Y-103766301D01*
X149802470Y-103718683D01*
X149795808Y-103714231D01*
X149789475Y-103709316D01*
X149694238Y-103661698D01*
X149691822Y-103661036D01*
X149691011Y-103660225D01*
X149683149Y-103658661D01*
X149675422Y-103656545D01*
X149674333Y-103656907D01*
X149671877Y-103656419D01*
X149433782Y-103656419D01*
X149431325Y-103656907D01*
X149430237Y-103656545D01*
X149422509Y-103658661D01*
X149414648Y-103660225D01*
X149413836Y-103661036D01*
X149411421Y-103661698D01*
X149316183Y-103709317D01*
X149309854Y-103714228D01*
X149303188Y-103718683D01*
X149255570Y-103766302D01*
X149251118Y-103772963D01*
X149246203Y-103779297D01*
X149198585Y-103874534D01*
X149197923Y-103876949D01*
X149197112Y-103877761D01*
X149195548Y-103885622D01*
X149193432Y-103893350D01*
X149193794Y-103894438D01*
X149193306Y-103896895D01*
X149082195Y-103896895D01*
X149082195Y-103545308D01*
X150019658Y-103545308D01*
X150019658Y-104867530D01*
G37*
G36*
X149975597Y-115825730D02*
G01*
X149082195Y-115825730D01*
X149082195Y-115236047D01*
X149193306Y-115236047D01*
X149193306Y-115474142D01*
X149193794Y-115476598D01*
X149193432Y-115477687D01*
X149195548Y-115485414D01*
X149197112Y-115493276D01*
X149197923Y-115494087D01*
X149198585Y-115496503D01*
X149246203Y-115591740D01*
X149251114Y-115598068D01*
X149255569Y-115604735D01*
X149303188Y-115652355D01*
X149309854Y-115656809D01*
X149316183Y-115661721D01*
X149411421Y-115709340D01*
X149413836Y-115710001D01*
X149414648Y-115710813D01*
X149422509Y-115712376D01*
X149430237Y-115714493D01*
X149431325Y-115714130D01*
X149433782Y-115714619D01*
X149671877Y-115714619D01*
X149674333Y-115714130D01*
X149675422Y-115714493D01*
X149683149Y-115712376D01*
X149691011Y-115710813D01*
X149691822Y-115710001D01*
X149694238Y-115709340D01*
X149789475Y-115661722D01*
X149795802Y-115656811D01*
X149802471Y-115652355D01*
X149850090Y-115604735D01*
X149860928Y-115588514D01*
X149860928Y-115550245D01*
X149833868Y-115523186D01*
X149795599Y-115523186D01*
X149779378Y-115534025D01*
X149737495Y-115575908D01*
X149660074Y-115614619D01*
X149445586Y-115614619D01*
X149368163Y-115575908D01*
X149332017Y-115539761D01*
X149293306Y-115462339D01*
X149293306Y-115247850D01*
X149332017Y-115170426D01*
X149368162Y-115134282D01*
X149445586Y-115095571D01*
X149660074Y-115095571D01*
X149737497Y-115134282D01*
X149779378Y-115176164D01*
X149795599Y-115187003D01*
X149798244Y-115187003D01*
X149800291Y-115188678D01*
X149817041Y-115187003D01*
X149833868Y-115187003D01*
X149835737Y-115185133D01*
X149838370Y-115184870D01*
X149849030Y-115171840D01*
X149860928Y-115159943D01*
X149860928Y-115157299D01*
X149862603Y-115155252D01*
X149864486Y-115135834D01*
X149816867Y-114659644D01*
X149813309Y-114647977D01*
X149813309Y-114645485D01*
X149812215Y-114644391D01*
X149811176Y-114640983D01*
X149798146Y-114630322D01*
X149786249Y-114618425D01*
X149782756Y-114617730D01*
X149781558Y-114616750D01*
X149779076Y-114616998D01*
X149767115Y-114614619D01*
X149290925Y-114614619D01*
X149271791Y-114618425D01*
X149244731Y-114645485D01*
X149244731Y-114683753D01*
X149271791Y-114710813D01*
X149290925Y-114714619D01*
X149721866Y-114714619D01*
X149753449Y-115030455D01*
X149694238Y-115000850D01*
X149691822Y-115000188D01*
X149691011Y-114999377D01*
X149683149Y-114997813D01*
X149675422Y-114995697D01*
X149674333Y-114996059D01*
X149671877Y-114995571D01*
X149433782Y-114995571D01*
X149431325Y-114996059D01*
X149430237Y-114995697D01*
X149422509Y-114997813D01*
X149414648Y-114999377D01*
X149413836Y-115000188D01*
X149411421Y-115000850D01*
X149316183Y-115048469D01*
X149309854Y-115053380D01*
X149303188Y-115057835D01*
X149255570Y-115105454D01*
X149251118Y-115112115D01*
X149246203Y-115118449D01*
X149198585Y-115213686D01*
X149197923Y-115216101D01*
X149197112Y-115216913D01*
X149195548Y-115224774D01*
X149193432Y-115232502D01*
X149193794Y-115233590D01*
X149193306Y-115236047D01*
X149082195Y-115236047D01*
X149082195Y-114503508D01*
X149975597Y-114503508D01*
X149975597Y-115825730D01*
G37*
G36*
X155563719Y-100422530D02*
G01*
X153717814Y-100422530D01*
X153717814Y-99832847D01*
X153828925Y-99832847D01*
X153828925Y-100070942D01*
X153829413Y-100073398D01*
X153829051Y-100074487D01*
X153831167Y-100082214D01*
X153832731Y-100090076D01*
X153833542Y-100090887D01*
X153834204Y-100093303D01*
X153881822Y-100188540D01*
X153886733Y-100194868D01*
X153891188Y-100201535D01*
X153938807Y-100249155D01*
X153945473Y-100253609D01*
X153951802Y-100258521D01*
X154047040Y-100306140D01*
X154049455Y-100306801D01*
X154050267Y-100307613D01*
X154058128Y-100309176D01*
X154065856Y-100311293D01*
X154066944Y-100310930D01*
X154069401Y-100311419D01*
X154307496Y-100311419D01*
X154309952Y-100310930D01*
X154311041Y-100311293D01*
X154318768Y-100309176D01*
X154326630Y-100307613D01*
X154327441Y-100306801D01*
X154329857Y-100306140D01*
X154425094Y-100258522D01*
X154431421Y-100253611D01*
X154438090Y-100249155D01*
X154485709Y-100201535D01*
X154496547Y-100185314D01*
X154496547Y-100147045D01*
X154469487Y-100119986D01*
X154431218Y-100119986D01*
X154414997Y-100130825D01*
X154373114Y-100172708D01*
X154295693Y-100211419D01*
X154081205Y-100211419D01*
X154003782Y-100172708D01*
X153967636Y-100136561D01*
X153928925Y-100059139D01*
X153928925Y-99908951D01*
X154737493Y-99908951D01*
X154737493Y-99947219D01*
X154764553Y-99974279D01*
X154783687Y-99978085D01*
X154876544Y-99978085D01*
X154876544Y-100261419D01*
X154880350Y-100280553D01*
X154907410Y-100307613D01*
X154945678Y-100307613D01*
X154972738Y-100280553D01*
X154976544Y-100261419D01*
X154976544Y-99978085D01*
X155402734Y-99978085D01*
X155421868Y-99974279D01*
X155427687Y-99968459D01*
X155435494Y-99965857D01*
X155440698Y-99955449D01*
X155448928Y-99947219D01*
X155448928Y-99938989D01*
X155452608Y-99931629D01*
X155450168Y-99912273D01*
X155212073Y-99197989D01*
X155202412Y-99181040D01*
X155168183Y-99163926D01*
X155131879Y-99176027D01*
X155114765Y-99210256D01*
X155117205Y-99229611D01*
X155333363Y-99878085D01*
X154976544Y-99878085D01*
X154976544Y-99594752D01*
X154972738Y-99575618D01*
X154945678Y-99548558D01*
X154907410Y-99548558D01*
X154880350Y-99575618D01*
X154876544Y-99594752D01*
X154876544Y-99878085D01*
X154783687Y-99878085D01*
X154764553Y-99881891D01*
X154737493Y-99908951D01*
X153928925Y-99908951D01*
X153928925Y-99844650D01*
X153967636Y-99767226D01*
X154003781Y-99731082D01*
X154081205Y-99692371D01*
X154295693Y-99692371D01*
X154373116Y-99731082D01*
X154414997Y-99772964D01*
X154431218Y-99783803D01*
X154433863Y-99783803D01*
X154435910Y-99785478D01*
X154452660Y-99783803D01*
X154469487Y-99783803D01*
X154471356Y-99781933D01*
X154473989Y-99781670D01*
X154484649Y-99768640D01*
X154496547Y-99756743D01*
X154496547Y-99754099D01*
X154498222Y-99752052D01*
X154500105Y-99732634D01*
X154452486Y-99256444D01*
X154448928Y-99244777D01*
X154448928Y-99242285D01*
X154447834Y-99241191D01*
X154446795Y-99237783D01*
X154433765Y-99227122D01*
X154421868Y-99215225D01*
X154418375Y-99214530D01*
X154417177Y-99213550D01*
X154414695Y-99213798D01*
X154402734Y-99211419D01*
X153926544Y-99211419D01*
X153907410Y-99215225D01*
X153880350Y-99242285D01*
X153880350Y-99280553D01*
X153907410Y-99307613D01*
X153926544Y-99311419D01*
X154357485Y-99311419D01*
X154389068Y-99627255D01*
X154329857Y-99597650D01*
X154327441Y-99596988D01*
X154326630Y-99596177D01*
X154318768Y-99594613D01*
X154311041Y-99592497D01*
X154309952Y-99592859D01*
X154307496Y-99592371D01*
X154069401Y-99592371D01*
X154066944Y-99592859D01*
X154065856Y-99592497D01*
X154058128Y-99594613D01*
X154050267Y-99596177D01*
X154049455Y-99596988D01*
X154047040Y-99597650D01*
X153951802Y-99645269D01*
X153945473Y-99650180D01*
X153938807Y-99654635D01*
X153891189Y-99702254D01*
X153886737Y-99708915D01*
X153881822Y-99715249D01*
X153834204Y-99810486D01*
X153833542Y-99812901D01*
X153832731Y-99813713D01*
X153831167Y-99821574D01*
X153829051Y-99829302D01*
X153829413Y-99830390D01*
X153828925Y-99832847D01*
X153717814Y-99832847D01*
X153717814Y-99052815D01*
X155563719Y-99052815D01*
X155563719Y-100422530D01*
G37*
G36*
X149721845Y-110836530D02*
G01*
X148780576Y-110836530D01*
X148780576Y-110246847D01*
X148891687Y-110246847D01*
X148891687Y-110580180D01*
X148895493Y-110599314D01*
X148906331Y-110615535D01*
X148953950Y-110663155D01*
X148956032Y-110664546D01*
X148956546Y-110665573D01*
X148963504Y-110669539D01*
X148970171Y-110673994D01*
X148971320Y-110673994D01*
X148973495Y-110675234D01*
X149116351Y-110722853D01*
X149124301Y-110723855D01*
X149132163Y-110725419D01*
X149227401Y-110725419D01*
X149235263Y-110723855D01*
X149243212Y-110722853D01*
X149386069Y-110675234D01*
X149388244Y-110673994D01*
X149389393Y-110673994D01*
X149396063Y-110669536D01*
X149403017Y-110665573D01*
X149403529Y-110664547D01*
X149405614Y-110663155D01*
X149500852Y-110567916D01*
X149505305Y-110561250D01*
X149510217Y-110554922D01*
X149557836Y-110459684D01*
X149559282Y-110454402D01*
X149561622Y-110449450D01*
X149609241Y-110258974D01*
X149609538Y-110252856D01*
X149610734Y-110246847D01*
X149610734Y-110103990D01*
X149609538Y-110097980D01*
X149609241Y-110091863D01*
X149561622Y-109901387D01*
X149559282Y-109896434D01*
X149557836Y-109891153D01*
X149510217Y-109795915D01*
X149505301Y-109789580D01*
X149500851Y-109782921D01*
X149405613Y-109687683D01*
X149403530Y-109686291D01*
X149403017Y-109685265D01*
X149396056Y-109681297D01*
X149389392Y-109676844D01*
X149388244Y-109676844D01*
X149386069Y-109675604D01*
X149243212Y-109627985D01*
X149235263Y-109626982D01*
X149227401Y-109625419D01*
X149084544Y-109625419D01*
X149082087Y-109625907D01*
X149080999Y-109625545D01*
X149073271Y-109627661D01*
X149065410Y-109629225D01*
X149064598Y-109630036D01*
X149062183Y-109630698D01*
X148966945Y-109678317D01*
X148951533Y-109690278D01*
X148939432Y-109726583D01*
X148956546Y-109760811D01*
X148992851Y-109772912D01*
X149011667Y-109767759D01*
X149096348Y-109725419D01*
X149219288Y-109725419D01*
X149343249Y-109766739D01*
X149424402Y-109847892D01*
X149465939Y-109930966D01*
X149510734Y-110110145D01*
X149510734Y-110240692D01*
X149465939Y-110419870D01*
X149424402Y-110502944D01*
X149343248Y-110584098D01*
X149219288Y-110625419D01*
X149140276Y-110625419D01*
X149016316Y-110584099D01*
X148991687Y-110559469D01*
X148991687Y-110296847D01*
X149132163Y-110296847D01*
X149151297Y-110293041D01*
X149178357Y-110265981D01*
X149178357Y-110227713D01*
X149151297Y-110200653D01*
X149132163Y-110196847D01*
X148941687Y-110196847D01*
X148922553Y-110200653D01*
X148895493Y-110227713D01*
X148891687Y-110246847D01*
X148780576Y-110246847D01*
X148780576Y-109514308D01*
X149721845Y-109514308D01*
X149721845Y-110836530D01*
G37*
G36*
X142990845Y-110836530D02*
G01*
X142049576Y-110836530D01*
X142049576Y-110246847D01*
X142160687Y-110246847D01*
X142160687Y-110580180D01*
X142164493Y-110599314D01*
X142175331Y-110615535D01*
X142222950Y-110663155D01*
X142225032Y-110664546D01*
X142225546Y-110665573D01*
X142232504Y-110669539D01*
X142239171Y-110673994D01*
X142240320Y-110673994D01*
X142242495Y-110675234D01*
X142385351Y-110722853D01*
X142393301Y-110723855D01*
X142401163Y-110725419D01*
X142496401Y-110725419D01*
X142504263Y-110723855D01*
X142512212Y-110722853D01*
X142655069Y-110675234D01*
X142657244Y-110673994D01*
X142658393Y-110673994D01*
X142665063Y-110669536D01*
X142672017Y-110665573D01*
X142672529Y-110664547D01*
X142674614Y-110663155D01*
X142769852Y-110567916D01*
X142774305Y-110561250D01*
X142779217Y-110554922D01*
X142826836Y-110459684D01*
X142828282Y-110454402D01*
X142830622Y-110449450D01*
X142878241Y-110258974D01*
X142878538Y-110252856D01*
X142879734Y-110246847D01*
X142879734Y-110103990D01*
X142878538Y-110097980D01*
X142878241Y-110091863D01*
X142830622Y-109901387D01*
X142828282Y-109896434D01*
X142826836Y-109891153D01*
X142779217Y-109795915D01*
X142774301Y-109789580D01*
X142769851Y-109782921D01*
X142674613Y-109687683D01*
X142672530Y-109686291D01*
X142672017Y-109685265D01*
X142665056Y-109681297D01*
X142658392Y-109676844D01*
X142657244Y-109676844D01*
X142655069Y-109675604D01*
X142512212Y-109627985D01*
X142504263Y-109626982D01*
X142496401Y-109625419D01*
X142353544Y-109625419D01*
X142351087Y-109625907D01*
X142349999Y-109625545D01*
X142342271Y-109627661D01*
X142334410Y-109629225D01*
X142333598Y-109630036D01*
X142331183Y-109630698D01*
X142235945Y-109678317D01*
X142220533Y-109690278D01*
X142208432Y-109726583D01*
X142225546Y-109760811D01*
X142261851Y-109772912D01*
X142280667Y-109767759D01*
X142365348Y-109725419D01*
X142488288Y-109725419D01*
X142612249Y-109766739D01*
X142693402Y-109847892D01*
X142734939Y-109930966D01*
X142779734Y-110110145D01*
X142779734Y-110240692D01*
X142734939Y-110419870D01*
X142693402Y-110502944D01*
X142612248Y-110584098D01*
X142488288Y-110625419D01*
X142409276Y-110625419D01*
X142285316Y-110584099D01*
X142260687Y-110559469D01*
X142260687Y-110296847D01*
X142401163Y-110296847D01*
X142420297Y-110293041D01*
X142447357Y-110265981D01*
X142447357Y-110227713D01*
X142420297Y-110200653D01*
X142401163Y-110196847D01*
X142210687Y-110196847D01*
X142191553Y-110200653D01*
X142164493Y-110227713D01*
X142160687Y-110246847D01*
X142049576Y-110246847D01*
X142049576Y-109514308D01*
X142990845Y-109514308D01*
X142990845Y-110836530D01*
G37*
G36*
X142403259Y-99350130D02*
G01*
X142439403Y-99386275D01*
X142480939Y-99469347D01*
X142525734Y-99648526D01*
X142525734Y-99874311D01*
X142480939Y-100053489D01*
X142439403Y-100136561D01*
X142403257Y-100172708D01*
X142325836Y-100211419D01*
X142254205Y-100211419D01*
X142176782Y-100172708D01*
X142140636Y-100136561D01*
X142099101Y-100053491D01*
X142054306Y-99874311D01*
X142054306Y-99648526D01*
X142099101Y-99469346D01*
X142140636Y-99386274D01*
X142176781Y-99350130D01*
X142254205Y-99311419D01*
X142325836Y-99311419D01*
X142403259Y-99350130D01*
G37*
G36*
X142736845Y-100422530D02*
G01*
X140890814Y-100422530D01*
X140890814Y-99832847D01*
X141001925Y-99832847D01*
X141001925Y-100070942D01*
X141002413Y-100073398D01*
X141002051Y-100074487D01*
X141004167Y-100082214D01*
X141005731Y-100090076D01*
X141006542Y-100090887D01*
X141007204Y-100093303D01*
X141054822Y-100188540D01*
X141059733Y-100194868D01*
X141064188Y-100201535D01*
X141111807Y-100249155D01*
X141118473Y-100253609D01*
X141124802Y-100258521D01*
X141220040Y-100306140D01*
X141222455Y-100306801D01*
X141223267Y-100307613D01*
X141231128Y-100309176D01*
X141238856Y-100311293D01*
X141239944Y-100310930D01*
X141242401Y-100311419D01*
X141528115Y-100311419D01*
X141530571Y-100310930D01*
X141531660Y-100311293D01*
X141539387Y-100309176D01*
X141547249Y-100307613D01*
X141548060Y-100306801D01*
X141550476Y-100306140D01*
X141645713Y-100258522D01*
X141652040Y-100253611D01*
X141658709Y-100249155D01*
X141706328Y-100201535D01*
X141717166Y-100185314D01*
X141717166Y-100147045D01*
X141690106Y-100119986D01*
X141651837Y-100119986D01*
X141635616Y-100130825D01*
X141593733Y-100172708D01*
X141516312Y-100211419D01*
X141254205Y-100211419D01*
X141176782Y-100172708D01*
X141140636Y-100136561D01*
X141101925Y-100059139D01*
X141101925Y-99844650D01*
X141140636Y-99767226D01*
X141176781Y-99731082D01*
X141254205Y-99692371D01*
X141385258Y-99692371D01*
X141399204Y-99689596D01*
X141401277Y-99689735D01*
X141402091Y-99689022D01*
X141404392Y-99688565D01*
X141416832Y-99676124D01*
X141430077Y-99664536D01*
X141430195Y-99662761D01*
X141431452Y-99661505D01*
X141431452Y-99643906D01*
X141431554Y-99642371D01*
X141954306Y-99642371D01*
X141954306Y-99880466D01*
X141955501Y-99886475D01*
X141955799Y-99892593D01*
X142003418Y-100083069D01*
X142005757Y-100088021D01*
X142007204Y-100093303D01*
X142054822Y-100188540D01*
X142059733Y-100194868D01*
X142064188Y-100201535D01*
X142111807Y-100249155D01*
X142118473Y-100253609D01*
X142124802Y-100258521D01*
X142220040Y-100306140D01*
X142222455Y-100306801D01*
X142223267Y-100307613D01*
X142231128Y-100309176D01*
X142238856Y-100311293D01*
X142239944Y-100310930D01*
X142242401Y-100311419D01*
X142337639Y-100311419D01*
X142340095Y-100310930D01*
X142341184Y-100311293D01*
X142348911Y-100309176D01*
X142356773Y-100307613D01*
X142357584Y-100306801D01*
X142360000Y-100306140D01*
X142455237Y-100258522D01*
X142461564Y-100253611D01*
X142468233Y-100249155D01*
X142515852Y-100201535D01*
X142520305Y-100194869D01*
X142525217Y-100188541D01*
X142572836Y-100093303D01*
X142574282Y-100088021D01*
X142576622Y-100083069D01*
X142624241Y-99892593D01*
X142624538Y-99886475D01*
X142625734Y-99880466D01*
X142625734Y-99642371D01*
X142624538Y-99636361D01*
X142624241Y-99630244D01*
X142576622Y-99439768D01*
X142574282Y-99434815D01*
X142572836Y-99429534D01*
X142525217Y-99334296D01*
X142520305Y-99327967D01*
X142515851Y-99321301D01*
X142468232Y-99273683D01*
X142461570Y-99269231D01*
X142455237Y-99264316D01*
X142360000Y-99216698D01*
X142357584Y-99216036D01*
X142356773Y-99215225D01*
X142348911Y-99213661D01*
X142341184Y-99211545D01*
X142340095Y-99211907D01*
X142337639Y-99211419D01*
X142242401Y-99211419D01*
X142239944Y-99211907D01*
X142238856Y-99211545D01*
X142231128Y-99213661D01*
X142223267Y-99215225D01*
X142222455Y-99216036D01*
X142220040Y-99216698D01*
X142124802Y-99264317D01*
X142118473Y-99269228D01*
X142111807Y-99273683D01*
X142064189Y-99321302D01*
X142059737Y-99327963D01*
X142054822Y-99334297D01*
X142007204Y-99429534D01*
X142005757Y-99434815D01*
X142003418Y-99439768D01*
X141955799Y-99630244D01*
X141955501Y-99636361D01*
X141954306Y-99642371D01*
X141431554Y-99642371D01*
X141432622Y-99626352D01*
X141431452Y-99624320D01*
X141431452Y-99623237D01*
X141429981Y-99621766D01*
X141422887Y-99609446D01*
X141162113Y-99311419D01*
X141670972Y-99311419D01*
X141690106Y-99307613D01*
X141717166Y-99280553D01*
X141717166Y-99242285D01*
X141690106Y-99215225D01*
X141670972Y-99211419D01*
X141051925Y-99211419D01*
X141037978Y-99214193D01*
X141035906Y-99214055D01*
X141035091Y-99214767D01*
X141032791Y-99215225D01*
X141020350Y-99227665D01*
X141007106Y-99239254D01*
X141006987Y-99241028D01*
X141005731Y-99242285D01*
X141005731Y-99259883D01*
X141004561Y-99277438D01*
X141005731Y-99279469D01*
X141005731Y-99280553D01*
X141007201Y-99282023D01*
X141014296Y-99294344D01*
X141275070Y-99592371D01*
X141242401Y-99592371D01*
X141239944Y-99592859D01*
X141238856Y-99592497D01*
X141231128Y-99594613D01*
X141223267Y-99596177D01*
X141222455Y-99596988D01*
X141220040Y-99597650D01*
X141124802Y-99645269D01*
X141118473Y-99650180D01*
X141111807Y-99654635D01*
X141064189Y-99702254D01*
X141059737Y-99708915D01*
X141054822Y-99715249D01*
X141007204Y-99810486D01*
X141006542Y-99812901D01*
X141005731Y-99813713D01*
X141004167Y-99821574D01*
X141002051Y-99829302D01*
X141002413Y-99830390D01*
X141001925Y-99832847D01*
X140890814Y-99832847D01*
X140890814Y-99100308D01*
X142736845Y-99100308D01*
X142736845Y-100422530D01*
G37*
G36*
X156452845Y-110836530D02*
G01*
X155511576Y-110836530D01*
X155511576Y-110246847D01*
X155622687Y-110246847D01*
X155622687Y-110580180D01*
X155626493Y-110599314D01*
X155637331Y-110615535D01*
X155684950Y-110663155D01*
X155687032Y-110664546D01*
X155687546Y-110665573D01*
X155694504Y-110669539D01*
X155701171Y-110673994D01*
X155702320Y-110673994D01*
X155704495Y-110675234D01*
X155847351Y-110722853D01*
X155855301Y-110723855D01*
X155863163Y-110725419D01*
X155958401Y-110725419D01*
X155966263Y-110723855D01*
X155974212Y-110722853D01*
X156117069Y-110675234D01*
X156119244Y-110673994D01*
X156120393Y-110673994D01*
X156127063Y-110669536D01*
X156134017Y-110665573D01*
X156134529Y-110664547D01*
X156136614Y-110663155D01*
X156231852Y-110567916D01*
X156236305Y-110561250D01*
X156241217Y-110554922D01*
X156288836Y-110459684D01*
X156290282Y-110454402D01*
X156292622Y-110449450D01*
X156340241Y-110258974D01*
X156340538Y-110252856D01*
X156341734Y-110246847D01*
X156341734Y-110103990D01*
X156340538Y-110097980D01*
X156340241Y-110091863D01*
X156292622Y-109901387D01*
X156290282Y-109896434D01*
X156288836Y-109891153D01*
X156241217Y-109795915D01*
X156236301Y-109789580D01*
X156231851Y-109782921D01*
X156136613Y-109687683D01*
X156134530Y-109686291D01*
X156134017Y-109685265D01*
X156127056Y-109681297D01*
X156120392Y-109676844D01*
X156119244Y-109676844D01*
X156117069Y-109675604D01*
X155974212Y-109627985D01*
X155966263Y-109626982D01*
X155958401Y-109625419D01*
X155815544Y-109625419D01*
X155813087Y-109625907D01*
X155811999Y-109625545D01*
X155804271Y-109627661D01*
X155796410Y-109629225D01*
X155795598Y-109630036D01*
X155793183Y-109630698D01*
X155697945Y-109678317D01*
X155682533Y-109690278D01*
X155670432Y-109726583D01*
X155687546Y-109760811D01*
X155723851Y-109772912D01*
X155742667Y-109767759D01*
X155827348Y-109725419D01*
X155950288Y-109725419D01*
X156074249Y-109766739D01*
X156155402Y-109847892D01*
X156196939Y-109930966D01*
X156241734Y-110110145D01*
X156241734Y-110240692D01*
X156196939Y-110419870D01*
X156155402Y-110502944D01*
X156074248Y-110584098D01*
X155950288Y-110625419D01*
X155871276Y-110625419D01*
X155747316Y-110584099D01*
X155722687Y-110559469D01*
X155722687Y-110296847D01*
X155863163Y-110296847D01*
X155882297Y-110293041D01*
X155909357Y-110265981D01*
X155909357Y-110227713D01*
X155882297Y-110200653D01*
X155863163Y-110196847D01*
X155672687Y-110196847D01*
X155653553Y-110200653D01*
X155626493Y-110227713D01*
X155622687Y-110246847D01*
X155511576Y-110246847D01*
X155511576Y-109514308D01*
X156452845Y-109514308D01*
X156452845Y-110836530D01*
G37*
G36*
X150483719Y-100422526D02*
G01*
X148590199Y-100422526D01*
X148590199Y-99262029D01*
X148701310Y-99262029D01*
X148705112Y-99279995D01*
X148705112Y-99280553D01*
X148705261Y-99280702D01*
X148705349Y-99281115D01*
X149133920Y-100281115D01*
X149144955Y-100297202D01*
X149180487Y-100311415D01*
X149215660Y-100296340D01*
X149229873Y-100260809D01*
X149225834Y-100241723D01*
X149083218Y-99908951D01*
X149657493Y-99908951D01*
X149657493Y-99947219D01*
X149684553Y-99974279D01*
X149703687Y-99978085D01*
X149796544Y-99978085D01*
X149796544Y-100261419D01*
X149800350Y-100280553D01*
X149827410Y-100307613D01*
X149865678Y-100307613D01*
X149892738Y-100280553D01*
X149896544Y-100261419D01*
X149896544Y-99978085D01*
X150322734Y-99978085D01*
X150341868Y-99974279D01*
X150347687Y-99968459D01*
X150355494Y-99965857D01*
X150360698Y-99955449D01*
X150368928Y-99947219D01*
X150368928Y-99938989D01*
X150372608Y-99931629D01*
X150370168Y-99912273D01*
X150132073Y-99197989D01*
X150122412Y-99181040D01*
X150088183Y-99163926D01*
X150051879Y-99176027D01*
X150034765Y-99210256D01*
X150037205Y-99229611D01*
X150253363Y-99878085D01*
X149896544Y-99878085D01*
X149896544Y-99594752D01*
X149892738Y-99575618D01*
X149865678Y-99548558D01*
X149827410Y-99548558D01*
X149800350Y-99575618D01*
X149796544Y-99594752D01*
X149796544Y-99878085D01*
X149703687Y-99878085D01*
X149684553Y-99881891D01*
X149657493Y-99908951D01*
X149083218Y-99908951D01*
X148827133Y-99311419D01*
X149417972Y-99311419D01*
X149437106Y-99307613D01*
X149464166Y-99280553D01*
X149464166Y-99242285D01*
X149437106Y-99215225D01*
X149417972Y-99211419D01*
X148751306Y-99211419D01*
X148750891Y-99211501D01*
X148750696Y-99211423D01*
X148750185Y-99211641D01*
X148732172Y-99215225D01*
X148724933Y-99222463D01*
X148715522Y-99226497D01*
X148711937Y-99235459D01*
X148705112Y-99242285D01*
X148705112Y-99252523D01*
X148701310Y-99262029D01*
X148590199Y-99262029D01*
X148590199Y-99052815D01*
X150483719Y-99052815D01*
X150483719Y-100422526D01*
G37*
G36*
X139096829Y-95917895D02*
G01*
X138964466Y-95917895D01*
X138869077Y-95886099D01*
X138806969Y-95823990D01*
X138774957Y-95759967D01*
X138739686Y-95618882D01*
X138739686Y-95516907D01*
X138774958Y-95375820D01*
X138806970Y-95311796D01*
X138869075Y-95249691D01*
X138964466Y-95217895D01*
X139096829Y-95217895D01*
X139096829Y-95917895D01*
G37*
G36*
X138315553Y-95689323D02*
G01*
X138073343Y-95689323D01*
X138194448Y-95326008D01*
X138315553Y-95689323D01*
G37*
G36*
X140085719Y-96106784D02*
G01*
X137789019Y-96106784D01*
X137789019Y-95971439D01*
X137877908Y-95971439D01*
X137895022Y-96005668D01*
X137931326Y-96017769D01*
X137965555Y-96000655D01*
X137975216Y-95983706D01*
X138040010Y-95789323D01*
X138348887Y-95789323D01*
X138413681Y-95983706D01*
X138423342Y-96000655D01*
X138457571Y-96017769D01*
X138493875Y-96005668D01*
X138510989Y-95971439D01*
X138508549Y-95952083D01*
X138361438Y-95510752D01*
X138639686Y-95510752D01*
X138639686Y-95625038D01*
X138640881Y-95631047D01*
X138641179Y-95637165D01*
X138679275Y-95789546D01*
X138681614Y-95794498D01*
X138683061Y-95799780D01*
X138721156Y-95875970D01*
X138726067Y-95882298D01*
X138730521Y-95888964D01*
X138806712Y-95965155D01*
X138808793Y-95966545D01*
X138809307Y-95967573D01*
X138816272Y-95971543D01*
X138822933Y-95975994D01*
X138824081Y-95975994D01*
X138826256Y-95977234D01*
X138940542Y-96015329D01*
X138948490Y-96016331D01*
X138956353Y-96017895D01*
X139146829Y-96017895D01*
X139165963Y-96014089D01*
X139193023Y-95987029D01*
X139196829Y-95967895D01*
X139196829Y-95739323D01*
X139439687Y-95739323D01*
X139439687Y-95815514D01*
X139440175Y-95817970D01*
X139439813Y-95819059D01*
X139441929Y-95826786D01*
X139443493Y-95834648D01*
X139444304Y-95835459D01*
X139444966Y-95837875D01*
X139483061Y-95914065D01*
X139487972Y-95920393D01*
X139492426Y-95927059D01*
X139530521Y-95965155D01*
X139537191Y-95969611D01*
X139543517Y-95974521D01*
X139619708Y-96012617D01*
X139622123Y-96013278D01*
X139622934Y-96014089D01*
X139630794Y-96015652D01*
X139638524Y-96017769D01*
X139639611Y-96017406D01*
X139642068Y-96017895D01*
X139832544Y-96017895D01*
X139840406Y-96016331D01*
X139848355Y-96015329D01*
X139962641Y-95977234D01*
X139979590Y-95967573D01*
X139996704Y-95933344D01*
X139984603Y-95897040D01*
X139950374Y-95879926D01*
X139931019Y-95882366D01*
X139824431Y-95917895D01*
X139653871Y-95917895D01*
X139595497Y-95888708D01*
X139568874Y-95862085D01*
X139539687Y-95803711D01*
X139539687Y-95751126D01*
X139568874Y-95692750D01*
X139595495Y-95666130D01*
X139659519Y-95634117D01*
X139806576Y-95597354D01*
X139811528Y-95595014D01*
X139816810Y-95593568D01*
X139893000Y-95555473D01*
X139899334Y-95550557D01*
X139905994Y-95546107D01*
X139944089Y-95508013D01*
X139948543Y-95501346D01*
X139953455Y-95495018D01*
X139991551Y-95418827D01*
X139992212Y-95416411D01*
X139993024Y-95415600D01*
X139994587Y-95407738D01*
X139996704Y-95400011D01*
X139996341Y-95398922D01*
X139996830Y-95396466D01*
X139996830Y-95320276D01*
X139996341Y-95317819D01*
X139996704Y-95316731D01*
X139994587Y-95309003D01*
X139993024Y-95301142D01*
X139992212Y-95300330D01*
X139991551Y-95297915D01*
X139953455Y-95221724D01*
X139948543Y-95215395D01*
X139944089Y-95208729D01*
X139905994Y-95170635D01*
X139899334Y-95166184D01*
X139893000Y-95161269D01*
X139816810Y-95123174D01*
X139814394Y-95122512D01*
X139813583Y-95121701D01*
X139805721Y-95120137D01*
X139797994Y-95118021D01*
X139796905Y-95118383D01*
X139794449Y-95117895D01*
X139603972Y-95117895D01*
X139596109Y-95119458D01*
X139588161Y-95120461D01*
X139473876Y-95158556D01*
X139456927Y-95168217D01*
X139439813Y-95202446D01*
X139451914Y-95238750D01*
X139486143Y-95255864D01*
X139505498Y-95253424D01*
X139612085Y-95217895D01*
X139782646Y-95217895D01*
X139841021Y-95247082D01*
X139867641Y-95273703D01*
X139896830Y-95332079D01*
X139896830Y-95384662D01*
X139867641Y-95443038D01*
X139841021Y-95469659D01*
X139776997Y-95501671D01*
X139629941Y-95538435D01*
X139624988Y-95540774D01*
X139619707Y-95542221D01*
X139543516Y-95580317D01*
X139537187Y-95585228D01*
X139530521Y-95589683D01*
X139492427Y-95627778D01*
X139487976Y-95634437D01*
X139483061Y-95640772D01*
X139444966Y-95716962D01*
X139444304Y-95719377D01*
X139443493Y-95720189D01*
X139441929Y-95728050D01*
X139439813Y-95735778D01*
X139440175Y-95736866D01*
X139439687Y-95739323D01*
X139196829Y-95739323D01*
X139196829Y-95167895D01*
X139193023Y-95148761D01*
X139165963Y-95121701D01*
X139146829Y-95117895D01*
X138956353Y-95117895D01*
X138948490Y-95119458D01*
X138940542Y-95120461D01*
X138826256Y-95158556D01*
X138824081Y-95159796D01*
X138822933Y-95159796D01*
X138816272Y-95164246D01*
X138809307Y-95168217D01*
X138808793Y-95169244D01*
X138806712Y-95170635D01*
X138730522Y-95246825D01*
X138726069Y-95253487D01*
X138721156Y-95259819D01*
X138683061Y-95336011D01*
X138681615Y-95341289D01*
X138679275Y-95346244D01*
X138641179Y-95498625D01*
X138640881Y-95504742D01*
X138639686Y-95510752D01*
X138361438Y-95510752D01*
X138241882Y-95152084D01*
X138232221Y-95135135D01*
X138228878Y-95133464D01*
X138227208Y-95130122D01*
X138212168Y-95125108D01*
X138197992Y-95118021D01*
X138194448Y-95119202D01*
X138190904Y-95118021D01*
X138176727Y-95125108D01*
X138161688Y-95130122D01*
X138160017Y-95133464D01*
X138156675Y-95135135D01*
X138147014Y-95152083D01*
X137880348Y-95952084D01*
X137877908Y-95971439D01*
X137789019Y-95971439D01*
X137789019Y-95029006D01*
X140085719Y-95029006D01*
X140085719Y-96106784D01*
G37*
G36*
X153023719Y-100422526D02*
G01*
X151130199Y-100422526D01*
X151130199Y-99262029D01*
X151241310Y-99262029D01*
X151245112Y-99279995D01*
X151245112Y-99280553D01*
X151245261Y-99280702D01*
X151245349Y-99281115D01*
X151673920Y-100281115D01*
X151684955Y-100297202D01*
X151720487Y-100311415D01*
X151755660Y-100296340D01*
X151769873Y-100260809D01*
X151765834Y-100241723D01*
X151623218Y-99908951D01*
X152197493Y-99908951D01*
X152197493Y-99947219D01*
X152224553Y-99974279D01*
X152243687Y-99978085D01*
X152336544Y-99978085D01*
X152336544Y-100261419D01*
X152340350Y-100280553D01*
X152367410Y-100307613D01*
X152405678Y-100307613D01*
X152432738Y-100280553D01*
X152436544Y-100261419D01*
X152436544Y-99978085D01*
X152862734Y-99978085D01*
X152881868Y-99974279D01*
X152887687Y-99968459D01*
X152895494Y-99965857D01*
X152900698Y-99955449D01*
X152908928Y-99947219D01*
X152908928Y-99938989D01*
X152912608Y-99931629D01*
X152910168Y-99912273D01*
X152672073Y-99197989D01*
X152662412Y-99181040D01*
X152628183Y-99163926D01*
X152591879Y-99176027D01*
X152574765Y-99210256D01*
X152577205Y-99229611D01*
X152793363Y-99878085D01*
X152436544Y-99878085D01*
X152436544Y-99594752D01*
X152432738Y-99575618D01*
X152405678Y-99548558D01*
X152367410Y-99548558D01*
X152340350Y-99575618D01*
X152336544Y-99594752D01*
X152336544Y-99878085D01*
X152243687Y-99878085D01*
X152224553Y-99881891D01*
X152197493Y-99908951D01*
X151623218Y-99908951D01*
X151367133Y-99311419D01*
X151957972Y-99311419D01*
X151977106Y-99307613D01*
X152004166Y-99280553D01*
X152004166Y-99242285D01*
X151977106Y-99215225D01*
X151957972Y-99211419D01*
X151291306Y-99211419D01*
X151290891Y-99211501D01*
X151290696Y-99211423D01*
X151290185Y-99211641D01*
X151272172Y-99215225D01*
X151264933Y-99222463D01*
X151255522Y-99226497D01*
X151251937Y-99235459D01*
X151245112Y-99242285D01*
X151245112Y-99252523D01*
X151241310Y-99262029D01*
X151130199Y-99262029D01*
X151130199Y-99052815D01*
X153023719Y-99052815D01*
X153023719Y-100422526D01*
G37*
G36*
X140085719Y-98646784D02*
G01*
X137830794Y-98646784D01*
X137830794Y-98488761D01*
X137919683Y-98488761D01*
X137919683Y-98527029D01*
X137946743Y-98554089D01*
X137965877Y-98557895D01*
X138346829Y-98557895D01*
X138365963Y-98554089D01*
X138393023Y-98527029D01*
X138396829Y-98507895D01*
X138396829Y-97764950D01*
X138643492Y-97764950D01*
X138643492Y-97803219D01*
X138670551Y-97830279D01*
X138708820Y-97830279D01*
X138725041Y-97819441D01*
X138754791Y-97789691D01*
X138850180Y-97757895D01*
X138910145Y-97757895D01*
X139005535Y-97789691D01*
X139067641Y-97851797D01*
X139099652Y-97915821D01*
X139134925Y-98056907D01*
X139134925Y-98158882D01*
X139099653Y-98299967D01*
X139067641Y-98363992D01*
X139005534Y-98426098D01*
X138910145Y-98457895D01*
X138850180Y-98457895D01*
X138754790Y-98426098D01*
X138725041Y-98396349D01*
X138708820Y-98385510D01*
X138670552Y-98385510D01*
X138643492Y-98412570D01*
X138643492Y-98450838D01*
X138654331Y-98467059D01*
X138692427Y-98505155D01*
X138694508Y-98506545D01*
X138695022Y-98507573D01*
X138701987Y-98511543D01*
X138708648Y-98515994D01*
X138709796Y-98515994D01*
X138711971Y-98517234D01*
X138826256Y-98555329D01*
X138834204Y-98556331D01*
X138842067Y-98557895D01*
X138918258Y-98557895D01*
X138926120Y-98556331D01*
X138934069Y-98555329D01*
X139048355Y-98517234D01*
X139050530Y-98515994D01*
X139051679Y-98515994D01*
X139058345Y-98511539D01*
X139065304Y-98507573D01*
X139065817Y-98506546D01*
X139067900Y-98505155D01*
X139144090Y-98428964D01*
X139148543Y-98422298D01*
X139153455Y-98415970D01*
X139191550Y-98339780D01*
X139192996Y-98334498D01*
X139195336Y-98329546D01*
X139207892Y-98279323D01*
X139439687Y-98279323D01*
X139439687Y-98355514D01*
X139440175Y-98357970D01*
X139439813Y-98359059D01*
X139441929Y-98366786D01*
X139443493Y-98374648D01*
X139444304Y-98375459D01*
X139444966Y-98377875D01*
X139483061Y-98454065D01*
X139487972Y-98460393D01*
X139492426Y-98467059D01*
X139530521Y-98505155D01*
X139537191Y-98509611D01*
X139543517Y-98514521D01*
X139619708Y-98552617D01*
X139622123Y-98553278D01*
X139622934Y-98554089D01*
X139630794Y-98555652D01*
X139638524Y-98557769D01*
X139639611Y-98557406D01*
X139642068Y-98557895D01*
X139832544Y-98557895D01*
X139840406Y-98556331D01*
X139848355Y-98555329D01*
X139962641Y-98517234D01*
X139979590Y-98507573D01*
X139996704Y-98473344D01*
X139984603Y-98437040D01*
X139950374Y-98419926D01*
X139931019Y-98422366D01*
X139824431Y-98457895D01*
X139653871Y-98457895D01*
X139595497Y-98428708D01*
X139568874Y-98402085D01*
X139539687Y-98343711D01*
X139539687Y-98291126D01*
X139568874Y-98232750D01*
X139595495Y-98206130D01*
X139659519Y-98174117D01*
X139806576Y-98137354D01*
X139811528Y-98135014D01*
X139816810Y-98133568D01*
X139893000Y-98095473D01*
X139899334Y-98090557D01*
X139905994Y-98086107D01*
X139944089Y-98048013D01*
X139948543Y-98041346D01*
X139953455Y-98035018D01*
X139991551Y-97958827D01*
X139992212Y-97956411D01*
X139993024Y-97955600D01*
X139994587Y-97947738D01*
X139996704Y-97940011D01*
X139996341Y-97938922D01*
X139996830Y-97936466D01*
X139996830Y-97860276D01*
X139996341Y-97857819D01*
X139996704Y-97856731D01*
X139994587Y-97849003D01*
X139993024Y-97841142D01*
X139992212Y-97840330D01*
X139991551Y-97837915D01*
X139953455Y-97761724D01*
X139948543Y-97755395D01*
X139944089Y-97748729D01*
X139905994Y-97710635D01*
X139899334Y-97706184D01*
X139893000Y-97701269D01*
X139816810Y-97663174D01*
X139814394Y-97662512D01*
X139813583Y-97661701D01*
X139805721Y-97660137D01*
X139797994Y-97658021D01*
X139796905Y-97658383D01*
X139794449Y-97657895D01*
X139603972Y-97657895D01*
X139596109Y-97659458D01*
X139588161Y-97660461D01*
X139473876Y-97698556D01*
X139456927Y-97708217D01*
X139439813Y-97742446D01*
X139451914Y-97778750D01*
X139486143Y-97795864D01*
X139505498Y-97793424D01*
X139612085Y-97757895D01*
X139782646Y-97757895D01*
X139841021Y-97787082D01*
X139867641Y-97813703D01*
X139896830Y-97872079D01*
X139896830Y-97924662D01*
X139867641Y-97983038D01*
X139841021Y-98009659D01*
X139776997Y-98041671D01*
X139629941Y-98078435D01*
X139624988Y-98080774D01*
X139619707Y-98082221D01*
X139543516Y-98120317D01*
X139537187Y-98125228D01*
X139530521Y-98129683D01*
X139492427Y-98167778D01*
X139487976Y-98174437D01*
X139483061Y-98180772D01*
X139444966Y-98256962D01*
X139444304Y-98259377D01*
X139443493Y-98260189D01*
X139441929Y-98268050D01*
X139439813Y-98275778D01*
X139440175Y-98276866D01*
X139439687Y-98279323D01*
X139207892Y-98279323D01*
X139233432Y-98177165D01*
X139233729Y-98171047D01*
X139234925Y-98165038D01*
X139234925Y-98050752D01*
X139233729Y-98044742D01*
X139233432Y-98038625D01*
X139195336Y-97886244D01*
X139192997Y-97881293D01*
X139191551Y-97876011D01*
X139153455Y-97799820D01*
X139148543Y-97793491D01*
X139144089Y-97786825D01*
X139067899Y-97710635D01*
X139065817Y-97709244D01*
X139065304Y-97708217D01*
X139058338Y-97704246D01*
X139051678Y-97699796D01*
X139050530Y-97699796D01*
X139048355Y-97698556D01*
X138934069Y-97660461D01*
X138926120Y-97659458D01*
X138918258Y-97657895D01*
X138842067Y-97657895D01*
X138834204Y-97659458D01*
X138826256Y-97660461D01*
X138711971Y-97698556D01*
X138709795Y-97699796D01*
X138708648Y-97699796D01*
X138701982Y-97704249D01*
X138695022Y-97708217D01*
X138694509Y-97709242D01*
X138692427Y-97710634D01*
X138654331Y-97748729D01*
X138643492Y-97764950D01*
X138396829Y-97764950D01*
X138396829Y-97707895D01*
X138393023Y-97688761D01*
X138365963Y-97661701D01*
X138327695Y-97661701D01*
X138300635Y-97688761D01*
X138296829Y-97707895D01*
X138296829Y-98457895D01*
X137965877Y-98457895D01*
X137946743Y-98461701D01*
X137919683Y-98488761D01*
X137830794Y-98488761D01*
X137830794Y-97569006D01*
X140085719Y-97569006D01*
X140085719Y-98646784D01*
G37*
G36*
X147860658Y-100422530D02*
G01*
X145974620Y-100422530D01*
X145974620Y-100242285D01*
X146085731Y-100242285D01*
X146085731Y-100280553D01*
X146112791Y-100307613D01*
X146131925Y-100311419D01*
X146703353Y-100311419D01*
X146722487Y-100307613D01*
X146749547Y-100280553D01*
X146749547Y-100242285D01*
X146722487Y-100215225D01*
X146703353Y-100211419D01*
X146467639Y-100211419D01*
X146467639Y-99426557D01*
X146471275Y-99432011D01*
X146474771Y-99435515D01*
X146477522Y-99439631D01*
X146572760Y-99534869D01*
X146579419Y-99539319D01*
X146585754Y-99544235D01*
X146680992Y-99591854D01*
X146699808Y-99597007D01*
X146736113Y-99584905D01*
X146753227Y-99550677D01*
X146741125Y-99514373D01*
X146725713Y-99502411D01*
X146637731Y-99458420D01*
X146631206Y-99451895D01*
X147034306Y-99451895D01*
X147034306Y-99547133D01*
X147035869Y-99554995D01*
X147036872Y-99562944D01*
X147084491Y-99705801D01*
X147085731Y-99707976D01*
X147085731Y-99709124D01*
X147090184Y-99715788D01*
X147094152Y-99722749D01*
X147095178Y-99723262D01*
X147096570Y-99725345D01*
X147582643Y-100211419D01*
X147084306Y-100211419D01*
X147065172Y-100215225D01*
X147038112Y-100242285D01*
X147038112Y-100280553D01*
X147065172Y-100307613D01*
X147084306Y-100311419D01*
X147703353Y-100311419D01*
X147722487Y-100307613D01*
X147749547Y-100280553D01*
X147749547Y-100242285D01*
X147738708Y-100226064D01*
X147175626Y-99662981D01*
X147134306Y-99539019D01*
X147134306Y-99463698D01*
X147173017Y-99386274D01*
X147209162Y-99350130D01*
X147286586Y-99311419D01*
X147501074Y-99311419D01*
X147578497Y-99350130D01*
X147620378Y-99392012D01*
X147636599Y-99402851D01*
X147674868Y-99402851D01*
X147701928Y-99375791D01*
X147701928Y-99337522D01*
X147691089Y-99321301D01*
X147643470Y-99273683D01*
X147636808Y-99269231D01*
X147630475Y-99264316D01*
X147535238Y-99216698D01*
X147532822Y-99216036D01*
X147532011Y-99215225D01*
X147524149Y-99213661D01*
X147516422Y-99211545D01*
X147515333Y-99211907D01*
X147512877Y-99211419D01*
X147274782Y-99211419D01*
X147272325Y-99211907D01*
X147271237Y-99211545D01*
X147263509Y-99213661D01*
X147255648Y-99215225D01*
X147254836Y-99216036D01*
X147252421Y-99216698D01*
X147157183Y-99264317D01*
X147150854Y-99269228D01*
X147144188Y-99273683D01*
X147096570Y-99321302D01*
X147092118Y-99327963D01*
X147087203Y-99334297D01*
X147039585Y-99429534D01*
X147038923Y-99431949D01*
X147038112Y-99432761D01*
X147036548Y-99440622D01*
X147034432Y-99448350D01*
X147034794Y-99449438D01*
X147034306Y-99451895D01*
X146631206Y-99451895D01*
X146551736Y-99372425D01*
X146459242Y-99233684D01*
X146445461Y-99219875D01*
X146440413Y-99218865D01*
X146436773Y-99215225D01*
X146422211Y-99215225D01*
X146407936Y-99212370D01*
X146403653Y-99215225D01*
X146398505Y-99215225D01*
X146388208Y-99225521D01*
X146376095Y-99233597D01*
X146375085Y-99238644D01*
X146371445Y-99242285D01*
X146367639Y-99261419D01*
X146367639Y-100211419D01*
X146131925Y-100211419D01*
X146112791Y-100215225D01*
X146085731Y-100242285D01*
X145974620Y-100242285D01*
X145974620Y-99100308D01*
X147860658Y-99100308D01*
X147860658Y-100422530D01*
G37*
G36*
X144038497Y-99731082D02*
G01*
X144074641Y-99767227D01*
X144113353Y-99844650D01*
X144113353Y-100059138D01*
X144074641Y-100136561D01*
X144038495Y-100172708D01*
X143961074Y-100211419D01*
X143794205Y-100211419D01*
X143716782Y-100172708D01*
X143680636Y-100136561D01*
X143641925Y-100059139D01*
X143641925Y-99844650D01*
X143680636Y-99767226D01*
X143716781Y-99731082D01*
X143794205Y-99692371D01*
X143961074Y-99692371D01*
X144038497Y-99731082D01*
G37*
G36*
X145276719Y-100422530D02*
G01*
X143430814Y-100422530D01*
X143430814Y-99832847D01*
X143541925Y-99832847D01*
X143541925Y-100070942D01*
X143542413Y-100073398D01*
X143542051Y-100074487D01*
X143544167Y-100082214D01*
X143545731Y-100090076D01*
X143546542Y-100090887D01*
X143547204Y-100093303D01*
X143594822Y-100188540D01*
X143599733Y-100194868D01*
X143604188Y-100201535D01*
X143651807Y-100249155D01*
X143658473Y-100253609D01*
X143664802Y-100258521D01*
X143760040Y-100306140D01*
X143762455Y-100306801D01*
X143763267Y-100307613D01*
X143771128Y-100309176D01*
X143778856Y-100311293D01*
X143779944Y-100310930D01*
X143782401Y-100311419D01*
X143972877Y-100311419D01*
X143975333Y-100310930D01*
X143976422Y-100311293D01*
X143984149Y-100309176D01*
X143992011Y-100307613D01*
X143992822Y-100306801D01*
X143995238Y-100306140D01*
X144090475Y-100258522D01*
X144096802Y-100253611D01*
X144103471Y-100249155D01*
X144151090Y-100201535D01*
X144155543Y-100194869D01*
X144160455Y-100188541D01*
X144208074Y-100093303D01*
X144208735Y-100090887D01*
X144209547Y-100090076D01*
X144211110Y-100082214D01*
X144213227Y-100074487D01*
X144212864Y-100073398D01*
X144213353Y-100070942D01*
X144213353Y-99908951D01*
X144450493Y-99908951D01*
X144450493Y-99947219D01*
X144477553Y-99974279D01*
X144496687Y-99978085D01*
X144589544Y-99978085D01*
X144589544Y-100261419D01*
X144593350Y-100280553D01*
X144620410Y-100307613D01*
X144658678Y-100307613D01*
X144685738Y-100280553D01*
X144689544Y-100261419D01*
X144689544Y-99978085D01*
X145115734Y-99978085D01*
X145134868Y-99974279D01*
X145140687Y-99968459D01*
X145148494Y-99965857D01*
X145153698Y-99955449D01*
X145161928Y-99947219D01*
X145161928Y-99938989D01*
X145165608Y-99931629D01*
X145163168Y-99912273D01*
X144925073Y-99197989D01*
X144915412Y-99181040D01*
X144881183Y-99163926D01*
X144844879Y-99176027D01*
X144827765Y-99210256D01*
X144830205Y-99229611D01*
X145046363Y-99878085D01*
X144689544Y-99878085D01*
X144689544Y-99594752D01*
X144685738Y-99575618D01*
X144658678Y-99548558D01*
X144620410Y-99548558D01*
X144593350Y-99575618D01*
X144589544Y-99594752D01*
X144589544Y-99878085D01*
X144496687Y-99878085D01*
X144477553Y-99881891D01*
X144450493Y-99908951D01*
X144213353Y-99908951D01*
X144213353Y-99689990D01*
X144212157Y-99683980D01*
X144211860Y-99677863D01*
X144164241Y-99487387D01*
X144160599Y-99479679D01*
X144157337Y-99471779D01*
X144062099Y-99328922D01*
X144058601Y-99325417D01*
X144055851Y-99321301D01*
X144008232Y-99273683D01*
X144001570Y-99269231D01*
X143995237Y-99264316D01*
X143900000Y-99216698D01*
X143897584Y-99216036D01*
X143896773Y-99215225D01*
X143888911Y-99213661D01*
X143881184Y-99211545D01*
X143880095Y-99211907D01*
X143877639Y-99211419D01*
X143687163Y-99211419D01*
X143668029Y-99215225D01*
X143640969Y-99242285D01*
X143640969Y-99280553D01*
X143668029Y-99307613D01*
X143687163Y-99311419D01*
X143865836Y-99311419D01*
X143943259Y-99350130D01*
X143981638Y-99388510D01*
X144069327Y-99520041D01*
X144102876Y-99654238D01*
X144096808Y-99650183D01*
X144090475Y-99645268D01*
X143995238Y-99597650D01*
X143992822Y-99596988D01*
X143992011Y-99596177D01*
X143984149Y-99594613D01*
X143976422Y-99592497D01*
X143975333Y-99592859D01*
X143972877Y-99592371D01*
X143782401Y-99592371D01*
X143779944Y-99592859D01*
X143778856Y-99592497D01*
X143771128Y-99594613D01*
X143763267Y-99596177D01*
X143762455Y-99596988D01*
X143760040Y-99597650D01*
X143664802Y-99645269D01*
X143658473Y-99650180D01*
X143651807Y-99654635D01*
X143604189Y-99702254D01*
X143599737Y-99708915D01*
X143594822Y-99715249D01*
X143547204Y-99810486D01*
X143546542Y-99812901D01*
X143545731Y-99813713D01*
X143544167Y-99821574D01*
X143542051Y-99829302D01*
X143542413Y-99830390D01*
X143541925Y-99832847D01*
X143430814Y-99832847D01*
X143430814Y-99052815D01*
X145276719Y-99052815D01*
X145276719Y-100422530D01*
G37*
G36*
X138347639Y-93377895D02*
G01*
X138215276Y-93377895D01*
X138119887Y-93346099D01*
X138057779Y-93283990D01*
X138025767Y-93219967D01*
X137990496Y-93078882D01*
X137990496Y-92976907D01*
X138025768Y-92835820D01*
X138057780Y-92771796D01*
X138119885Y-92709691D01*
X138215276Y-92677895D01*
X138347639Y-92677895D01*
X138347639Y-93377895D01*
G37*
G36*
X140212719Y-93566784D02*
G01*
X137801607Y-93566784D01*
X137801607Y-92970752D01*
X137890496Y-92970752D01*
X137890496Y-93085038D01*
X137891691Y-93091047D01*
X137891989Y-93097165D01*
X137930085Y-93249546D01*
X137932424Y-93254498D01*
X137933871Y-93259780D01*
X137971966Y-93335970D01*
X137976877Y-93342298D01*
X137981331Y-93348964D01*
X138057522Y-93425155D01*
X138059603Y-93426545D01*
X138060117Y-93427573D01*
X138067082Y-93431543D01*
X138073743Y-93435994D01*
X138074891Y-93435994D01*
X138077066Y-93437234D01*
X138191352Y-93475329D01*
X138199300Y-93476331D01*
X138207163Y-93477895D01*
X138397639Y-93477895D01*
X138416773Y-93474089D01*
X138443833Y-93447029D01*
X138447639Y-93427895D01*
X138447639Y-92627895D01*
X138728591Y-92627895D01*
X138728591Y-93427895D01*
X138732397Y-93447029D01*
X138737252Y-93451884D01*
X138739059Y-93458509D01*
X138750301Y-93464933D01*
X138759457Y-93474089D01*
X138766323Y-93474089D01*
X138772285Y-93477496D01*
X138784777Y-93474089D01*
X138797725Y-93474089D01*
X138802580Y-93469233D01*
X138809205Y-93467427D01*
X138822003Y-93452702D01*
X139185734Y-92816172D01*
X139185734Y-93427895D01*
X139189540Y-93447029D01*
X139216600Y-93474089D01*
X139254868Y-93474089D01*
X139281928Y-93447029D01*
X139285734Y-93427895D01*
X139285734Y-93085038D01*
X139528591Y-93085038D01*
X139528591Y-93351704D01*
X139532397Y-93370838D01*
X139543236Y-93387059D01*
X139581332Y-93425155D01*
X139583413Y-93426545D01*
X139583927Y-93427573D01*
X139590892Y-93431543D01*
X139597553Y-93435994D01*
X139598701Y-93435994D01*
X139600876Y-93437234D01*
X139715161Y-93475329D01*
X139723109Y-93476331D01*
X139730972Y-93477895D01*
X139807163Y-93477895D01*
X139815025Y-93476331D01*
X139822974Y-93475329D01*
X139937260Y-93437234D01*
X139939435Y-93435994D01*
X139940584Y-93435994D01*
X139947250Y-93431539D01*
X139954209Y-93427573D01*
X139954722Y-93426546D01*
X139956805Y-93425155D01*
X140032995Y-93348964D01*
X140037448Y-93342298D01*
X140042360Y-93335970D01*
X140080455Y-93259780D01*
X140081901Y-93254498D01*
X140084241Y-93249546D01*
X140122337Y-93097165D01*
X140122634Y-93091047D01*
X140123830Y-93085038D01*
X140123830Y-92970752D01*
X140122634Y-92964742D01*
X140122337Y-92958625D01*
X140084241Y-92806244D01*
X140081902Y-92801293D01*
X140080456Y-92796011D01*
X140042360Y-92719820D01*
X140037448Y-92713491D01*
X140032994Y-92706825D01*
X139956804Y-92630635D01*
X139954722Y-92629244D01*
X139954209Y-92628217D01*
X139947243Y-92624246D01*
X139940583Y-92619796D01*
X139939435Y-92619796D01*
X139937260Y-92618556D01*
X139822974Y-92580461D01*
X139815025Y-92579458D01*
X139807163Y-92577895D01*
X139692877Y-92577895D01*
X139690420Y-92578383D01*
X139689332Y-92578021D01*
X139681604Y-92580137D01*
X139673743Y-92581701D01*
X139672931Y-92582512D01*
X139670516Y-92583174D01*
X139594326Y-92621269D01*
X139578914Y-92633230D01*
X139566813Y-92669535D01*
X139583927Y-92703763D01*
X139620232Y-92715864D01*
X139639048Y-92710711D01*
X139704680Y-92677895D01*
X139799050Y-92677895D01*
X139894440Y-92709691D01*
X139956546Y-92771797D01*
X139988557Y-92835821D01*
X140023830Y-92976907D01*
X140023830Y-93078882D01*
X139988558Y-93219967D01*
X139956546Y-93283992D01*
X139894439Y-93346098D01*
X139799050Y-93377895D01*
X139739085Y-93377895D01*
X139643695Y-93346098D01*
X139628591Y-93330994D01*
X139628591Y-93135038D01*
X139730972Y-93135038D01*
X139750106Y-93131232D01*
X139777166Y-93104172D01*
X139777166Y-93065904D01*
X139750106Y-93038844D01*
X139730972Y-93035038D01*
X139578591Y-93035038D01*
X139559457Y-93038844D01*
X139532397Y-93065904D01*
X139528591Y-93085038D01*
X139285734Y-93085038D01*
X139285734Y-92627895D01*
X139281928Y-92608761D01*
X139277073Y-92603906D01*
X139275266Y-92597280D01*
X139264021Y-92590854D01*
X139254868Y-92581701D01*
X139248002Y-92581701D01*
X139242040Y-92578294D01*
X139229548Y-92581701D01*
X139216600Y-92581701D01*
X139211744Y-92586556D01*
X139205120Y-92588363D01*
X139192322Y-92603088D01*
X138828591Y-93239617D01*
X138828591Y-92627895D01*
X138824785Y-92608761D01*
X138797725Y-92581701D01*
X138759457Y-92581701D01*
X138732397Y-92608761D01*
X138728591Y-92627895D01*
X138447639Y-92627895D01*
X138443833Y-92608761D01*
X138416773Y-92581701D01*
X138397639Y-92577895D01*
X138207163Y-92577895D01*
X138199300Y-92579458D01*
X138191352Y-92580461D01*
X138077066Y-92618556D01*
X138074891Y-92619796D01*
X138073743Y-92619796D01*
X138067082Y-92624246D01*
X138060117Y-92628217D01*
X138059603Y-92629244D01*
X138057522Y-92630635D01*
X137981332Y-92706825D01*
X137976879Y-92713487D01*
X137971966Y-92719819D01*
X137933871Y-92796011D01*
X137932425Y-92801289D01*
X137930085Y-92806244D01*
X137891989Y-92958625D01*
X137891691Y-92964742D01*
X137890496Y-92970752D01*
X137801607Y-92970752D01*
X137801607Y-92489006D01*
X140212719Y-92489006D01*
X140212719Y-93566784D01*
G37*
G36*
X139993008Y-91026784D02*
G01*
X137776179Y-91026784D01*
X137776179Y-90545038D01*
X137865068Y-90545038D01*
X137865068Y-90735514D01*
X137865556Y-90737970D01*
X137865194Y-90739059D01*
X137867310Y-90746786D01*
X137868874Y-90754648D01*
X137869685Y-90755459D01*
X137870347Y-90757875D01*
X137908442Y-90834065D01*
X137913353Y-90840393D01*
X137917807Y-90847059D01*
X137955902Y-90885155D01*
X137962572Y-90889611D01*
X137968898Y-90894521D01*
X138045089Y-90932617D01*
X138047504Y-90933278D01*
X138048315Y-90934089D01*
X138056175Y-90935652D01*
X138063905Y-90937769D01*
X138064992Y-90937406D01*
X138067449Y-90937895D01*
X138296020Y-90937895D01*
X138298476Y-90937406D01*
X138299564Y-90937769D01*
X138307288Y-90935653D01*
X138315154Y-90934089D01*
X138315965Y-90933277D01*
X138318380Y-90932616D01*
X138394572Y-90894521D01*
X138400897Y-90889611D01*
X138407567Y-90885155D01*
X138445662Y-90847059D01*
X138456500Y-90830838D01*
X138456499Y-90792569D01*
X138429440Y-90765510D01*
X138391171Y-90765511D01*
X138374950Y-90776349D01*
X138342592Y-90808707D01*
X138284218Y-90837895D01*
X138079252Y-90837895D01*
X138020878Y-90808708D01*
X137994255Y-90782085D01*
X137965068Y-90723711D01*
X137965068Y-90556840D01*
X137994256Y-90498463D01*
X138020877Y-90471843D01*
X138079252Y-90442657D01*
X138181734Y-90442657D01*
X138195676Y-90439883D01*
X138197753Y-90440022D01*
X138198568Y-90439308D01*
X138200868Y-90438851D01*
X138213305Y-90426414D01*
X138226553Y-90414822D01*
X138226671Y-90413047D01*
X138227928Y-90411791D01*
X138227928Y-90394200D01*
X138229099Y-90376638D01*
X138227928Y-90374604D01*
X138227928Y-90373523D01*
X138226459Y-90372054D01*
X138219363Y-90359732D01*
X138025256Y-90137895D01*
X138410306Y-90137895D01*
X138429440Y-90134089D01*
X138456500Y-90107029D01*
X138456500Y-90084351D01*
X138550908Y-90084351D01*
X138553348Y-90103706D01*
X138820014Y-90903707D01*
X138829675Y-90920655D01*
X138833017Y-90922325D01*
X138834688Y-90925668D01*
X138849727Y-90930681D01*
X138863904Y-90937769D01*
X138867448Y-90936587D01*
X138870992Y-90937769D01*
X138885168Y-90930681D01*
X138900208Y-90925668D01*
X138901878Y-90922325D01*
X138905221Y-90920655D01*
X138914882Y-90903706D01*
X139034438Y-90545038D01*
X139312687Y-90545038D01*
X139312687Y-90735514D01*
X139313175Y-90737970D01*
X139312813Y-90739059D01*
X139314929Y-90746786D01*
X139316493Y-90754648D01*
X139317304Y-90755459D01*
X139317966Y-90757875D01*
X139356061Y-90834065D01*
X139360972Y-90840393D01*
X139365426Y-90847059D01*
X139403521Y-90885155D01*
X139410191Y-90889611D01*
X139416517Y-90894521D01*
X139492708Y-90932617D01*
X139495123Y-90933278D01*
X139495934Y-90934089D01*
X139503794Y-90935652D01*
X139511524Y-90937769D01*
X139512611Y-90937406D01*
X139515068Y-90937895D01*
X139743639Y-90937895D01*
X139746095Y-90937406D01*
X139747183Y-90937769D01*
X139754907Y-90935653D01*
X139762773Y-90934089D01*
X139763584Y-90933277D01*
X139765999Y-90932616D01*
X139842191Y-90894521D01*
X139848516Y-90889611D01*
X139855186Y-90885155D01*
X139893281Y-90847059D01*
X139904119Y-90830838D01*
X139904118Y-90792569D01*
X139877059Y-90765510D01*
X139838790Y-90765511D01*
X139822569Y-90776349D01*
X139790211Y-90808707D01*
X139731837Y-90837895D01*
X139526871Y-90837895D01*
X139468497Y-90808708D01*
X139441874Y-90782085D01*
X139412687Y-90723711D01*
X139412687Y-90556840D01*
X139441875Y-90498463D01*
X139468496Y-90471843D01*
X139526871Y-90442657D01*
X139629353Y-90442657D01*
X139643295Y-90439883D01*
X139645372Y-90440022D01*
X139646187Y-90439308D01*
X139648487Y-90438851D01*
X139660924Y-90426414D01*
X139674172Y-90414822D01*
X139674290Y-90413047D01*
X139675547Y-90411791D01*
X139675547Y-90394200D01*
X139676718Y-90376638D01*
X139675547Y-90374604D01*
X139675547Y-90373523D01*
X139674078Y-90372054D01*
X139666982Y-90359732D01*
X139472875Y-90137895D01*
X139857925Y-90137895D01*
X139877059Y-90134089D01*
X139904119Y-90107029D01*
X139904119Y-90068761D01*
X139877059Y-90041701D01*
X139857925Y-90037895D01*
X139362687Y-90037895D01*
X139348740Y-90040669D01*
X139346668Y-90040531D01*
X139345853Y-90041243D01*
X139343553Y-90041701D01*
X139331112Y-90054141D01*
X139317868Y-90065730D01*
X139317749Y-90067504D01*
X139316493Y-90068761D01*
X139316493Y-90086359D01*
X139315323Y-90103914D01*
X139316493Y-90105945D01*
X139316493Y-90107029D01*
X139317963Y-90108499D01*
X139325058Y-90120820D01*
X139519164Y-90342657D01*
X139515068Y-90342657D01*
X139512611Y-90343145D01*
X139511524Y-90342783D01*
X139503794Y-90344899D01*
X139495934Y-90346463D01*
X139495123Y-90347273D01*
X139492708Y-90347935D01*
X139416517Y-90386031D01*
X139410195Y-90390937D01*
X139403521Y-90395397D01*
X139365427Y-90433492D01*
X139360974Y-90440154D01*
X139356061Y-90446486D01*
X139317966Y-90522678D01*
X139317304Y-90525092D01*
X139316493Y-90525904D01*
X139314928Y-90533769D01*
X139312813Y-90541494D01*
X139313175Y-90542581D01*
X139312687Y-90545038D01*
X139034438Y-90545038D01*
X139181549Y-90103707D01*
X139183989Y-90084351D01*
X139166875Y-90050122D01*
X139130571Y-90038021D01*
X139096342Y-90055135D01*
X139086681Y-90072084D01*
X138867448Y-90729781D01*
X138648216Y-90072084D01*
X138638555Y-90055135D01*
X138604326Y-90038021D01*
X138568022Y-90050122D01*
X138550908Y-90084351D01*
X138456500Y-90084351D01*
X138456500Y-90068761D01*
X138429440Y-90041701D01*
X138410306Y-90037895D01*
X137915068Y-90037895D01*
X137901121Y-90040669D01*
X137899049Y-90040531D01*
X137898234Y-90041243D01*
X137895934Y-90041701D01*
X137883493Y-90054141D01*
X137870249Y-90065730D01*
X137870130Y-90067504D01*
X137868874Y-90068761D01*
X137868874Y-90086359D01*
X137867704Y-90103914D01*
X137868874Y-90105945D01*
X137868874Y-90107029D01*
X137870344Y-90108499D01*
X137877439Y-90120820D01*
X138071545Y-90342657D01*
X138067449Y-90342657D01*
X138064992Y-90343145D01*
X138063905Y-90342783D01*
X138056175Y-90344899D01*
X138048315Y-90346463D01*
X138047504Y-90347273D01*
X138045089Y-90347935D01*
X137968898Y-90386031D01*
X137962576Y-90390937D01*
X137955902Y-90395397D01*
X137917808Y-90433492D01*
X137913355Y-90440154D01*
X137908442Y-90446486D01*
X137870347Y-90522678D01*
X137869685Y-90525092D01*
X137868874Y-90525904D01*
X137867309Y-90533769D01*
X137865194Y-90541494D01*
X137865556Y-90542581D01*
X137865068Y-90545038D01*
X137776179Y-90545038D01*
X137776179Y-89949006D01*
X139993008Y-89949006D01*
X139993008Y-91026784D01*
G37*
G36*
X156420878Y-115134282D02*
G01*
X156457022Y-115170427D01*
X156495734Y-115247850D01*
X156495734Y-115462338D01*
X156457022Y-115539761D01*
X156420876Y-115575908D01*
X156343455Y-115614619D01*
X156176586Y-115614619D01*
X156099163Y-115575908D01*
X156063017Y-115539761D01*
X156024306Y-115462339D01*
X156024306Y-115247850D01*
X156063017Y-115170426D01*
X156099162Y-115134282D01*
X156176586Y-115095571D01*
X156343455Y-115095571D01*
X156420878Y-115134282D01*
G37*
G36*
X156706845Y-115825730D02*
G01*
X155813195Y-115825730D01*
X155813195Y-115236047D01*
X155924306Y-115236047D01*
X155924306Y-115474142D01*
X155924794Y-115476598D01*
X155924432Y-115477687D01*
X155926548Y-115485414D01*
X155928112Y-115493276D01*
X155928923Y-115494087D01*
X155929585Y-115496503D01*
X155977203Y-115591740D01*
X155982114Y-115598068D01*
X155986569Y-115604735D01*
X156034188Y-115652355D01*
X156040854Y-115656809D01*
X156047183Y-115661721D01*
X156142421Y-115709340D01*
X156144836Y-115710001D01*
X156145648Y-115710813D01*
X156153509Y-115712376D01*
X156161237Y-115714493D01*
X156162325Y-115714130D01*
X156164782Y-115714619D01*
X156355258Y-115714619D01*
X156357714Y-115714130D01*
X156358803Y-115714493D01*
X156366530Y-115712376D01*
X156374392Y-115710813D01*
X156375203Y-115710001D01*
X156377619Y-115709340D01*
X156472856Y-115661722D01*
X156479183Y-115656811D01*
X156485852Y-115652355D01*
X156533471Y-115604735D01*
X156537924Y-115598069D01*
X156542836Y-115591741D01*
X156590455Y-115496503D01*
X156591116Y-115494087D01*
X156591928Y-115493276D01*
X156593491Y-115485414D01*
X156595608Y-115477687D01*
X156595245Y-115476598D01*
X156595734Y-115474142D01*
X156595734Y-115093190D01*
X156594538Y-115087180D01*
X156594241Y-115081063D01*
X156546622Y-114890587D01*
X156542980Y-114882879D01*
X156539718Y-114874979D01*
X156444480Y-114732122D01*
X156440982Y-114728617D01*
X156438232Y-114724501D01*
X156390613Y-114676883D01*
X156383951Y-114672431D01*
X156377618Y-114667516D01*
X156282381Y-114619898D01*
X156279965Y-114619236D01*
X156279154Y-114618425D01*
X156271292Y-114616861D01*
X156263565Y-114614745D01*
X156262476Y-114615107D01*
X156260020Y-114614619D01*
X156069544Y-114614619D01*
X156050410Y-114618425D01*
X156023350Y-114645485D01*
X156023350Y-114683753D01*
X156050410Y-114710813D01*
X156069544Y-114714619D01*
X156248217Y-114714619D01*
X156325640Y-114753330D01*
X156364019Y-114791710D01*
X156451708Y-114923241D01*
X156485257Y-115057438D01*
X156479189Y-115053383D01*
X156472856Y-115048468D01*
X156377619Y-115000850D01*
X156375203Y-115000188D01*
X156374392Y-114999377D01*
X156366530Y-114997813D01*
X156358803Y-114995697D01*
X156357714Y-114996059D01*
X156355258Y-114995571D01*
X156164782Y-114995571D01*
X156162325Y-114996059D01*
X156161237Y-114995697D01*
X156153509Y-114997813D01*
X156145648Y-114999377D01*
X156144836Y-115000188D01*
X156142421Y-115000850D01*
X156047183Y-115048469D01*
X156040854Y-115053380D01*
X156034188Y-115057835D01*
X155986570Y-115105454D01*
X155982118Y-115112115D01*
X155977203Y-115118449D01*
X155929585Y-115213686D01*
X155928923Y-115216101D01*
X155928112Y-115216913D01*
X155926548Y-115224774D01*
X155924432Y-115232502D01*
X155924794Y-115233590D01*
X155924306Y-115236047D01*
X155813195Y-115236047D01*
X155813195Y-114503508D01*
X156706845Y-114503508D01*
X156706845Y-115825730D01*
G37*
G36*
X143244719Y-104867530D02*
G01*
X142355001Y-104867530D01*
X142355001Y-104687285D01*
X142466112Y-104687285D01*
X142466112Y-104725553D01*
X142493172Y-104752613D01*
X142512306Y-104756419D01*
X143083734Y-104756419D01*
X143102868Y-104752613D01*
X143129928Y-104725553D01*
X143129928Y-104687285D01*
X143102868Y-104660225D01*
X143083734Y-104656419D01*
X142848020Y-104656419D01*
X142848020Y-103871557D01*
X142851656Y-103877011D01*
X142855152Y-103880515D01*
X142857903Y-103884631D01*
X142953141Y-103979869D01*
X142959800Y-103984319D01*
X142966135Y-103989235D01*
X143061373Y-104036854D01*
X143080189Y-104042007D01*
X143116494Y-104029905D01*
X143133608Y-103995677D01*
X143121506Y-103959373D01*
X143106094Y-103947411D01*
X143018112Y-103903420D01*
X142932117Y-103817425D01*
X142839623Y-103678684D01*
X142825842Y-103664875D01*
X142820794Y-103663865D01*
X142817154Y-103660225D01*
X142802592Y-103660225D01*
X142788317Y-103657370D01*
X142784034Y-103660225D01*
X142778886Y-103660225D01*
X142768589Y-103670521D01*
X142756476Y-103678597D01*
X142755466Y-103683644D01*
X142751826Y-103687285D01*
X142748020Y-103706419D01*
X142748020Y-104656419D01*
X142512306Y-104656419D01*
X142493172Y-104660225D01*
X142466112Y-104687285D01*
X142355001Y-104687285D01*
X142355001Y-103546259D01*
X143244719Y-103546259D01*
X143244719Y-104867530D01*
G37*
G36*
X156750658Y-104867530D02*
G01*
X155813195Y-104867530D01*
X155813195Y-104277847D01*
X155924306Y-104277847D01*
X155924306Y-104515942D01*
X155924794Y-104518398D01*
X155924432Y-104519487D01*
X155926548Y-104527214D01*
X155928112Y-104535076D01*
X155928923Y-104535887D01*
X155929585Y-104538303D01*
X155977203Y-104633540D01*
X155982114Y-104639868D01*
X155986569Y-104646535D01*
X156034188Y-104694155D01*
X156040854Y-104698609D01*
X156047183Y-104703521D01*
X156142421Y-104751140D01*
X156144836Y-104751801D01*
X156145648Y-104752613D01*
X156153509Y-104754176D01*
X156161237Y-104756293D01*
X156162325Y-104755930D01*
X156164782Y-104756419D01*
X156450496Y-104756419D01*
X156452952Y-104755930D01*
X156454041Y-104756293D01*
X156461768Y-104754176D01*
X156469630Y-104752613D01*
X156470441Y-104751801D01*
X156472857Y-104751140D01*
X156568094Y-104703522D01*
X156574421Y-104698611D01*
X156581090Y-104694155D01*
X156628709Y-104646535D01*
X156639547Y-104630314D01*
X156639547Y-104592045D01*
X156612487Y-104564986D01*
X156574218Y-104564986D01*
X156557997Y-104575825D01*
X156516114Y-104617708D01*
X156438693Y-104656419D01*
X156176586Y-104656419D01*
X156099163Y-104617708D01*
X156063017Y-104581561D01*
X156024306Y-104504139D01*
X156024306Y-104289650D01*
X156063017Y-104212226D01*
X156099162Y-104176082D01*
X156176586Y-104137371D01*
X156307639Y-104137371D01*
X156321585Y-104134596D01*
X156323658Y-104134735D01*
X156324472Y-104134022D01*
X156326773Y-104133565D01*
X156339213Y-104121124D01*
X156352458Y-104109536D01*
X156352576Y-104107761D01*
X156353833Y-104106505D01*
X156353833Y-104088906D01*
X156355003Y-104071352D01*
X156353833Y-104069320D01*
X156353833Y-104068237D01*
X156352362Y-104066766D01*
X156345268Y-104054446D01*
X156084494Y-103756419D01*
X156593353Y-103756419D01*
X156612487Y-103752613D01*
X156639547Y-103725553D01*
X156639547Y-103687285D01*
X156612487Y-103660225D01*
X156593353Y-103656419D01*
X155974306Y-103656419D01*
X155960359Y-103659193D01*
X155958287Y-103659055D01*
X155957472Y-103659767D01*
X155955172Y-103660225D01*
X155942731Y-103672665D01*
X155929487Y-103684254D01*
X155929368Y-103686028D01*
X155928112Y-103687285D01*
X155928112Y-103704883D01*
X155926942Y-103722438D01*
X155928112Y-103724469D01*
X155928112Y-103725553D01*
X155929582Y-103727023D01*
X155936677Y-103739344D01*
X156197451Y-104037371D01*
X156164782Y-104037371D01*
X156162325Y-104037859D01*
X156161237Y-104037497D01*
X156153509Y-104039613D01*
X156145648Y-104041177D01*
X156144836Y-104041988D01*
X156142421Y-104042650D01*
X156047183Y-104090269D01*
X156040854Y-104095180D01*
X156034188Y-104099635D01*
X155986570Y-104147254D01*
X155982118Y-104153915D01*
X155977203Y-104160249D01*
X155929585Y-104255486D01*
X155928923Y-104257901D01*
X155928112Y-104258713D01*
X155926548Y-104266574D01*
X155924432Y-104274302D01*
X155924794Y-104275390D01*
X155924306Y-104277847D01*
X155813195Y-104277847D01*
X155813195Y-103545308D01*
X156750658Y-103545308D01*
X156750658Y-104867530D01*
G37*
G36*
X156300668Y-136473131D02*
G01*
X156380374Y-136552837D01*
X156423142Y-136723907D01*
X156423142Y-137044930D01*
X156380374Y-137215999D01*
X156300666Y-137295708D01*
X156223244Y-137334419D01*
X156056375Y-137334419D01*
X155978952Y-137295707D01*
X155899243Y-137215998D01*
X155856476Y-137044930D01*
X155856476Y-136723907D01*
X155899243Y-136552837D01*
X155978949Y-136473131D01*
X156056375Y-136434419D01*
X156223244Y-136434419D01*
X156300668Y-136473131D01*
G37*
G36*
X158110192Y-136473131D02*
G01*
X158189898Y-136552837D01*
X158232666Y-136723907D01*
X158232666Y-137044930D01*
X158189898Y-137215999D01*
X158110190Y-137295708D01*
X158032768Y-137334419D01*
X157865899Y-137334419D01*
X157788476Y-137295707D01*
X157708767Y-137215998D01*
X157666000Y-137044930D01*
X157666000Y-136723907D01*
X157708767Y-136552837D01*
X157788473Y-136473131D01*
X157865899Y-136434419D01*
X158032768Y-136434419D01*
X158110192Y-136473131D01*
G37*
G36*
X155327904Y-136858228D02*
G01*
X155008756Y-136858228D01*
X154931332Y-136819516D01*
X154895187Y-136783372D01*
X154856476Y-136705949D01*
X154856476Y-136586698D01*
X154895187Y-136509274D01*
X154931332Y-136473130D01*
X155008756Y-136434419D01*
X155327904Y-136434419D01*
X155327904Y-136858228D01*
G37*
G36*
X159539015Y-137545530D02*
G01*
X154645365Y-137545530D01*
X154645365Y-136574895D01*
X154756476Y-136574895D01*
X154756476Y-136717752D01*
X154756964Y-136720208D01*
X154756602Y-136721297D01*
X154758718Y-136729024D01*
X154760282Y-136736886D01*
X154761093Y-136737697D01*
X154761755Y-136740113D01*
X154809373Y-136835350D01*
X154814288Y-136841683D01*
X154818740Y-136848345D01*
X154866358Y-136895964D01*
X154873024Y-136900418D01*
X154879353Y-136905330D01*
X154974591Y-136952949D01*
X154977006Y-136953610D01*
X154977818Y-136954422D01*
X154985679Y-136955985D01*
X154993407Y-136958102D01*
X154994495Y-136957739D01*
X154996952Y-136958228D01*
X155043776Y-136958228D01*
X154765514Y-137355746D01*
X154757660Y-137373604D01*
X154764310Y-137411290D01*
X154795661Y-137433235D01*
X154833347Y-137426585D01*
X154847438Y-137413092D01*
X155165842Y-136958228D01*
X155327904Y-136958228D01*
X155327904Y-137384419D01*
X155331710Y-137403553D01*
X155358770Y-137430613D01*
X155397038Y-137430613D01*
X155424098Y-137403553D01*
X155427904Y-137384419D01*
X155427904Y-136717752D01*
X155756476Y-136717752D01*
X155756476Y-137051085D01*
X155757671Y-137057094D01*
X155757969Y-137063212D01*
X155805588Y-137253688D01*
X155807901Y-137258584D01*
X155807901Y-137260695D01*
X155811305Y-137265790D01*
X155813921Y-137271327D01*
X155815729Y-137272412D01*
X155818739Y-137276916D01*
X155913978Y-137372155D01*
X155920637Y-137376605D01*
X155926972Y-137381521D01*
X156022210Y-137429140D01*
X156024625Y-137429801D01*
X156025437Y-137430613D01*
X156033298Y-137432176D01*
X156041026Y-137434293D01*
X156042114Y-137433930D01*
X156044571Y-137434419D01*
X156235047Y-137434419D01*
X156237503Y-137433930D01*
X156238592Y-137434293D01*
X156246319Y-137432176D01*
X156254181Y-137430613D01*
X156254992Y-137429801D01*
X156257408Y-137429140D01*
X156352645Y-137381522D01*
X156358972Y-137376611D01*
X156365641Y-137372155D01*
X156460879Y-137276916D01*
X156463888Y-137272412D01*
X156465697Y-137271327D01*
X156468312Y-137265790D01*
X156471717Y-137260695D01*
X156471717Y-137258584D01*
X156474030Y-137253688D01*
X156521649Y-137063212D01*
X156521946Y-137057094D01*
X156523142Y-137051085D01*
X156523142Y-136717752D01*
X156521946Y-136711742D01*
X156521649Y-136705625D01*
X156474030Y-136515149D01*
X156471717Y-136510252D01*
X156471717Y-136508142D01*
X156468313Y-136503048D01*
X156465697Y-136497510D01*
X156463886Y-136496423D01*
X156460878Y-136491921D01*
X156365640Y-136396683D01*
X156358978Y-136392231D01*
X156352645Y-136387316D01*
X156308583Y-136365285D01*
X156712663Y-136365285D01*
X156712663Y-136403553D01*
X156739723Y-136430613D01*
X156758857Y-136434419D01*
X156994571Y-136434419D01*
X156994571Y-137384419D01*
X156998377Y-137403553D01*
X157025437Y-137430613D01*
X157063705Y-137430613D01*
X157090765Y-137403553D01*
X157094571Y-137384419D01*
X157094571Y-136717752D01*
X157566000Y-136717752D01*
X157566000Y-137051085D01*
X157567195Y-137057094D01*
X157567493Y-137063212D01*
X157615112Y-137253688D01*
X157617425Y-137258584D01*
X157617425Y-137260695D01*
X157620829Y-137265790D01*
X157623445Y-137271327D01*
X157625253Y-137272412D01*
X157628263Y-137276916D01*
X157723502Y-137372155D01*
X157730161Y-137376605D01*
X157736496Y-137381521D01*
X157831734Y-137429140D01*
X157834149Y-137429801D01*
X157834961Y-137430613D01*
X157842822Y-137432176D01*
X157850550Y-137434293D01*
X157851638Y-137433930D01*
X157854095Y-137434419D01*
X158044571Y-137434419D01*
X158047027Y-137433930D01*
X158048116Y-137434293D01*
X158055843Y-137432176D01*
X158063705Y-137430613D01*
X158064516Y-137429801D01*
X158066932Y-137429140D01*
X158162169Y-137381522D01*
X158168496Y-137376611D01*
X158175165Y-137372155D01*
X158270403Y-137276916D01*
X158273412Y-137272412D01*
X158275221Y-137271327D01*
X158277836Y-137265790D01*
X158281241Y-137260695D01*
X158281241Y-137258584D01*
X158283554Y-137253688D01*
X158331173Y-137063212D01*
X158331470Y-137057094D01*
X158332666Y-137051085D01*
X158332666Y-136717752D01*
X158331470Y-136711742D01*
X158331173Y-136705625D01*
X158283554Y-136515149D01*
X158281241Y-136510252D01*
X158281241Y-136508142D01*
X158277837Y-136503048D01*
X158275221Y-136497510D01*
X158273410Y-136496423D01*
X158270402Y-136491921D01*
X158175164Y-136396683D01*
X158168502Y-136392231D01*
X158162169Y-136387316D01*
X158156375Y-136384419D01*
X158661238Y-136384419D01*
X158661238Y-137384419D01*
X158665044Y-137403553D01*
X158692104Y-137430613D01*
X158730372Y-137430613D01*
X158757432Y-137403553D01*
X158761238Y-137384419D01*
X158761238Y-136609796D01*
X158999262Y-137119849D01*
X159006884Y-137130238D01*
X159007697Y-137132473D01*
X159008954Y-137133059D01*
X159010802Y-137135578D01*
X159026874Y-137141422D01*
X159042375Y-137148656D01*
X159044571Y-137147857D01*
X159046767Y-137148656D01*
X159062267Y-137141422D01*
X159078340Y-137135578D01*
X159080187Y-137133059D01*
X159081445Y-137132473D01*
X159082257Y-137130237D01*
X159089880Y-137119848D01*
X159327904Y-136609796D01*
X159327904Y-137384419D01*
X159331710Y-137403553D01*
X159358770Y-137430613D01*
X159397038Y-137430613D01*
X159424098Y-137403553D01*
X159427904Y-137384419D01*
X159427904Y-136384419D01*
X159424098Y-136365285D01*
X159417815Y-136359002D01*
X159414778Y-136350650D01*
X159404812Y-136345999D01*
X159397038Y-136338225D01*
X159388153Y-136338225D01*
X159380100Y-136334467D01*
X159369765Y-136338225D01*
X159358770Y-136338225D01*
X159352487Y-136344507D01*
X159344135Y-136347545D01*
X159332595Y-136363274D01*
X159044570Y-136980469D01*
X158756547Y-136363275D01*
X158745007Y-136347545D01*
X158736654Y-136344507D01*
X158730372Y-136338225D01*
X158719377Y-136338225D01*
X158709042Y-136334467D01*
X158700989Y-136338225D01*
X158692104Y-136338225D01*
X158684329Y-136345999D01*
X158674364Y-136350650D01*
X158671326Y-136359002D01*
X158665044Y-136365285D01*
X158661238Y-136384419D01*
X158156375Y-136384419D01*
X158066932Y-136339698D01*
X158064516Y-136339036D01*
X158063705Y-136338225D01*
X158055843Y-136336661D01*
X158048116Y-136334545D01*
X158047027Y-136334907D01*
X158044571Y-136334419D01*
X157854095Y-136334419D01*
X157851638Y-136334907D01*
X157850550Y-136334545D01*
X157842822Y-136336661D01*
X157834961Y-136338225D01*
X157834149Y-136339036D01*
X157831734Y-136339698D01*
X157736496Y-136387317D01*
X157730161Y-136392232D01*
X157723502Y-136396683D01*
X157628264Y-136491921D01*
X157625255Y-136496423D01*
X157623445Y-136497510D01*
X157620828Y-136503048D01*
X157617425Y-136508142D01*
X157617425Y-136510252D01*
X157615112Y-136515149D01*
X157567493Y-136705625D01*
X157567195Y-136711742D01*
X157566000Y-136717752D01*
X157094571Y-136717752D01*
X157094571Y-136434419D01*
X157330285Y-136434419D01*
X157349419Y-136430613D01*
X157376479Y-136403553D01*
X157376479Y-136365285D01*
X157349419Y-136338225D01*
X157330285Y-136334419D01*
X156758857Y-136334419D01*
X156739723Y-136338225D01*
X156712663Y-136365285D01*
X156308583Y-136365285D01*
X156257408Y-136339698D01*
X156254992Y-136339036D01*
X156254181Y-136338225D01*
X156246319Y-136336661D01*
X156238592Y-136334545D01*
X156237503Y-136334907D01*
X156235047Y-136334419D01*
X156044571Y-136334419D01*
X156042114Y-136334907D01*
X156041026Y-136334545D01*
X156033298Y-136336661D01*
X156025437Y-136338225D01*
X156024625Y-136339036D01*
X156022210Y-136339698D01*
X155926972Y-136387317D01*
X155920637Y-136392232D01*
X155913978Y-136396683D01*
X155818740Y-136491921D01*
X155815731Y-136496423D01*
X155813921Y-136497510D01*
X155811304Y-136503048D01*
X155807901Y-136508142D01*
X155807901Y-136510252D01*
X155805588Y-136515149D01*
X155757969Y-136705625D01*
X155757671Y-136711742D01*
X155756476Y-136717752D01*
X155427904Y-136717752D01*
X155427904Y-136384419D01*
X155424098Y-136365285D01*
X155397038Y-136338225D01*
X155377904Y-136334419D01*
X154996952Y-136334419D01*
X154994495Y-136334907D01*
X154993407Y-136334545D01*
X154985679Y-136336661D01*
X154977818Y-136338225D01*
X154977006Y-136339036D01*
X154974591Y-136339698D01*
X154879353Y-136387317D01*
X154873024Y-136392228D01*
X154866358Y-136396683D01*
X154818740Y-136444302D01*
X154814288Y-136450963D01*
X154809373Y-136457297D01*
X154761755Y-136552534D01*
X154761093Y-136554949D01*
X154760282Y-136555761D01*
X154758718Y-136563622D01*
X154756602Y-136571350D01*
X154756964Y-136572438D01*
X154756476Y-136574895D01*
X154645365Y-136574895D01*
X154645365Y-136223308D01*
X159539015Y-136223308D01*
X159539015Y-137545530D01*
G37*
G36*
X142229365Y-137445404D02*
G01*
X140149171Y-137445404D01*
X140149171Y-136884332D01*
X140260282Y-136884332D01*
X140260282Y-136922600D01*
X140287342Y-136949660D01*
X140306476Y-136953466D01*
X140637428Y-136953466D01*
X140637428Y-137284419D01*
X140641234Y-137303553D01*
X140668294Y-137330613D01*
X140706562Y-137330613D01*
X140733622Y-137303553D01*
X140737428Y-137284419D01*
X140737428Y-136953466D01*
X141068380Y-136953466D01*
X141087514Y-136949660D01*
X141114574Y-136922600D01*
X141114574Y-136884332D01*
X141087514Y-136857272D01*
X141068380Y-136853466D01*
X140737428Y-136853466D01*
X140737428Y-136522514D01*
X140733622Y-136503380D01*
X140706562Y-136476320D01*
X140668294Y-136476320D01*
X140641234Y-136503380D01*
X140637428Y-136522514D01*
X140637428Y-136853466D01*
X140306476Y-136853466D01*
X140287342Y-136857272D01*
X140260282Y-136884332D01*
X140149171Y-136884332D01*
X140149171Y-136280875D01*
X141351840Y-136280875D01*
X141354280Y-136300230D01*
X141687613Y-137300230D01*
X141697274Y-137317178D01*
X141700615Y-137318848D01*
X141702287Y-137322192D01*
X141717329Y-137327205D01*
X141731503Y-137334293D01*
X141735046Y-137333111D01*
X141738591Y-137334293D01*
X141752770Y-137327203D01*
X141767807Y-137322191D01*
X141769477Y-137318850D01*
X141772820Y-137317179D01*
X141782481Y-137300230D01*
X142115814Y-136300231D01*
X142118254Y-136280875D01*
X142101140Y-136246647D01*
X142064836Y-136234545D01*
X142030607Y-136251660D01*
X142020946Y-136268608D01*
X141735047Y-137126305D01*
X141449148Y-136268608D01*
X141439487Y-136251659D01*
X141405258Y-136234545D01*
X141368954Y-136246646D01*
X141351840Y-136280875D01*
X140149171Y-136280875D01*
X140149171Y-136123434D01*
X142229365Y-136123434D01*
X142229365Y-137445404D01*
G37*
G36*
X136204094Y-137234419D02*
G01*
X136024112Y-137234419D01*
X135900152Y-137193099D01*
X135818996Y-137111942D01*
X135777461Y-137028872D01*
X135732666Y-136849692D01*
X135732666Y-136719145D01*
X135777461Y-136539965D01*
X135818997Y-136456893D01*
X135900150Y-136375739D01*
X136024112Y-136334419D01*
X136204094Y-136334419D01*
X136204094Y-137234419D01*
G37*
G36*
X138510443Y-137445530D02*
G01*
X135521555Y-137445530D01*
X135521555Y-136712990D01*
X135632666Y-136712990D01*
X135632666Y-136855847D01*
X135633861Y-136861856D01*
X135634159Y-136867974D01*
X135681778Y-137058450D01*
X135684117Y-137063402D01*
X135685564Y-137068684D01*
X135733182Y-137163921D01*
X135738093Y-137170249D01*
X135742548Y-137176916D01*
X135837787Y-137272155D01*
X135839868Y-137273545D01*
X135840382Y-137274573D01*
X135847347Y-137278543D01*
X135854008Y-137282994D01*
X135855156Y-137282994D01*
X135857331Y-137284234D01*
X136000187Y-137331853D01*
X136008137Y-137332855D01*
X136015999Y-137334419D01*
X136254094Y-137334419D01*
X136273228Y-137330613D01*
X136300288Y-137303553D01*
X136304094Y-137284419D01*
X136304094Y-136284419D01*
X136680285Y-136284419D01*
X136680285Y-137284419D01*
X136684091Y-137303553D01*
X136688945Y-137308407D01*
X136690753Y-137315034D01*
X136701997Y-137321459D01*
X136711151Y-137330613D01*
X136718017Y-137330613D01*
X136723979Y-137334020D01*
X136736472Y-137330613D01*
X136749419Y-137330613D01*
X136754273Y-137325758D01*
X136760900Y-137323951D01*
X136773697Y-137309226D01*
X137251713Y-136472697D01*
X137251713Y-137284419D01*
X137255519Y-137303553D01*
X137282579Y-137330613D01*
X137320847Y-137330613D01*
X137347907Y-137303553D01*
X137351713Y-137284419D01*
X137351713Y-136855847D01*
X137680285Y-136855847D01*
X137680285Y-137189180D01*
X137684091Y-137208314D01*
X137694929Y-137224535D01*
X137742548Y-137272155D01*
X137744630Y-137273546D01*
X137745144Y-137274573D01*
X137752102Y-137278539D01*
X137758769Y-137282994D01*
X137759918Y-137282994D01*
X137762093Y-137284234D01*
X137904949Y-137331853D01*
X137912899Y-137332855D01*
X137920761Y-137334419D01*
X138015999Y-137334419D01*
X138023861Y-137332855D01*
X138031810Y-137331853D01*
X138174667Y-137284234D01*
X138176842Y-137282994D01*
X138177991Y-137282994D01*
X138184661Y-137278536D01*
X138191615Y-137274573D01*
X138192127Y-137273547D01*
X138194212Y-137272155D01*
X138289450Y-137176916D01*
X138293903Y-137170250D01*
X138298815Y-137163922D01*
X138346434Y-137068684D01*
X138347880Y-137063402D01*
X138350220Y-137058450D01*
X138397839Y-136867974D01*
X138398136Y-136861856D01*
X138399332Y-136855847D01*
X138399332Y-136712990D01*
X138398136Y-136706980D01*
X138397839Y-136700863D01*
X138350220Y-136510387D01*
X138347880Y-136505434D01*
X138346434Y-136500153D01*
X138298815Y-136404915D01*
X138293899Y-136398580D01*
X138289449Y-136391921D01*
X138194211Y-136296683D01*
X138192128Y-136295291D01*
X138191615Y-136294265D01*
X138184654Y-136290297D01*
X138177990Y-136285844D01*
X138176842Y-136285844D01*
X138174667Y-136284604D01*
X138031810Y-136236985D01*
X138023861Y-136235982D01*
X138015999Y-136234419D01*
X137873142Y-136234419D01*
X137870685Y-136234907D01*
X137869597Y-136234545D01*
X137861869Y-136236661D01*
X137854008Y-136238225D01*
X137853196Y-136239036D01*
X137850781Y-136239698D01*
X137755543Y-136287317D01*
X137740131Y-136299278D01*
X137728030Y-136335583D01*
X137745144Y-136369811D01*
X137781449Y-136381912D01*
X137800265Y-136376759D01*
X137884946Y-136334419D01*
X138007886Y-136334419D01*
X138131847Y-136375739D01*
X138213000Y-136456892D01*
X138254537Y-136539966D01*
X138299332Y-136719145D01*
X138299332Y-136849692D01*
X138254537Y-137028870D01*
X138213000Y-137111944D01*
X138131846Y-137193098D01*
X138007886Y-137234419D01*
X137928874Y-137234419D01*
X137804914Y-137193099D01*
X137780285Y-137168469D01*
X137780285Y-136905847D01*
X137920761Y-136905847D01*
X137939895Y-136902041D01*
X137966955Y-136874981D01*
X137966955Y-136836713D01*
X137939895Y-136809653D01*
X137920761Y-136805847D01*
X137730285Y-136805847D01*
X137711151Y-136809653D01*
X137684091Y-136836713D01*
X137680285Y-136855847D01*
X137351713Y-136855847D01*
X137351713Y-136284419D01*
X137347907Y-136265285D01*
X137343052Y-136260430D01*
X137341245Y-136253804D01*
X137330000Y-136247378D01*
X137320847Y-136238225D01*
X137313981Y-136238225D01*
X137308019Y-136234818D01*
X137295527Y-136238225D01*
X137282579Y-136238225D01*
X137277723Y-136243080D01*
X137271099Y-136244887D01*
X137258301Y-136259612D01*
X136780285Y-137096140D01*
X136780285Y-136284419D01*
X136776479Y-136265285D01*
X136749419Y-136238225D01*
X136711151Y-136238225D01*
X136684091Y-136265285D01*
X136680285Y-136284419D01*
X136304094Y-136284419D01*
X136300288Y-136265285D01*
X136273228Y-136238225D01*
X136254094Y-136234419D01*
X136015999Y-136234419D01*
X136008137Y-136235982D01*
X136000187Y-136236985D01*
X135857331Y-136284604D01*
X135855156Y-136285844D01*
X135854008Y-136285844D01*
X135847347Y-136290294D01*
X135840382Y-136294265D01*
X135839868Y-136295292D01*
X135837787Y-136296683D01*
X135742549Y-136391921D01*
X135738097Y-136398582D01*
X135733182Y-136404916D01*
X135685564Y-136500153D01*
X135684117Y-136505434D01*
X135681778Y-136510387D01*
X135634159Y-136700863D01*
X135633861Y-136706980D01*
X135632666Y-136712990D01*
X135521555Y-136712990D01*
X135521555Y-136123308D01*
X138510443Y-136123308D01*
X138510443Y-137445530D01*
G37*
G36*
X145320296Y-88248589D02*
G01*
X145346916Y-88275210D01*
X145376104Y-88333585D01*
X145376104Y-88576544D01*
X145057057Y-88576544D01*
X145057057Y-88333585D01*
X145086244Y-88275209D01*
X145112865Y-88248589D01*
X145171241Y-88219401D01*
X145261920Y-88219401D01*
X145320296Y-88248589D01*
G37*
G36*
X145564993Y-88765433D02*
G01*
X144487215Y-88765433D01*
X144487215Y-88158586D01*
X144577288Y-88158586D01*
X144583938Y-88196272D01*
X144597431Y-88210363D01*
X144957057Y-88462100D01*
X144957057Y-88576544D01*
X144626104Y-88576544D01*
X144606970Y-88580350D01*
X144579910Y-88607410D01*
X144579910Y-88645678D01*
X144606970Y-88672738D01*
X144626104Y-88676544D01*
X145426104Y-88676544D01*
X145445238Y-88672738D01*
X145472298Y-88645678D01*
X145476104Y-88626544D01*
X145476104Y-88321782D01*
X145475615Y-88319325D01*
X145475978Y-88318237D01*
X145473861Y-88310509D01*
X145472298Y-88302648D01*
X145471486Y-88301836D01*
X145470825Y-88299421D01*
X145432730Y-88223231D01*
X145427818Y-88216902D01*
X145423364Y-88210236D01*
X145385269Y-88172142D01*
X145378606Y-88167689D01*
X145372275Y-88162776D01*
X145296084Y-88124680D01*
X145293668Y-88124018D01*
X145292857Y-88123207D01*
X145284995Y-88121643D01*
X145277268Y-88119527D01*
X145276179Y-88119889D01*
X145273723Y-88119401D01*
X145159438Y-88119401D01*
X145156981Y-88119889D01*
X145155893Y-88119527D01*
X145148165Y-88121643D01*
X145140304Y-88123207D01*
X145139492Y-88124018D01*
X145137077Y-88124680D01*
X145060886Y-88162776D01*
X145054557Y-88167687D01*
X145047891Y-88172142D01*
X145009797Y-88210237D01*
X145005346Y-88216896D01*
X145000431Y-88223231D01*
X144962336Y-88299421D01*
X144961674Y-88301836D01*
X144960863Y-88302648D01*
X144959299Y-88310509D01*
X144957183Y-88318237D01*
X144957545Y-88319325D01*
X144957057Y-88321782D01*
X144957057Y-88340034D01*
X144654777Y-88128439D01*
X144636919Y-88120585D01*
X144599233Y-88127235D01*
X144577288Y-88158586D01*
X144487215Y-88158586D01*
X144487215Y-87359698D01*
X144577055Y-87359698D01*
X144584560Y-87397223D01*
X144598369Y-87411003D01*
X144935965Y-87636068D01*
X144598369Y-87861133D01*
X144584560Y-87874913D01*
X144577055Y-87912438D01*
X144598282Y-87944279D01*
X144635807Y-87951784D01*
X144653839Y-87944337D01*
X145026103Y-87696160D01*
X145398369Y-87944338D01*
X145416401Y-87951785D01*
X145453926Y-87944279D01*
X145475154Y-87912439D01*
X145467649Y-87874913D01*
X145453839Y-87861133D01*
X145116241Y-87636068D01*
X145453839Y-87411003D01*
X145467649Y-87397223D01*
X145475154Y-87359697D01*
X145453926Y-87327857D01*
X145416401Y-87320351D01*
X145398369Y-87327798D01*
X145026103Y-87575975D01*
X144653839Y-87327799D01*
X144635807Y-87320352D01*
X144598282Y-87327857D01*
X144577055Y-87359698D01*
X144487215Y-87359698D01*
X144487215Y-86645592D01*
X144576104Y-86645592D01*
X144576104Y-87102735D01*
X144579910Y-87121869D01*
X144606970Y-87148929D01*
X144645238Y-87148929D01*
X144672298Y-87121869D01*
X144676104Y-87102735D01*
X144676104Y-86924163D01*
X145267299Y-86924163D01*
X145200273Y-86991188D01*
X145195816Y-86997857D01*
X145190907Y-87004183D01*
X145152812Y-87080375D01*
X145147659Y-87099191D01*
X145159761Y-87135495D01*
X145193989Y-87152609D01*
X145230293Y-87140507D01*
X145242254Y-87125095D01*
X145276720Y-87056162D01*
X145343673Y-86989209D01*
X145453839Y-86915765D01*
X145467648Y-86901985D01*
X145468657Y-86896937D01*
X145472298Y-86893297D01*
X145472298Y-86878734D01*
X145475153Y-86864459D01*
X145472298Y-86860176D01*
X145472298Y-86855029D01*
X145462002Y-86844733D01*
X145453926Y-86832619D01*
X145448878Y-86831609D01*
X145445238Y-86827969D01*
X145426104Y-86824163D01*
X144676104Y-86824163D01*
X144676104Y-86645592D01*
X144672298Y-86626458D01*
X144645238Y-86599398D01*
X144606970Y-86599398D01*
X144579910Y-86626458D01*
X144576104Y-86645592D01*
X144487215Y-86645592D01*
X144487215Y-86510509D01*
X145564993Y-86510509D01*
X145564993Y-88765433D01*
G37*
G36*
X150019296Y-88248589D02*
G01*
X150045916Y-88275210D01*
X150075104Y-88333585D01*
X150075104Y-88576544D01*
X149756057Y-88576544D01*
X149756057Y-88333585D01*
X149785244Y-88275209D01*
X149811865Y-88248589D01*
X149870241Y-88219401D01*
X149960920Y-88219401D01*
X150019296Y-88248589D01*
G37*
G36*
X150263993Y-88765433D02*
G01*
X149186215Y-88765433D01*
X149186215Y-88158586D01*
X149276288Y-88158586D01*
X149282938Y-88196272D01*
X149296431Y-88210363D01*
X149656057Y-88462100D01*
X149656057Y-88576544D01*
X149325104Y-88576544D01*
X149305970Y-88580350D01*
X149278910Y-88607410D01*
X149278910Y-88645678D01*
X149305970Y-88672738D01*
X149325104Y-88676544D01*
X150125104Y-88676544D01*
X150144238Y-88672738D01*
X150171298Y-88645678D01*
X150175104Y-88626544D01*
X150175104Y-88321782D01*
X150174615Y-88319325D01*
X150174978Y-88318237D01*
X150172861Y-88310509D01*
X150171298Y-88302648D01*
X150170486Y-88301836D01*
X150169825Y-88299421D01*
X150131730Y-88223231D01*
X150126818Y-88216902D01*
X150122364Y-88210236D01*
X150084269Y-88172142D01*
X150077606Y-88167689D01*
X150071275Y-88162776D01*
X149995084Y-88124680D01*
X149992668Y-88124018D01*
X149991857Y-88123207D01*
X149983995Y-88121643D01*
X149976268Y-88119527D01*
X149975179Y-88119889D01*
X149972723Y-88119401D01*
X149858438Y-88119401D01*
X149855981Y-88119889D01*
X149854893Y-88119527D01*
X149847165Y-88121643D01*
X149839304Y-88123207D01*
X149838492Y-88124018D01*
X149836077Y-88124680D01*
X149759886Y-88162776D01*
X149753557Y-88167687D01*
X149746891Y-88172142D01*
X149708797Y-88210237D01*
X149704346Y-88216896D01*
X149699431Y-88223231D01*
X149661336Y-88299421D01*
X149660674Y-88301836D01*
X149659863Y-88302648D01*
X149658299Y-88310509D01*
X149656183Y-88318237D01*
X149656545Y-88319325D01*
X149656057Y-88321782D01*
X149656057Y-88340034D01*
X149353777Y-88128439D01*
X149335919Y-88120585D01*
X149298233Y-88127235D01*
X149276288Y-88158586D01*
X149186215Y-88158586D01*
X149186215Y-87359698D01*
X149276055Y-87359698D01*
X149283560Y-87397223D01*
X149297369Y-87411003D01*
X149634965Y-87636068D01*
X149297369Y-87861133D01*
X149283560Y-87874913D01*
X149276055Y-87912438D01*
X149297282Y-87944279D01*
X149334807Y-87951784D01*
X149352839Y-87944337D01*
X149725103Y-87696160D01*
X150097369Y-87944338D01*
X150115401Y-87951785D01*
X150152926Y-87944279D01*
X150174154Y-87912439D01*
X150166649Y-87874913D01*
X150152839Y-87861133D01*
X149815241Y-87636068D01*
X150152839Y-87411003D01*
X150166649Y-87397223D01*
X150174154Y-87359697D01*
X150152926Y-87327857D01*
X150115401Y-87320351D01*
X150097369Y-87327798D01*
X149725103Y-87575975D01*
X149352839Y-87327799D01*
X149334807Y-87320352D01*
X149297282Y-87327857D01*
X149276055Y-87359698D01*
X149186215Y-87359698D01*
X149186215Y-86645592D01*
X149275104Y-86645592D01*
X149275104Y-87140830D01*
X149278910Y-87159964D01*
X149305970Y-87187024D01*
X149344238Y-87187024D01*
X149360459Y-87176185D01*
X149809255Y-86727388D01*
X149904646Y-86695592D01*
X149960921Y-86695592D01*
X150019297Y-86724780D01*
X150045917Y-86751401D01*
X150075104Y-86809775D01*
X150075104Y-86976646D01*
X150045916Y-87035020D01*
X150013558Y-87067380D01*
X150002720Y-87083601D01*
X150002720Y-87121870D01*
X150029780Y-87148929D01*
X150068049Y-87148929D01*
X150084270Y-87138090D01*
X150122365Y-87099994D01*
X150126818Y-87093328D01*
X150131730Y-87087000D01*
X150169825Y-87010810D01*
X150170486Y-87008394D01*
X150171298Y-87007583D01*
X150172861Y-86999721D01*
X150174978Y-86991994D01*
X150174615Y-86990905D01*
X150175104Y-86988449D01*
X150175104Y-86797973D01*
X150174615Y-86795516D01*
X150174978Y-86794429D01*
X150172861Y-86786699D01*
X150171298Y-86778839D01*
X150170487Y-86778028D01*
X150169826Y-86775613D01*
X150131730Y-86699422D01*
X150126823Y-86693100D01*
X150122364Y-86686426D01*
X150084269Y-86648332D01*
X150077606Y-86643879D01*
X150071275Y-86638966D01*
X149995083Y-86600871D01*
X149992668Y-86600209D01*
X149991857Y-86599398D01*
X149983991Y-86597833D01*
X149976267Y-86595718D01*
X149975179Y-86596080D01*
X149972723Y-86595592D01*
X149896533Y-86595592D01*
X149888670Y-86597155D01*
X149880722Y-86598158D01*
X149766436Y-86636253D01*
X149764261Y-86637493D01*
X149763113Y-86637493D01*
X149756452Y-86641943D01*
X149749487Y-86645914D01*
X149748973Y-86646941D01*
X149746892Y-86648332D01*
X149375104Y-87020120D01*
X149375104Y-86645592D01*
X149371298Y-86626458D01*
X149344238Y-86599398D01*
X149305970Y-86599398D01*
X149278910Y-86626458D01*
X149275104Y-86645592D01*
X149186215Y-86645592D01*
X149186215Y-86506703D01*
X150263993Y-86506703D01*
X150263993Y-88765433D01*
G37*
G36*
X147723993Y-88748913D02*
G01*
X146646215Y-88748913D01*
X146646215Y-88366125D01*
X146738910Y-88366125D01*
X146738910Y-88404393D01*
X146765970Y-88431453D01*
X146785104Y-88435259D01*
X147535104Y-88435259D01*
X147535104Y-88613830D01*
X147538910Y-88632964D01*
X147565970Y-88660024D01*
X147604238Y-88660024D01*
X147631298Y-88632964D01*
X147635104Y-88613830D01*
X147635104Y-88156687D01*
X147631298Y-88137553D01*
X147604238Y-88110493D01*
X147565970Y-88110493D01*
X147538910Y-88137553D01*
X147535104Y-88156687D01*
X147535104Y-88335259D01*
X146785104Y-88335259D01*
X146765970Y-88339065D01*
X146738910Y-88366125D01*
X146646215Y-88366125D01*
X146646215Y-87423174D01*
X146736055Y-87423174D01*
X146743560Y-87460699D01*
X146757369Y-87474479D01*
X147094965Y-87699544D01*
X146757369Y-87924609D01*
X146743560Y-87938389D01*
X146736055Y-87975914D01*
X146757282Y-88007755D01*
X146794807Y-88015260D01*
X146812839Y-88007813D01*
X147185103Y-87759636D01*
X147557369Y-88007814D01*
X147575401Y-88015261D01*
X147612926Y-88007755D01*
X147634154Y-87975915D01*
X147626649Y-87938389D01*
X147612839Y-87924609D01*
X147275241Y-87699544D01*
X147612839Y-87474479D01*
X147626649Y-87460699D01*
X147634154Y-87423173D01*
X147612926Y-87391333D01*
X147575401Y-87383827D01*
X147557369Y-87391274D01*
X147185103Y-87639451D01*
X146812839Y-87391275D01*
X146794807Y-87383828D01*
X146757282Y-87391333D01*
X146736055Y-87423174D01*
X146646215Y-87423174D01*
X146646215Y-86709068D01*
X146735104Y-86709068D01*
X146735104Y-87204306D01*
X146738910Y-87223440D01*
X146765970Y-87250500D01*
X146804238Y-87250500D01*
X146820459Y-87239661D01*
X147269255Y-86790864D01*
X147364646Y-86759068D01*
X147420921Y-86759068D01*
X147479297Y-86788256D01*
X147505917Y-86814877D01*
X147535104Y-86873251D01*
X147535104Y-87040122D01*
X147505916Y-87098496D01*
X147473558Y-87130856D01*
X147462720Y-87147077D01*
X147462720Y-87185346D01*
X147489780Y-87212405D01*
X147528049Y-87212405D01*
X147544270Y-87201566D01*
X147582365Y-87163470D01*
X147586818Y-87156804D01*
X147591730Y-87150476D01*
X147629825Y-87074286D01*
X147630486Y-87071870D01*
X147631298Y-87071059D01*
X147632861Y-87063197D01*
X147634978Y-87055470D01*
X147634615Y-87054381D01*
X147635104Y-87051925D01*
X147635104Y-86861449D01*
X147634615Y-86858992D01*
X147634978Y-86857905D01*
X147632861Y-86850175D01*
X147631298Y-86842315D01*
X147630487Y-86841504D01*
X147629826Y-86839089D01*
X147591730Y-86762898D01*
X147586823Y-86756576D01*
X147582364Y-86749902D01*
X147544269Y-86711808D01*
X147537606Y-86707355D01*
X147531275Y-86702442D01*
X147455083Y-86664347D01*
X147452668Y-86663685D01*
X147451857Y-86662874D01*
X147443991Y-86661309D01*
X147436267Y-86659194D01*
X147435179Y-86659556D01*
X147432723Y-86659068D01*
X147356533Y-86659068D01*
X147348670Y-86660631D01*
X147340722Y-86661634D01*
X147226436Y-86699729D01*
X147224261Y-86700969D01*
X147223113Y-86700969D01*
X147216452Y-86705419D01*
X147209487Y-86709390D01*
X147208973Y-86710417D01*
X147206892Y-86711808D01*
X146835104Y-87083596D01*
X146835104Y-86709068D01*
X146831298Y-86689934D01*
X146804238Y-86662874D01*
X146765970Y-86662874D01*
X146738910Y-86689934D01*
X146735104Y-86709068D01*
X146646215Y-86709068D01*
X146646215Y-86570179D01*
X147723993Y-86570179D01*
X147723993Y-88748913D01*
G37*
G36*
X164998623Y-96596220D02*
G01*
X164265266Y-96596220D01*
X164265266Y-96446486D01*
X164354155Y-96446486D01*
X164359567Y-96484370D01*
X164390182Y-96507331D01*
X164428066Y-96501919D01*
X164442591Y-96488895D01*
X164750858Y-96077872D01*
X164809734Y-96136748D01*
X164809734Y-96458895D01*
X164813540Y-96478029D01*
X164840600Y-96505089D01*
X164878868Y-96505089D01*
X164905928Y-96478029D01*
X164909734Y-96458895D01*
X164909734Y-95658895D01*
X164905928Y-95639761D01*
X164878868Y-95612701D01*
X164840600Y-95612701D01*
X164813540Y-95639761D01*
X164809734Y-95658895D01*
X164809734Y-95995328D01*
X164437946Y-95623540D01*
X164421725Y-95612701D01*
X164383457Y-95612701D01*
X164356397Y-95639761D01*
X164356397Y-95678029D01*
X164367236Y-95694250D01*
X164679429Y-96006443D01*
X164362591Y-96428895D01*
X164354155Y-96446486D01*
X164265266Y-96446486D01*
X164265266Y-95523812D01*
X164998623Y-95523812D01*
X164998623Y-96596220D01*
G37*
G36*
X164998623Y-91522385D02*
G01*
X164263702Y-91522385D01*
X164263702Y-90583895D01*
X164352591Y-90583895D01*
X164352591Y-91383895D01*
X164356397Y-91403029D01*
X164361252Y-91407884D01*
X164363059Y-91414509D01*
X164374301Y-91420933D01*
X164383457Y-91430089D01*
X164390323Y-91430089D01*
X164396285Y-91433496D01*
X164408777Y-91430089D01*
X164421725Y-91430089D01*
X164426580Y-91425233D01*
X164433205Y-91423427D01*
X164446003Y-91408702D01*
X164809734Y-90772172D01*
X164809734Y-91383895D01*
X164813540Y-91403029D01*
X164840600Y-91430089D01*
X164878868Y-91430089D01*
X164905928Y-91403029D01*
X164909734Y-91383895D01*
X164909734Y-90583895D01*
X164905928Y-90564761D01*
X164901073Y-90559906D01*
X164899266Y-90553280D01*
X164888021Y-90546854D01*
X164878868Y-90537701D01*
X164872002Y-90537701D01*
X164866040Y-90534294D01*
X164853548Y-90537701D01*
X164840600Y-90537701D01*
X164835744Y-90542556D01*
X164829120Y-90544363D01*
X164816322Y-90559088D01*
X164452591Y-91195617D01*
X164452591Y-90583895D01*
X164448785Y-90564761D01*
X164421725Y-90537701D01*
X164383457Y-90537701D01*
X164356397Y-90564761D01*
X164352591Y-90583895D01*
X164263702Y-90583895D01*
X164263702Y-90445405D01*
X164998623Y-90445405D01*
X164998623Y-91522385D01*
G37*
G36*
X165036719Y-99122784D02*
G01*
X164263702Y-99122784D01*
X164263702Y-98641038D01*
X164352591Y-98641038D01*
X164352591Y-98907704D01*
X164356397Y-98926838D01*
X164367236Y-98943059D01*
X164405332Y-98981155D01*
X164407413Y-98982545D01*
X164407927Y-98983573D01*
X164414892Y-98987543D01*
X164421553Y-98991994D01*
X164422701Y-98991994D01*
X164424876Y-98993234D01*
X164539161Y-99031329D01*
X164547109Y-99032331D01*
X164554972Y-99033895D01*
X164631163Y-99033895D01*
X164639025Y-99032331D01*
X164646974Y-99031329D01*
X164761260Y-98993234D01*
X164763435Y-98991994D01*
X164764584Y-98991994D01*
X164771250Y-98987539D01*
X164778209Y-98983573D01*
X164778722Y-98982546D01*
X164780805Y-98981155D01*
X164856995Y-98904964D01*
X164861448Y-98898298D01*
X164866360Y-98891970D01*
X164904455Y-98815780D01*
X164905901Y-98810498D01*
X164908241Y-98805546D01*
X164946337Y-98653165D01*
X164946634Y-98647047D01*
X164947830Y-98641038D01*
X164947830Y-98526752D01*
X164946634Y-98520742D01*
X164946337Y-98514625D01*
X164908241Y-98362244D01*
X164905902Y-98357293D01*
X164904456Y-98352011D01*
X164866360Y-98275820D01*
X164861448Y-98269491D01*
X164856994Y-98262825D01*
X164780804Y-98186635D01*
X164778722Y-98185244D01*
X164778209Y-98184217D01*
X164771243Y-98180246D01*
X164764583Y-98175796D01*
X164763435Y-98175796D01*
X164761260Y-98174556D01*
X164646974Y-98136461D01*
X164639025Y-98135458D01*
X164631163Y-98133895D01*
X164516877Y-98133895D01*
X164514420Y-98134383D01*
X164513332Y-98134021D01*
X164505604Y-98136137D01*
X164497743Y-98137701D01*
X164496931Y-98138512D01*
X164494516Y-98139174D01*
X164418326Y-98177269D01*
X164402914Y-98189230D01*
X164390813Y-98225535D01*
X164407927Y-98259763D01*
X164444232Y-98271864D01*
X164463048Y-98266711D01*
X164528680Y-98233895D01*
X164623050Y-98233895D01*
X164718440Y-98265691D01*
X164780546Y-98327797D01*
X164812557Y-98391821D01*
X164847830Y-98532907D01*
X164847830Y-98634882D01*
X164812558Y-98775967D01*
X164780546Y-98839992D01*
X164718439Y-98902098D01*
X164623050Y-98933895D01*
X164563085Y-98933895D01*
X164467695Y-98902098D01*
X164452591Y-98886994D01*
X164452591Y-98691038D01*
X164554972Y-98691038D01*
X164574106Y-98687232D01*
X164601166Y-98660172D01*
X164601166Y-98621904D01*
X164574106Y-98594844D01*
X164554972Y-98591038D01*
X164402591Y-98591038D01*
X164383457Y-98594844D01*
X164356397Y-98621904D01*
X164352591Y-98641038D01*
X164263702Y-98641038D01*
X164263702Y-98045006D01*
X165036719Y-98045006D01*
X165036719Y-99122784D01*
G37*
G36*
X164898623Y-94072784D02*
G01*
X164243699Y-94072784D01*
X164243699Y-93914761D01*
X164332588Y-93914761D01*
X164332588Y-93953029D01*
X164359648Y-93980089D01*
X164378782Y-93983895D01*
X164759734Y-93983895D01*
X164778868Y-93980089D01*
X164805928Y-93953029D01*
X164809734Y-93933895D01*
X164809734Y-93133895D01*
X164805928Y-93114761D01*
X164778868Y-93087701D01*
X164740600Y-93087701D01*
X164713540Y-93114761D01*
X164709734Y-93133895D01*
X164709734Y-93883895D01*
X164378782Y-93883895D01*
X164359648Y-93887701D01*
X164332588Y-93914761D01*
X164243699Y-93914761D01*
X164243699Y-92998812D01*
X164898623Y-92998812D01*
X164898623Y-94072784D01*
G37*
G36*
X160772034Y-97308461D02*
G01*
X160855106Y-97349997D01*
X160936259Y-97431150D01*
X160977580Y-97555112D01*
X160977580Y-97735094D01*
X160077580Y-97735094D01*
X160077580Y-97555113D01*
X160118901Y-97431150D01*
X160200054Y-97349997D01*
X160283128Y-97308460D01*
X160462307Y-97263666D01*
X160592854Y-97263666D01*
X160772034Y-97308461D01*
G37*
G36*
X160902724Y-93349996D02*
G01*
X160938868Y-93386141D01*
X160977580Y-93463564D01*
X160977580Y-93782713D01*
X160553771Y-93782713D01*
X160553771Y-93463564D01*
X160592482Y-93386140D01*
X160628627Y-93349996D01*
X160706051Y-93311285D01*
X160825301Y-93311285D01*
X160902724Y-93349996D01*
G37*
G36*
X160859161Y-92306433D02*
G01*
X160938867Y-92386139D01*
X160977580Y-92463564D01*
X160977580Y-92630433D01*
X160938867Y-92707858D01*
X160859161Y-92787564D01*
X160688092Y-92830332D01*
X160367069Y-92830332D01*
X160195999Y-92787564D01*
X160116292Y-92707857D01*
X160077580Y-92630433D01*
X160077580Y-92463564D01*
X160116292Y-92386140D01*
X160195999Y-92306433D01*
X160367069Y-92263666D01*
X160688092Y-92263666D01*
X160859161Y-92306433D01*
G37*
G36*
X161188691Y-97946205D02*
G01*
X159866469Y-97946205D01*
X159866469Y-97546999D01*
X159977580Y-97546999D01*
X159977580Y-97785094D01*
X159981386Y-97804228D01*
X160008446Y-97831288D01*
X160027580Y-97835094D01*
X161027580Y-97835094D01*
X161046714Y-97831288D01*
X161073774Y-97804228D01*
X161077580Y-97785094D01*
X161077580Y-97546999D01*
X161076016Y-97539137D01*
X161075014Y-97531187D01*
X161027395Y-97388331D01*
X161026155Y-97386155D01*
X161026155Y-97385008D01*
X161021704Y-97378347D01*
X161017734Y-97371382D01*
X161016706Y-97370868D01*
X161015316Y-97368787D01*
X160920078Y-97273549D01*
X160913416Y-97269097D01*
X160907083Y-97264182D01*
X160811846Y-97216564D01*
X160806564Y-97215117D01*
X160801612Y-97212778D01*
X160611136Y-97165159D01*
X160605018Y-97164861D01*
X160599009Y-97163666D01*
X160456152Y-97163666D01*
X160450142Y-97164861D01*
X160444025Y-97165159D01*
X160253549Y-97212778D01*
X160248596Y-97215117D01*
X160243315Y-97216564D01*
X160148077Y-97264183D01*
X160141742Y-97269098D01*
X160135083Y-97273549D01*
X160039845Y-97368787D01*
X160038454Y-97370868D01*
X160037427Y-97371382D01*
X160033455Y-97378349D01*
X160029006Y-97385008D01*
X160029006Y-97386154D01*
X160027766Y-97388330D01*
X159980146Y-97531187D01*
X159979143Y-97539137D01*
X159977580Y-97546999D01*
X159866469Y-97546999D01*
X159866469Y-96765960D01*
X159981386Y-96765960D01*
X159981386Y-96804228D01*
X160008446Y-96831288D01*
X160027580Y-96835094D01*
X161027580Y-96835094D01*
X161046714Y-96831288D01*
X161073774Y-96804228D01*
X161073774Y-96765960D01*
X161046714Y-96738900D01*
X161027580Y-96735094D01*
X160027580Y-96735094D01*
X160008446Y-96738900D01*
X159981386Y-96765960D01*
X159866469Y-96765960D01*
X159866469Y-96289770D01*
X159981386Y-96289770D01*
X159981386Y-96328038D01*
X160008446Y-96355098D01*
X160027580Y-96358904D01*
X161027580Y-96358904D01*
X161046714Y-96355098D01*
X161073774Y-96328038D01*
X161077580Y-96308904D01*
X161077580Y-95832714D01*
X161073774Y-95813580D01*
X161046714Y-95786520D01*
X161008446Y-95786520D01*
X160981386Y-95813580D01*
X160977580Y-95832714D01*
X160977580Y-96258904D01*
X160601390Y-96258904D01*
X160601390Y-95975571D01*
X160597584Y-95956437D01*
X160570524Y-95929377D01*
X160532256Y-95929377D01*
X160505196Y-95956437D01*
X160501390Y-95975571D01*
X160501390Y-96258904D01*
X160027580Y-96258904D01*
X160008446Y-96262710D01*
X159981386Y-96289770D01*
X159866469Y-96289770D01*
X159866469Y-95432627D01*
X159981386Y-95432627D01*
X159981386Y-95470895D01*
X160008446Y-95497955D01*
X160027580Y-95501761D01*
X161027580Y-95501761D01*
X161046714Y-95497955D01*
X161073774Y-95470895D01*
X161077580Y-95451761D01*
X161077580Y-94975571D01*
X161073774Y-94956437D01*
X161046714Y-94929377D01*
X161008446Y-94929377D01*
X160981386Y-94956437D01*
X160977580Y-94975571D01*
X160977580Y-95401761D01*
X160601390Y-95401761D01*
X160601390Y-95118428D01*
X160597584Y-95099294D01*
X160570524Y-95072234D01*
X160532256Y-95072234D01*
X160505196Y-95099294D01*
X160501390Y-95118428D01*
X160501390Y-95401761D01*
X160027580Y-95401761D01*
X160008446Y-95405567D01*
X159981386Y-95432627D01*
X159866469Y-95432627D01*
X159866469Y-93813579D01*
X159981386Y-93813579D01*
X159981386Y-93851847D01*
X160008446Y-93878907D01*
X160027580Y-93882713D01*
X161027580Y-93882713D01*
X161046714Y-93878907D01*
X161073774Y-93851847D01*
X161077580Y-93832713D01*
X161077580Y-93451761D01*
X161077091Y-93449304D01*
X161077454Y-93448216D01*
X161075337Y-93440488D01*
X161073774Y-93432627D01*
X161072962Y-93431815D01*
X161072301Y-93429400D01*
X161024682Y-93334162D01*
X161019770Y-93327833D01*
X161015316Y-93321167D01*
X160967697Y-93273549D01*
X160961035Y-93269097D01*
X160954702Y-93264182D01*
X160859465Y-93216564D01*
X160857049Y-93215902D01*
X160856238Y-93215091D01*
X160848376Y-93213527D01*
X160840649Y-93211411D01*
X160839560Y-93211773D01*
X160837104Y-93211285D01*
X160694247Y-93211285D01*
X160691790Y-93211773D01*
X160690702Y-93211411D01*
X160682974Y-93213527D01*
X160675113Y-93215091D01*
X160674301Y-93215902D01*
X160671886Y-93216564D01*
X160576648Y-93264183D01*
X160570319Y-93269094D01*
X160563653Y-93273549D01*
X160516035Y-93321168D01*
X160511583Y-93327829D01*
X160506668Y-93334163D01*
X160459050Y-93429400D01*
X160458388Y-93431815D01*
X160457577Y-93432627D01*
X160456013Y-93440488D01*
X160453897Y-93448216D01*
X160454259Y-93449304D01*
X160453771Y-93451761D01*
X160453771Y-93782713D01*
X160027580Y-93782713D01*
X160008446Y-93786519D01*
X159981386Y-93813579D01*
X159866469Y-93813579D01*
X159866469Y-92451761D01*
X159977580Y-92451761D01*
X159977580Y-92642237D01*
X159978068Y-92644693D01*
X159977706Y-92645782D01*
X159979822Y-92653509D01*
X159981386Y-92661371D01*
X159982197Y-92662182D01*
X159982859Y-92664598D01*
X160030479Y-92759836D01*
X160035394Y-92766170D01*
X160039845Y-92772830D01*
X160135083Y-92868068D01*
X160139585Y-92871076D01*
X160140672Y-92872887D01*
X160146210Y-92875503D01*
X160151304Y-92878907D01*
X160153415Y-92878907D01*
X160158311Y-92881220D01*
X160348787Y-92928839D01*
X160354904Y-92929136D01*
X160360914Y-92930332D01*
X160694247Y-92930332D01*
X160700256Y-92929136D01*
X160706374Y-92928839D01*
X160896850Y-92881220D01*
X160901746Y-92878907D01*
X160903857Y-92878907D01*
X160908950Y-92875503D01*
X160914489Y-92872887D01*
X160915575Y-92871076D01*
X160920078Y-92868068D01*
X161015316Y-92772830D01*
X161019766Y-92766170D01*
X161024682Y-92759836D01*
X161072301Y-92664598D01*
X161072962Y-92662182D01*
X161073774Y-92661371D01*
X161075337Y-92653509D01*
X161077454Y-92645782D01*
X161077091Y-92644693D01*
X161077580Y-92642237D01*
X161077580Y-92451761D01*
X161077091Y-92449304D01*
X161077454Y-92448216D01*
X161075337Y-92440488D01*
X161073774Y-92432627D01*
X161072962Y-92431815D01*
X161072301Y-92429400D01*
X161024682Y-92334162D01*
X161019766Y-92327827D01*
X161015316Y-92321168D01*
X160920078Y-92225930D01*
X160915575Y-92222921D01*
X160914489Y-92221111D01*
X160908950Y-92218494D01*
X160903857Y-92215091D01*
X160901746Y-92215091D01*
X160896850Y-92212778D01*
X160706374Y-92165159D01*
X160700256Y-92164861D01*
X160694247Y-92163666D01*
X160360914Y-92163666D01*
X160354904Y-92164861D01*
X160348787Y-92165159D01*
X160158311Y-92212778D01*
X160153415Y-92215091D01*
X160151304Y-92215091D01*
X160146210Y-92218494D01*
X160140672Y-92221111D01*
X160139585Y-92222921D01*
X160135083Y-92225930D01*
X160039845Y-92321168D01*
X160035394Y-92327827D01*
X160030479Y-92334162D01*
X159982859Y-92429400D01*
X159982197Y-92431815D01*
X159981386Y-92432627D01*
X159979822Y-92440488D01*
X159977706Y-92448216D01*
X159978068Y-92449304D01*
X159977580Y-92451761D01*
X159866469Y-92451761D01*
X159866469Y-91451761D01*
X159977580Y-91451761D01*
X159977580Y-91689856D01*
X159979143Y-91697717D01*
X159980146Y-91705668D01*
X160027766Y-91848525D01*
X160037427Y-91865473D01*
X160071656Y-91882587D01*
X160107960Y-91870486D01*
X160125074Y-91836257D01*
X160122634Y-91816901D01*
X160077580Y-91681741D01*
X160077580Y-91463564D01*
X160116292Y-91386140D01*
X160152437Y-91349996D01*
X160229861Y-91311285D01*
X160301492Y-91311285D01*
X160378915Y-91349996D01*
X160415059Y-91386141D01*
X160456595Y-91469213D01*
X160502883Y-91654364D01*
X160505222Y-91659316D01*
X160506669Y-91664598D01*
X160554287Y-91759835D01*
X160559202Y-91766168D01*
X160563654Y-91772830D01*
X160611272Y-91820449D01*
X160617938Y-91824903D01*
X160624267Y-91829815D01*
X160719505Y-91877434D01*
X160721920Y-91878095D01*
X160722732Y-91878907D01*
X160730593Y-91880470D01*
X160738321Y-91882587D01*
X160739409Y-91882224D01*
X160741866Y-91882713D01*
X160837104Y-91882713D01*
X160839560Y-91882224D01*
X160840649Y-91882587D01*
X160848376Y-91880470D01*
X160856238Y-91878907D01*
X160857049Y-91878095D01*
X160859465Y-91877434D01*
X160954702Y-91829816D01*
X160961035Y-91824900D01*
X160967697Y-91820449D01*
X161015316Y-91772831D01*
X161019770Y-91766164D01*
X161024682Y-91759836D01*
X161072301Y-91664598D01*
X161072962Y-91662182D01*
X161073774Y-91661371D01*
X161075337Y-91653509D01*
X161077454Y-91645782D01*
X161077091Y-91644693D01*
X161077580Y-91642237D01*
X161077580Y-91404142D01*
X161076016Y-91396280D01*
X161075014Y-91388330D01*
X161027395Y-91245474D01*
X161017734Y-91228525D01*
X160983505Y-91211411D01*
X160947201Y-91223512D01*
X160930087Y-91257741D01*
X160932527Y-91277096D01*
X160977580Y-91412255D01*
X160977580Y-91630433D01*
X160938868Y-91707856D01*
X160902724Y-91744001D01*
X160825301Y-91782713D01*
X160753670Y-91782713D01*
X160676246Y-91744001D01*
X160640101Y-91707857D01*
X160598566Y-91624786D01*
X160552278Y-91439634D01*
X160549938Y-91434681D01*
X160548492Y-91429400D01*
X160500873Y-91334162D01*
X160495961Y-91327833D01*
X160491507Y-91321167D01*
X160443888Y-91273549D01*
X160437226Y-91269097D01*
X160430893Y-91264182D01*
X160335656Y-91216564D01*
X160333240Y-91215902D01*
X160332429Y-91215091D01*
X160324567Y-91213527D01*
X160316840Y-91211411D01*
X160315751Y-91211773D01*
X160313295Y-91211285D01*
X160218057Y-91211285D01*
X160215600Y-91211773D01*
X160214512Y-91211411D01*
X160206784Y-91213527D01*
X160198923Y-91215091D01*
X160198111Y-91215902D01*
X160195696Y-91216564D01*
X160100458Y-91264183D01*
X160094129Y-91269094D01*
X160087463Y-91273549D01*
X160039845Y-91321168D01*
X160035394Y-91327827D01*
X160030479Y-91334162D01*
X159982859Y-91429400D01*
X159982197Y-91431815D01*
X159981386Y-91432627D01*
X159979822Y-91440488D01*
X159977706Y-91448216D01*
X159978068Y-91449304D01*
X159977580Y-91451761D01*
X159866469Y-91451761D01*
X159866469Y-91100174D01*
X161188691Y-91100174D01*
X161188691Y-97946205D01*
G37*
D11*
G36*
X153301713Y-94968342D02*
G01*
X153089656Y-94968342D01*
X153040188Y-94943608D01*
X153019305Y-94922725D01*
X152994570Y-94873255D01*
X152994570Y-94794381D01*
X153019305Y-94744911D01*
X153040188Y-94724029D01*
X153089656Y-94699295D01*
X153301713Y-94699295D01*
X153301713Y-94968342D01*
G37*
G36*
X154224876Y-95588184D02*
G01*
X151993777Y-95588184D01*
X151993777Y-94776676D01*
X152082666Y-94776676D01*
X152082666Y-94852866D01*
X152083395Y-94860271D01*
X152083255Y-94862246D01*
X152083845Y-94864843D01*
X152084107Y-94867498D01*
X152084865Y-94869329D01*
X152086515Y-94876583D01*
X152124610Y-94990869D01*
X152130604Y-95004294D01*
X152132369Y-95006329D01*
X152133401Y-95008820D01*
X152142728Y-95020185D01*
X152471838Y-95349295D01*
X152157666Y-95349295D01*
X152143034Y-95350736D01*
X152115998Y-95361935D01*
X152095306Y-95382627D01*
X152084107Y-95409663D01*
X152084107Y-95438927D01*
X152095306Y-95465963D01*
X152115998Y-95486655D01*
X152143034Y-95497854D01*
X152157666Y-95499295D01*
X152652904Y-95499295D01*
X152667536Y-95497854D01*
X152694572Y-95486656D01*
X152715265Y-95465963D01*
X152726463Y-95438927D01*
X152726463Y-95409664D01*
X152715265Y-95382627D01*
X152705937Y-95371262D01*
X152261313Y-94926638D01*
X152232666Y-94840696D01*
X152232666Y-94794380D01*
X152241518Y-94776676D01*
X152844570Y-94776676D01*
X152844570Y-94890961D01*
X152846011Y-94905593D01*
X152847041Y-94908081D01*
X152847233Y-94910771D01*
X152852488Y-94924502D01*
X152890584Y-95000693D01*
X152894547Y-95006989D01*
X152895306Y-95008820D01*
X152896997Y-95010881D01*
X152898417Y-95013136D01*
X152899912Y-95014432D01*
X152904633Y-95020185D01*
X152942728Y-95058280D01*
X152948477Y-95062998D01*
X152949777Y-95064497D01*
X152952036Y-95065918D01*
X152954093Y-95067607D01*
X152955920Y-95068364D01*
X152962220Y-95072329D01*
X153038410Y-95110424D01*
X153052142Y-95115679D01*
X153054829Y-95115869D01*
X153057319Y-95116901D01*
X153071951Y-95118342D01*
X153301713Y-95118342D01*
X153301713Y-95424295D01*
X153303154Y-95438927D01*
X153314353Y-95465963D01*
X153335045Y-95486655D01*
X153362081Y-95497854D01*
X153391345Y-95497854D01*
X153418381Y-95486655D01*
X153439073Y-95465963D01*
X153450272Y-95438927D01*
X153451713Y-95424295D01*
X153451713Y-94624295D01*
X153682666Y-94624295D01*
X153682666Y-95195723D01*
X153683395Y-95203128D01*
X153683255Y-95205103D01*
X153683845Y-95207700D01*
X153684107Y-95210355D01*
X153684865Y-95212186D01*
X153686515Y-95219440D01*
X153724610Y-95333726D01*
X153730604Y-95347151D01*
X153732369Y-95349186D01*
X153733401Y-95351677D01*
X153742728Y-95363042D01*
X153818919Y-95439233D01*
X153830284Y-95448560D01*
X153832772Y-95449590D01*
X153834809Y-95451357D01*
X153848235Y-95457351D01*
X153962520Y-95495446D01*
X153969773Y-95497095D01*
X153971605Y-95497854D01*
X153974259Y-95498115D01*
X153976857Y-95498706D01*
X153978831Y-95498565D01*
X153986237Y-95499295D01*
X154062428Y-95499295D01*
X154077060Y-95497854D01*
X154104096Y-95486655D01*
X154124788Y-95465963D01*
X154135987Y-95438927D01*
X154135987Y-95409663D01*
X154124788Y-95382627D01*
X154104096Y-95361935D01*
X154077060Y-95350736D01*
X154062428Y-95349295D01*
X153998407Y-95349295D01*
X153912466Y-95320648D01*
X153861313Y-95269495D01*
X153832666Y-95183553D01*
X153832666Y-94624295D01*
X153831225Y-94609663D01*
X153820026Y-94582627D01*
X153799334Y-94561935D01*
X153772298Y-94550736D01*
X153743034Y-94550736D01*
X153715998Y-94561935D01*
X153695306Y-94582627D01*
X153684107Y-94609663D01*
X153682666Y-94624295D01*
X153451713Y-94624295D01*
X153450272Y-94609663D01*
X153439073Y-94582627D01*
X153418381Y-94561935D01*
X153391345Y-94550736D01*
X153376713Y-94549295D01*
X153071951Y-94549295D01*
X153057319Y-94550736D01*
X153054829Y-94551767D01*
X153052142Y-94551958D01*
X153038410Y-94557213D01*
X152962220Y-94595308D01*
X152955920Y-94599272D01*
X152954093Y-94600030D01*
X152952036Y-94601718D01*
X152949777Y-94603140D01*
X152948477Y-94604638D01*
X152942728Y-94609357D01*
X152904633Y-94647452D01*
X152899912Y-94653204D01*
X152898417Y-94654501D01*
X152896997Y-94656755D01*
X152895306Y-94658817D01*
X152894547Y-94660647D01*
X152890584Y-94666944D01*
X152852488Y-94743135D01*
X152847233Y-94756866D01*
X152847041Y-94759555D01*
X152846011Y-94762044D01*
X152844570Y-94776676D01*
X152241518Y-94776676D01*
X152257400Y-94744911D01*
X152278282Y-94724029D01*
X152327752Y-94699295D01*
X152482818Y-94699295D01*
X152532286Y-94724029D01*
X152561777Y-94753519D01*
X152573142Y-94762846D01*
X152600178Y-94774044D01*
X152629441Y-94774044D01*
X152656477Y-94762845D01*
X152677170Y-94742152D01*
X152688368Y-94715115D01*
X152688368Y-94685852D01*
X152677169Y-94658816D01*
X152667841Y-94647451D01*
X152629745Y-94609356D01*
X152623996Y-94604638D01*
X152622697Y-94603140D01*
X152620438Y-94601718D01*
X152618380Y-94600029D01*
X152616550Y-94599271D01*
X152610254Y-94595308D01*
X152534064Y-94557213D01*
X152520332Y-94551958D01*
X152517644Y-94551767D01*
X152515155Y-94550736D01*
X152500523Y-94549295D01*
X152310047Y-94549295D01*
X152295415Y-94550736D01*
X152292925Y-94551767D01*
X152290238Y-94551958D01*
X152276506Y-94557213D01*
X152200315Y-94595308D01*
X152194015Y-94599272D01*
X152192188Y-94600030D01*
X152190131Y-94601718D01*
X152187872Y-94603140D01*
X152186572Y-94604638D01*
X152180823Y-94609357D01*
X152142728Y-94647452D01*
X152138009Y-94653201D01*
X152136511Y-94654501D01*
X152135089Y-94656760D01*
X152133401Y-94658817D01*
X152132643Y-94660644D01*
X152128679Y-94666944D01*
X152090584Y-94743135D01*
X152085329Y-94756867D01*
X152085138Y-94759554D01*
X152084107Y-94762044D01*
X152082666Y-94776676D01*
X151993777Y-94776676D01*
X151993777Y-94460406D01*
X154224876Y-94460406D01*
X154224876Y-95588184D01*
G37*
G36*
X150501713Y-90218342D02*
G01*
X150289656Y-90218342D01*
X150240188Y-90193608D01*
X150219305Y-90172725D01*
X150194570Y-90123255D01*
X150194570Y-90044381D01*
X150219305Y-89994911D01*
X150240188Y-89974029D01*
X150289656Y-89949295D01*
X150501713Y-89949295D01*
X150501713Y-90218342D01*
G37*
G36*
X151424876Y-90838184D02*
G01*
X149195218Y-90838184D01*
X149195218Y-90659663D01*
X149284107Y-90659663D01*
X149284107Y-90688927D01*
X149295306Y-90715963D01*
X149315998Y-90736655D01*
X149343034Y-90747854D01*
X149357666Y-90749295D01*
X149814809Y-90749295D01*
X149829441Y-90747854D01*
X149856477Y-90736655D01*
X149877169Y-90715963D01*
X149888368Y-90688927D01*
X149888368Y-90659663D01*
X149877169Y-90632627D01*
X149856477Y-90611935D01*
X149829441Y-90600736D01*
X149814809Y-90599295D01*
X149661237Y-90599295D01*
X149661237Y-90093455D01*
X149685585Y-90117804D01*
X149691334Y-90122522D01*
X149692634Y-90124021D01*
X149694893Y-90125442D01*
X149696950Y-90127131D01*
X149698777Y-90127888D01*
X149705077Y-90131853D01*
X149781268Y-90169948D01*
X149795000Y-90175203D01*
X149824190Y-90177277D01*
X149851951Y-90168023D01*
X149874059Y-90148850D01*
X149887146Y-90122675D01*
X149889220Y-90093485D01*
X149879966Y-90065724D01*
X149860793Y-90043616D01*
X149848350Y-90035784D01*
X149830134Y-90026676D01*
X150044570Y-90026676D01*
X150044570Y-90140961D01*
X150046011Y-90155593D01*
X150047041Y-90158081D01*
X150047233Y-90160771D01*
X150052488Y-90174502D01*
X150090584Y-90250693D01*
X150094547Y-90256989D01*
X150095306Y-90258820D01*
X150096997Y-90260881D01*
X150098417Y-90263136D01*
X150099912Y-90264432D01*
X150104633Y-90270185D01*
X150142728Y-90308280D01*
X150148477Y-90312998D01*
X150149777Y-90314497D01*
X150152036Y-90315918D01*
X150154093Y-90317607D01*
X150155920Y-90318364D01*
X150162220Y-90322329D01*
X150238410Y-90360424D01*
X150252142Y-90365679D01*
X150254829Y-90365869D01*
X150257319Y-90366901D01*
X150271951Y-90368342D01*
X150501713Y-90368342D01*
X150501713Y-90674295D01*
X150503154Y-90688927D01*
X150514353Y-90715963D01*
X150535045Y-90736655D01*
X150562081Y-90747854D01*
X150591345Y-90747854D01*
X150618381Y-90736655D01*
X150639073Y-90715963D01*
X150650272Y-90688927D01*
X150651713Y-90674295D01*
X150651713Y-89874295D01*
X150882666Y-89874295D01*
X150882666Y-90445723D01*
X150883395Y-90453128D01*
X150883255Y-90455103D01*
X150883845Y-90457700D01*
X150884107Y-90460355D01*
X150884865Y-90462186D01*
X150886515Y-90469440D01*
X150924610Y-90583726D01*
X150930604Y-90597151D01*
X150932369Y-90599186D01*
X150933401Y-90601677D01*
X150942728Y-90613042D01*
X151018919Y-90689233D01*
X151030284Y-90698560D01*
X151032772Y-90699590D01*
X151034809Y-90701357D01*
X151048235Y-90707351D01*
X151162520Y-90745446D01*
X151169773Y-90747095D01*
X151171605Y-90747854D01*
X151174259Y-90748115D01*
X151176857Y-90748706D01*
X151178831Y-90748565D01*
X151186237Y-90749295D01*
X151262428Y-90749295D01*
X151277060Y-90747854D01*
X151304096Y-90736655D01*
X151324788Y-90715963D01*
X151335987Y-90688927D01*
X151335987Y-90659663D01*
X151324788Y-90632627D01*
X151304096Y-90611935D01*
X151277060Y-90600736D01*
X151262428Y-90599295D01*
X151198407Y-90599295D01*
X151112466Y-90570648D01*
X151061313Y-90519495D01*
X151032666Y-90433553D01*
X151032666Y-89874295D01*
X151031225Y-89859663D01*
X151020026Y-89832627D01*
X150999334Y-89811935D01*
X150972298Y-89800736D01*
X150943034Y-89800736D01*
X150915998Y-89811935D01*
X150895306Y-89832627D01*
X150884107Y-89859663D01*
X150882666Y-89874295D01*
X150651713Y-89874295D01*
X150650272Y-89859663D01*
X150639073Y-89832627D01*
X150618381Y-89811935D01*
X150591345Y-89800736D01*
X150576713Y-89799295D01*
X150271951Y-89799295D01*
X150257319Y-89800736D01*
X150254829Y-89801767D01*
X150252142Y-89801958D01*
X150238410Y-89807213D01*
X150162220Y-89845308D01*
X150155920Y-89849272D01*
X150154093Y-89850030D01*
X150152036Y-89851718D01*
X150149777Y-89853140D01*
X150148477Y-89854638D01*
X150142728Y-89859357D01*
X150104633Y-89897452D01*
X150099912Y-89903204D01*
X150098417Y-89904501D01*
X150096997Y-89906755D01*
X150095306Y-89908817D01*
X150094547Y-89910647D01*
X150090584Y-89916944D01*
X150052488Y-89993135D01*
X150047233Y-90006866D01*
X150047041Y-90009555D01*
X150046011Y-90012044D01*
X150044570Y-90026676D01*
X149830134Y-90026676D01*
X149783045Y-90003131D01*
X149720713Y-89940800D01*
X149648641Y-89832692D01*
X149648606Y-89832649D01*
X149648597Y-89832627D01*
X149648545Y-89832575D01*
X149639325Y-89821317D01*
X149633155Y-89817185D01*
X149627905Y-89811935D01*
X149621115Y-89809122D01*
X149615010Y-89805034D01*
X149607729Y-89803577D01*
X149600869Y-89800736D01*
X149593520Y-89800736D01*
X149586315Y-89799295D01*
X149579031Y-89800736D01*
X149571605Y-89800736D01*
X149564816Y-89803547D01*
X149557608Y-89804974D01*
X149551429Y-89809093D01*
X149544569Y-89811935D01*
X149539373Y-89817130D01*
X149533259Y-89821207D01*
X149529127Y-89827376D01*
X149523877Y-89832627D01*
X149521064Y-89839416D01*
X149516976Y-89845522D01*
X149515519Y-89852802D01*
X149512678Y-89859663D01*
X149511252Y-89874141D01*
X149511237Y-89874217D01*
X149511242Y-89874242D01*
X149511237Y-89874295D01*
X149511237Y-90599295D01*
X149357666Y-90599295D01*
X149343034Y-90600736D01*
X149315998Y-90611935D01*
X149295306Y-90632627D01*
X149284107Y-90659663D01*
X149195218Y-90659663D01*
X149195218Y-89710406D01*
X151424876Y-89710406D01*
X151424876Y-90838184D01*
G37*
D10*
G36*
X135026691Y-95430300D02*
G01*
X133704469Y-95430300D01*
X133704469Y-95250055D01*
X133819386Y-95250055D01*
X133819386Y-95288323D01*
X133846446Y-95315383D01*
X133865580Y-95319189D01*
X134865580Y-95319189D01*
X134884714Y-95315383D01*
X134911774Y-95288323D01*
X134911774Y-95250055D01*
X134884714Y-95222995D01*
X134865580Y-95219189D01*
X133865580Y-95219189D01*
X133846446Y-95222995D01*
X133819386Y-95250055D01*
X133704469Y-95250055D01*
X133704469Y-94269190D01*
X133815580Y-94269190D01*
X133815580Y-94888237D01*
X133819386Y-94907371D01*
X133846446Y-94934431D01*
X133884714Y-94934431D01*
X133900935Y-94923592D01*
X134464017Y-94360510D01*
X134587979Y-94319190D01*
X134663301Y-94319190D01*
X134740724Y-94357901D01*
X134776868Y-94394046D01*
X134815580Y-94471469D01*
X134815580Y-94685957D01*
X134776868Y-94763380D01*
X134734987Y-94805263D01*
X134724148Y-94821484D01*
X134724148Y-94859752D01*
X134751208Y-94886812D01*
X134789476Y-94886812D01*
X134805697Y-94875973D01*
X134853316Y-94828355D01*
X134857770Y-94821688D01*
X134862682Y-94815360D01*
X134910301Y-94720122D01*
X134910962Y-94717706D01*
X134911774Y-94716895D01*
X134913337Y-94709033D01*
X134915454Y-94701306D01*
X134915091Y-94700217D01*
X134915580Y-94697761D01*
X134915580Y-94459666D01*
X134915091Y-94457209D01*
X134915454Y-94456121D01*
X134913337Y-94448393D01*
X134911774Y-94440532D01*
X134910962Y-94439720D01*
X134910301Y-94437305D01*
X134862682Y-94342067D01*
X134857770Y-94335738D01*
X134853316Y-94329072D01*
X134805697Y-94281454D01*
X134799035Y-94277002D01*
X134792702Y-94272087D01*
X134697465Y-94224469D01*
X134695049Y-94223807D01*
X134694238Y-94222996D01*
X134686376Y-94221432D01*
X134678649Y-94219316D01*
X134677560Y-94219678D01*
X134675104Y-94219190D01*
X134579866Y-94219190D01*
X134572004Y-94220753D01*
X134564054Y-94221756D01*
X134421198Y-94269375D01*
X134419023Y-94270615D01*
X134417875Y-94270615D01*
X134411214Y-94275065D01*
X134404249Y-94279036D01*
X134403735Y-94280063D01*
X134401654Y-94281454D01*
X133915580Y-94767527D01*
X133915580Y-94269190D01*
X133911774Y-94250056D01*
X133884714Y-94222996D01*
X133846446Y-94222996D01*
X133819386Y-94250056D01*
X133815580Y-94269190D01*
X133704469Y-94269190D01*
X133704469Y-93459666D01*
X133815580Y-93459666D01*
X133815580Y-93554904D01*
X133817143Y-93562765D01*
X133818146Y-93570716D01*
X133865766Y-93713573D01*
X133867006Y-93715748D01*
X133867006Y-93716895D01*
X133871455Y-93723553D01*
X133875427Y-93730521D01*
X133876454Y-93731034D01*
X133877845Y-93733116D01*
X133973083Y-93828354D01*
X133979742Y-93832804D01*
X133986077Y-93837720D01*
X134081315Y-93885339D01*
X134086596Y-93886785D01*
X134091549Y-93889125D01*
X134282025Y-93936744D01*
X134288142Y-93937041D01*
X134294152Y-93938237D01*
X134437009Y-93938237D01*
X134443018Y-93937041D01*
X134449136Y-93936744D01*
X134639612Y-93889125D01*
X134644564Y-93886785D01*
X134649846Y-93885339D01*
X134745083Y-93837721D01*
X134751416Y-93832805D01*
X134758078Y-93828354D01*
X134853316Y-93733116D01*
X134854706Y-93731034D01*
X134855734Y-93730521D01*
X134859704Y-93723555D01*
X134864155Y-93716895D01*
X134864155Y-93715747D01*
X134865395Y-93713572D01*
X134913014Y-93570716D01*
X134914016Y-93562765D01*
X134915580Y-93554904D01*
X134915580Y-93459666D01*
X134914016Y-93451804D01*
X134913014Y-93443854D01*
X134865395Y-93300998D01*
X134864155Y-93298822D01*
X134864155Y-93297674D01*
X134859700Y-93291007D01*
X134855734Y-93284049D01*
X134854707Y-93283535D01*
X134853316Y-93281453D01*
X134805697Y-93233835D01*
X134789476Y-93222996D01*
X134751208Y-93222996D01*
X134724148Y-93250056D01*
X134724148Y-93288324D01*
X134734987Y-93304545D01*
X134774259Y-93343818D01*
X134815580Y-93467779D01*
X134815580Y-93546791D01*
X134774259Y-93670752D01*
X134693106Y-93751906D01*
X134610034Y-93793442D01*
X134430854Y-93838237D01*
X134300307Y-93838237D01*
X134121128Y-93793442D01*
X134038054Y-93751905D01*
X133956901Y-93670752D01*
X133915580Y-93546789D01*
X133915580Y-93467780D01*
X133956901Y-93343817D01*
X133996174Y-93304546D01*
X134007013Y-93288325D01*
X134007013Y-93250056D01*
X133979953Y-93222996D01*
X133941684Y-93222996D01*
X133925463Y-93233835D01*
X133877845Y-93281454D01*
X133876454Y-93283535D01*
X133875427Y-93284049D01*
X133871455Y-93291016D01*
X133867006Y-93297675D01*
X133867006Y-93298821D01*
X133865766Y-93300997D01*
X133818146Y-93443854D01*
X133817143Y-93451804D01*
X133815580Y-93459666D01*
X133704469Y-93459666D01*
X133704469Y-93111885D01*
X135026691Y-93111885D01*
X135026691Y-95430300D01*
G37*
G36*
X143024993Y-88748913D02*
G01*
X141947215Y-88748913D01*
X141947215Y-88366125D01*
X142039910Y-88366125D01*
X142039910Y-88404393D01*
X142066970Y-88431453D01*
X142086104Y-88435259D01*
X142836104Y-88435259D01*
X142836104Y-88613830D01*
X142839910Y-88632964D01*
X142866970Y-88660024D01*
X142905238Y-88660024D01*
X142932298Y-88632964D01*
X142936104Y-88613830D01*
X142936104Y-88156687D01*
X142932298Y-88137553D01*
X142905238Y-88110493D01*
X142866970Y-88110493D01*
X142839910Y-88137553D01*
X142836104Y-88156687D01*
X142836104Y-88335259D01*
X142086104Y-88335259D01*
X142066970Y-88339065D01*
X142039910Y-88366125D01*
X141947215Y-88366125D01*
X141947215Y-87423174D01*
X142037055Y-87423174D01*
X142044560Y-87460699D01*
X142058369Y-87474479D01*
X142395965Y-87699544D01*
X142058369Y-87924609D01*
X142044560Y-87938389D01*
X142037055Y-87975914D01*
X142058282Y-88007755D01*
X142095807Y-88015260D01*
X142113839Y-88007813D01*
X142486103Y-87759636D01*
X142858369Y-88007814D01*
X142876401Y-88015261D01*
X142913926Y-88007755D01*
X142935154Y-87975915D01*
X142927649Y-87938389D01*
X142913839Y-87924609D01*
X142576241Y-87699544D01*
X142913839Y-87474479D01*
X142927649Y-87460699D01*
X142935154Y-87423173D01*
X142913926Y-87391333D01*
X142876401Y-87383827D01*
X142858369Y-87391274D01*
X142486103Y-87639451D01*
X142113839Y-87391275D01*
X142095807Y-87383828D01*
X142058282Y-87391333D01*
X142037055Y-87423174D01*
X141947215Y-87423174D01*
X141947215Y-86709068D01*
X142036104Y-86709068D01*
X142036104Y-87166211D01*
X142039910Y-87185345D01*
X142066970Y-87212405D01*
X142105238Y-87212405D01*
X142132298Y-87185345D01*
X142136104Y-87166211D01*
X142136104Y-86987639D01*
X142727299Y-86987639D01*
X142660273Y-87054664D01*
X142655816Y-87061333D01*
X142650907Y-87067659D01*
X142612812Y-87143851D01*
X142607659Y-87162667D01*
X142619761Y-87198971D01*
X142653989Y-87216085D01*
X142690293Y-87203983D01*
X142702254Y-87188571D01*
X142736720Y-87119638D01*
X142803673Y-87052685D01*
X142913839Y-86979241D01*
X142927648Y-86965461D01*
X142928657Y-86960413D01*
X142932298Y-86956773D01*
X142932298Y-86942210D01*
X142935153Y-86927935D01*
X142932298Y-86923652D01*
X142932298Y-86918505D01*
X142922002Y-86908209D01*
X142913926Y-86896095D01*
X142908878Y-86895085D01*
X142905238Y-86891445D01*
X142886104Y-86887639D01*
X142136104Y-86887639D01*
X142136104Y-86709068D01*
X142132298Y-86689934D01*
X142105238Y-86662874D01*
X142066970Y-86662874D01*
X142039910Y-86689934D01*
X142036104Y-86709068D01*
X141947215Y-86709068D01*
X141947215Y-86573985D01*
X143024993Y-86573985D01*
X143024993Y-88748913D01*
G37*
D12*
%TO.C,JP2*%
X153992000Y-94042000D02*
X153992000Y-91242000D01*
X151992000Y-94042000D02*
X153992000Y-94042000D01*
X153992000Y-91242000D02*
X151992000Y-91242000D01*
X151992000Y-91242000D02*
X151992000Y-94042000D01*
%TO.C,JP1*%
X151325000Y-94042000D02*
X151325000Y-91242000D01*
X149325000Y-94042000D02*
X151325000Y-94042000D01*
X151325000Y-91242000D02*
X149325000Y-91242000D01*
X149325000Y-91242000D02*
X149325000Y-94042000D01*
D10*
%TO.C,SW6*%
X155818000Y-112462200D02*
X155818000Y-115792200D01*
X155818000Y-115792200D02*
X154802000Y-115792200D01*
X153786000Y-112462200D02*
X153786000Y-115792200D01*
X153786000Y-115792200D02*
X154802000Y-115792200D01*
%TO.C,SW5*%
X147036000Y-115792200D02*
X148052000Y-115792200D01*
X147036000Y-112462200D02*
X147036000Y-115792200D01*
X149068000Y-115792200D02*
X148052000Y-115792200D01*
X149068000Y-112462200D02*
X149068000Y-115792200D01*
%TO.C,SW4*%
X142318000Y-112432400D02*
X142318000Y-115762400D01*
X142318000Y-115762400D02*
X141302000Y-115762400D01*
X140286000Y-112432400D02*
X140286000Y-115762400D01*
X140286000Y-115762400D02*
X141302000Y-115762400D01*
%TD*%
M02*
