%TF.GenerationSoftware,KiCad,Pcbnew,9.0.3*%
%TF.CreationDate,2026-04-22T13:54:26-04:00*%
%TF.ProjectId,g660-ctrl,67363630-2d63-4747-926c-2e6b69636164,rev?*%
%TF.SameCoordinates,Original*%
%TF.FileFunction,Legend,Top*%
%TF.FilePolarity,Positive*%
%FSLAX46Y46*%
G04 Gerber Fmt 4.6, Leading zero omitted, Abs format (unit mm)*
G04 Created by KiCad (PCBNEW 9.0.3) date 2026-04-22 13:54:26*
%MOMM*%
%LPD*%
G01*
G04 APERTURE LIST*
%ADD10C,0.150000*%
%ADD11C,0.130000*%
%ADD12C,0.120000*%
%ADD13C,0.100000*%
G04 APERTURE END LIST*
D10*
X130228628Y-132097714D02*
X130257200Y-132126286D01*
X130257200Y-132126286D02*
X130285771Y-132212000D01*
X130285771Y-132212000D02*
X130285771Y-132269143D01*
X130285771Y-132269143D02*
X130257200Y-132354857D01*
X130257200Y-132354857D02*
X130200057Y-132412000D01*
X130200057Y-132412000D02*
X130142914Y-132440571D01*
X130142914Y-132440571D02*
X130028628Y-132469143D01*
X130028628Y-132469143D02*
X129942914Y-132469143D01*
X129942914Y-132469143D02*
X129828628Y-132440571D01*
X129828628Y-132440571D02*
X129771485Y-132412000D01*
X129771485Y-132412000D02*
X129714342Y-132354857D01*
X129714342Y-132354857D02*
X129685771Y-132269143D01*
X129685771Y-132269143D02*
X129685771Y-132212000D01*
X129685771Y-132212000D02*
X129714342Y-132126286D01*
X129714342Y-132126286D02*
X129742914Y-132097714D01*
X130285771Y-131526286D02*
X130285771Y-131869143D01*
X130285771Y-131697714D02*
X129685771Y-131697714D01*
X129685771Y-131697714D02*
X129771485Y-131754857D01*
X129771485Y-131754857D02*
X129828628Y-131812000D01*
X129828628Y-131812000D02*
X129857200Y-131869143D01*
X129685771Y-131326285D02*
X129685771Y-130954857D01*
X129685771Y-130954857D02*
X129914342Y-131154857D01*
X129914342Y-131154857D02*
X129914342Y-131069142D01*
X129914342Y-131069142D02*
X129942914Y-131012000D01*
X129942914Y-131012000D02*
X129971485Y-130983428D01*
X129971485Y-130983428D02*
X130028628Y-130954857D01*
X130028628Y-130954857D02*
X130171485Y-130954857D01*
X130171485Y-130954857D02*
X130228628Y-130983428D01*
X130228628Y-130983428D02*
X130257200Y-131012000D01*
X130257200Y-131012000D02*
X130285771Y-131069142D01*
X130285771Y-131069142D02*
X130285771Y-131240571D01*
X130285771Y-131240571D02*
X130257200Y-131297714D01*
X130257200Y-131297714D02*
X130228628Y-131326285D01*
G36*
X140620715Y-116209077D02*
G01*
X140651122Y-116239484D01*
X140685380Y-116308000D01*
X140685380Y-116415447D01*
X140651122Y-116483963D01*
X140620715Y-116514370D01*
X140552199Y-116548628D01*
X140263952Y-116548628D01*
X140263952Y-116174819D01*
X140552199Y-116174819D01*
X140620715Y-116209077D01*
G37*
G36*
X142754574Y-117285930D02*
G01*
X140002841Y-117285930D01*
X140002841Y-116099819D01*
X140113952Y-116099819D01*
X140113952Y-117099819D01*
X140115393Y-117114451D01*
X140126592Y-117141487D01*
X140147284Y-117162179D01*
X140174320Y-117173378D01*
X140203584Y-117173378D01*
X140230620Y-117162179D01*
X140251312Y-117141487D01*
X140262511Y-117114451D01*
X140263952Y-117099819D01*
X140263952Y-116698628D01*
X140387998Y-116698628D01*
X140698938Y-117142829D01*
X140708509Y-117153989D01*
X140733188Y-117169716D01*
X140762005Y-117174802D01*
X140790576Y-117168472D01*
X140814550Y-117151690D01*
X140830277Y-117127012D01*
X140835362Y-117098194D01*
X140829033Y-117069623D01*
X140821823Y-117056810D01*
X140571019Y-116698518D01*
X140584536Y-116697187D01*
X140587025Y-116696155D01*
X140589713Y-116695965D01*
X140603445Y-116690710D01*
X140698683Y-116643091D01*
X140704982Y-116639126D01*
X140706810Y-116638369D01*
X140708866Y-116636680D01*
X140711126Y-116635259D01*
X140712425Y-116633760D01*
X140718175Y-116629042D01*
X140765794Y-116581423D01*
X140770512Y-116575673D01*
X140772011Y-116574374D01*
X140773432Y-116572114D01*
X140775121Y-116570058D01*
X140775878Y-116568230D01*
X140779843Y-116561931D01*
X140827462Y-116466693D01*
X140832717Y-116452962D01*
X140832908Y-116450272D01*
X140833939Y-116447784D01*
X140835380Y-116433152D01*
X140835380Y-116290295D01*
X141066333Y-116290295D01*
X141066333Y-116385533D01*
X141067774Y-116400165D01*
X141068805Y-116402654D01*
X141068996Y-116405342D01*
X141074251Y-116419074D01*
X141121870Y-116514312D01*
X141125834Y-116520611D01*
X141126592Y-116522439D01*
X141128280Y-116524495D01*
X141129702Y-116526755D01*
X141131200Y-116528054D01*
X141135919Y-116533804D01*
X141183538Y-116581423D01*
X141189287Y-116586141D01*
X141190587Y-116587640D01*
X141192846Y-116589061D01*
X141194903Y-116590750D01*
X141196730Y-116591507D01*
X141203030Y-116595472D01*
X141298268Y-116643091D01*
X141299337Y-116643500D01*
X141299773Y-116643823D01*
X141305909Y-116646015D01*
X141311999Y-116648346D01*
X141312539Y-116648384D01*
X141313619Y-116648770D01*
X141496109Y-116694392D01*
X141573096Y-116732886D01*
X141603503Y-116763293D01*
X141637761Y-116831809D01*
X141637761Y-116891637D01*
X141603502Y-116960153D01*
X141573095Y-116990561D01*
X141504580Y-117024819D01*
X141296360Y-117024819D01*
X141165050Y-116981049D01*
X141150713Y-116977789D01*
X141121523Y-116979864D01*
X141095350Y-116992950D01*
X141076176Y-117015057D01*
X141066922Y-117042820D01*
X141068997Y-117072010D01*
X141082083Y-117098183D01*
X141104190Y-117117357D01*
X141117616Y-117123351D01*
X141260472Y-117170970D01*
X141267727Y-117172619D01*
X141269558Y-117173378D01*
X141272211Y-117173639D01*
X141274809Y-117174230D01*
X141276783Y-117174089D01*
X141284190Y-117174819D01*
X141522285Y-117174819D01*
X141536917Y-117173378D01*
X141539406Y-117172346D01*
X141542094Y-117172156D01*
X141555826Y-117166901D01*
X141651064Y-117119282D01*
X141657363Y-117115317D01*
X141659191Y-117114560D01*
X141661247Y-117112872D01*
X141663507Y-117111450D01*
X141664807Y-117109950D01*
X141670557Y-117105232D01*
X141718175Y-117057613D01*
X141722893Y-117051863D01*
X141724392Y-117050564D01*
X141725813Y-117048305D01*
X141727503Y-117046247D01*
X141728260Y-117044417D01*
X141732224Y-117038121D01*
X141779843Y-116942883D01*
X141785098Y-116929152D01*
X141785289Y-116926462D01*
X141786320Y-116923974D01*
X141787761Y-116909342D01*
X141787761Y-116814104D01*
X141786320Y-116799472D01*
X141785289Y-116796983D01*
X141785098Y-116794294D01*
X141779843Y-116780563D01*
X141732224Y-116685325D01*
X141728259Y-116679025D01*
X141727502Y-116677198D01*
X141725813Y-116675141D01*
X141724392Y-116672882D01*
X141722893Y-116671582D01*
X141718175Y-116665833D01*
X141670556Y-116618214D01*
X141664806Y-116613495D01*
X141663507Y-116611997D01*
X141661247Y-116610575D01*
X141659191Y-116608887D01*
X141657363Y-116608129D01*
X141651064Y-116604165D01*
X141555826Y-116556546D01*
X141554756Y-116556136D01*
X141554321Y-116555814D01*
X141548175Y-116553618D01*
X141542094Y-116551291D01*
X141541554Y-116551252D01*
X141540475Y-116550867D01*
X141357985Y-116505244D01*
X141280998Y-116466751D01*
X141250591Y-116436344D01*
X141216333Y-116367828D01*
X141216333Y-116308000D01*
X141250591Y-116239484D01*
X141280998Y-116209077D01*
X141349514Y-116174819D01*
X141557734Y-116174819D01*
X141689043Y-116218589D01*
X141703380Y-116221849D01*
X141732570Y-116219774D01*
X141758744Y-116206688D01*
X141777918Y-116184580D01*
X141787172Y-116156818D01*
X141785097Y-116127628D01*
X141772010Y-116101455D01*
X141753254Y-116085187D01*
X141924917Y-116085187D01*
X141924917Y-116114451D01*
X141936116Y-116141487D01*
X141956808Y-116162179D01*
X141983844Y-116173378D01*
X141998476Y-116174819D01*
X142209190Y-116174819D01*
X142209190Y-117099819D01*
X142210631Y-117114451D01*
X142221830Y-117141487D01*
X142242522Y-117162179D01*
X142269558Y-117173378D01*
X142298822Y-117173378D01*
X142325858Y-117162179D01*
X142346550Y-117141487D01*
X142357749Y-117114451D01*
X142359190Y-117099819D01*
X142359190Y-116174819D01*
X142569904Y-116174819D01*
X142584536Y-116173378D01*
X142611572Y-116162179D01*
X142632264Y-116141487D01*
X142643463Y-116114451D01*
X142643463Y-116085187D01*
X142632264Y-116058151D01*
X142611572Y-116037459D01*
X142584536Y-116026260D01*
X142569904Y-116024819D01*
X141998476Y-116024819D01*
X141983844Y-116026260D01*
X141956808Y-116037459D01*
X141936116Y-116058151D01*
X141924917Y-116085187D01*
X141753254Y-116085187D01*
X141749903Y-116082281D01*
X141736478Y-116076287D01*
X141593621Y-116028668D01*
X141586367Y-116027018D01*
X141584536Y-116026260D01*
X141581881Y-116025998D01*
X141579284Y-116025408D01*
X141577309Y-116025548D01*
X141569904Y-116024819D01*
X141331809Y-116024819D01*
X141317177Y-116026260D01*
X141314688Y-116027290D01*
X141311999Y-116027482D01*
X141298268Y-116032737D01*
X141203030Y-116080356D01*
X141196730Y-116084320D01*
X141194903Y-116085078D01*
X141192846Y-116086766D01*
X141190587Y-116088188D01*
X141189287Y-116089686D01*
X141183538Y-116094405D01*
X141135919Y-116142024D01*
X141131200Y-116147773D01*
X141129702Y-116149073D01*
X141128280Y-116151332D01*
X141126592Y-116153389D01*
X141125834Y-116155216D01*
X141121870Y-116161516D01*
X141074251Y-116256754D01*
X141068996Y-116270486D01*
X141068805Y-116273173D01*
X141067774Y-116275663D01*
X141066333Y-116290295D01*
X140835380Y-116290295D01*
X140833939Y-116275663D01*
X140832908Y-116273174D01*
X140832717Y-116270485D01*
X140827462Y-116256754D01*
X140779843Y-116161516D01*
X140775878Y-116155216D01*
X140775121Y-116153389D01*
X140773432Y-116151332D01*
X140772011Y-116149073D01*
X140770512Y-116147773D01*
X140765794Y-116142024D01*
X140718175Y-116094405D01*
X140712425Y-116089686D01*
X140711126Y-116088188D01*
X140708866Y-116086766D01*
X140706810Y-116085078D01*
X140704982Y-116084320D01*
X140698683Y-116080356D01*
X140603445Y-116032737D01*
X140589713Y-116027482D01*
X140587025Y-116027291D01*
X140584536Y-116026260D01*
X140569904Y-116024819D01*
X140188952Y-116024819D01*
X140174320Y-116026260D01*
X140147284Y-116037459D01*
X140126592Y-116058151D01*
X140115393Y-116085187D01*
X140113952Y-116099819D01*
X140002841Y-116099819D01*
X140002841Y-115913708D01*
X142754574Y-115913708D01*
X142754574Y-117285930D01*
G37*
X161254580Y-113255666D02*
X161302200Y-113303285D01*
X161302200Y-113303285D02*
X161349819Y-113446142D01*
X161349819Y-113446142D02*
X161349819Y-113541380D01*
X161349819Y-113541380D02*
X161302200Y-113684237D01*
X161302200Y-113684237D02*
X161206961Y-113779475D01*
X161206961Y-113779475D02*
X161111723Y-113827094D01*
X161111723Y-113827094D02*
X160921247Y-113874713D01*
X160921247Y-113874713D02*
X160778390Y-113874713D01*
X160778390Y-113874713D02*
X160587914Y-113827094D01*
X160587914Y-113827094D02*
X160492676Y-113779475D01*
X160492676Y-113779475D02*
X160397438Y-113684237D01*
X160397438Y-113684237D02*
X160349819Y-113541380D01*
X160349819Y-113541380D02*
X160349819Y-113446142D01*
X160349819Y-113446142D02*
X160397438Y-113303285D01*
X160397438Y-113303285D02*
X160445057Y-113255666D01*
X160778390Y-112684237D02*
X160730771Y-112779475D01*
X160730771Y-112779475D02*
X160683152Y-112827094D01*
X160683152Y-112827094D02*
X160587914Y-112874713D01*
X160587914Y-112874713D02*
X160540295Y-112874713D01*
X160540295Y-112874713D02*
X160445057Y-112827094D01*
X160445057Y-112827094D02*
X160397438Y-112779475D01*
X160397438Y-112779475D02*
X160349819Y-112684237D01*
X160349819Y-112684237D02*
X160349819Y-112493761D01*
X160349819Y-112493761D02*
X160397438Y-112398523D01*
X160397438Y-112398523D02*
X160445057Y-112350904D01*
X160445057Y-112350904D02*
X160540295Y-112303285D01*
X160540295Y-112303285D02*
X160587914Y-112303285D01*
X160587914Y-112303285D02*
X160683152Y-112350904D01*
X160683152Y-112350904D02*
X160730771Y-112398523D01*
X160730771Y-112398523D02*
X160778390Y-112493761D01*
X160778390Y-112493761D02*
X160778390Y-112684237D01*
X160778390Y-112684237D02*
X160826009Y-112779475D01*
X160826009Y-112779475D02*
X160873628Y-112827094D01*
X160873628Y-112827094D02*
X160968866Y-112874713D01*
X160968866Y-112874713D02*
X161159342Y-112874713D01*
X161159342Y-112874713D02*
X161254580Y-112827094D01*
X161254580Y-112827094D02*
X161302200Y-112779475D01*
X161302200Y-112779475D02*
X161349819Y-112684237D01*
X161349819Y-112684237D02*
X161349819Y-112493761D01*
X161349819Y-112493761D02*
X161302200Y-112398523D01*
X161302200Y-112398523D02*
X161254580Y-112350904D01*
X161254580Y-112350904D02*
X161159342Y-112303285D01*
X161159342Y-112303285D02*
X160968866Y-112303285D01*
X160968866Y-112303285D02*
X160873628Y-112350904D01*
X160873628Y-112350904D02*
X160826009Y-112398523D01*
X160826009Y-112398523D02*
X160778390Y-112493761D01*
X145111667Y-110454104D02*
X145073571Y-110492200D01*
X145073571Y-110492200D02*
X144959286Y-110530295D01*
X144959286Y-110530295D02*
X144883095Y-110530295D01*
X144883095Y-110530295D02*
X144768809Y-110492200D01*
X144768809Y-110492200D02*
X144692619Y-110416009D01*
X144692619Y-110416009D02*
X144654524Y-110339819D01*
X144654524Y-110339819D02*
X144616428Y-110187438D01*
X144616428Y-110187438D02*
X144616428Y-110073152D01*
X144616428Y-110073152D02*
X144654524Y-109920771D01*
X144654524Y-109920771D02*
X144692619Y-109844580D01*
X144692619Y-109844580D02*
X144768809Y-109768390D01*
X144768809Y-109768390D02*
X144883095Y-109730295D01*
X144883095Y-109730295D02*
X144959286Y-109730295D01*
X144959286Y-109730295D02*
X145073571Y-109768390D01*
X145073571Y-109768390D02*
X145111667Y-109806485D01*
X145378333Y-109730295D02*
X145911667Y-109730295D01*
X145911667Y-109730295D02*
X145568809Y-110530295D01*
X134189667Y-84292104D02*
X134151571Y-84330200D01*
X134151571Y-84330200D02*
X134037286Y-84368295D01*
X134037286Y-84368295D02*
X133961095Y-84368295D01*
X133961095Y-84368295D02*
X133846809Y-84330200D01*
X133846809Y-84330200D02*
X133770619Y-84254009D01*
X133770619Y-84254009D02*
X133732524Y-84177819D01*
X133732524Y-84177819D02*
X133694428Y-84025438D01*
X133694428Y-84025438D02*
X133694428Y-83911152D01*
X133694428Y-83911152D02*
X133732524Y-83758771D01*
X133732524Y-83758771D02*
X133770619Y-83682580D01*
X133770619Y-83682580D02*
X133846809Y-83606390D01*
X133846809Y-83606390D02*
X133961095Y-83568295D01*
X133961095Y-83568295D02*
X134037286Y-83568295D01*
X134037286Y-83568295D02*
X134151571Y-83606390D01*
X134151571Y-83606390D02*
X134189667Y-83644485D01*
X134570619Y-84368295D02*
X134723000Y-84368295D01*
X134723000Y-84368295D02*
X134799190Y-84330200D01*
X134799190Y-84330200D02*
X134837286Y-84292104D01*
X134837286Y-84292104D02*
X134913476Y-84177819D01*
X134913476Y-84177819D02*
X134951571Y-84025438D01*
X134951571Y-84025438D02*
X134951571Y-83720676D01*
X134951571Y-83720676D02*
X134913476Y-83644485D01*
X134913476Y-83644485D02*
X134875381Y-83606390D01*
X134875381Y-83606390D02*
X134799190Y-83568295D01*
X134799190Y-83568295D02*
X134646809Y-83568295D01*
X134646809Y-83568295D02*
X134570619Y-83606390D01*
X134570619Y-83606390D02*
X134532524Y-83644485D01*
X134532524Y-83644485D02*
X134494428Y-83720676D01*
X134494428Y-83720676D02*
X134494428Y-83911152D01*
X134494428Y-83911152D02*
X134532524Y-83987342D01*
X134532524Y-83987342D02*
X134570619Y-84025438D01*
X134570619Y-84025438D02*
X134646809Y-84063533D01*
X134646809Y-84063533D02*
X134799190Y-84063533D01*
X134799190Y-84063533D02*
X134875381Y-84025438D01*
X134875381Y-84025438D02*
X134913476Y-83987342D01*
X134913476Y-83987342D02*
X134951571Y-83911152D01*
X139478628Y-131997714D02*
X139507200Y-132026286D01*
X139507200Y-132026286D02*
X139535771Y-132112000D01*
X139535771Y-132112000D02*
X139535771Y-132169143D01*
X139535771Y-132169143D02*
X139507200Y-132254857D01*
X139507200Y-132254857D02*
X139450057Y-132312000D01*
X139450057Y-132312000D02*
X139392914Y-132340571D01*
X139392914Y-132340571D02*
X139278628Y-132369143D01*
X139278628Y-132369143D02*
X139192914Y-132369143D01*
X139192914Y-132369143D02*
X139078628Y-132340571D01*
X139078628Y-132340571D02*
X139021485Y-132312000D01*
X139021485Y-132312000D02*
X138964342Y-132254857D01*
X138964342Y-132254857D02*
X138935771Y-132169143D01*
X138935771Y-132169143D02*
X138935771Y-132112000D01*
X138935771Y-132112000D02*
X138964342Y-132026286D01*
X138964342Y-132026286D02*
X138992914Y-131997714D01*
X139535771Y-131426286D02*
X139535771Y-131769143D01*
X139535771Y-131597714D02*
X138935771Y-131597714D01*
X138935771Y-131597714D02*
X139021485Y-131654857D01*
X139021485Y-131654857D02*
X139078628Y-131712000D01*
X139078628Y-131712000D02*
X139107200Y-131769143D01*
X138992914Y-131197714D02*
X138964342Y-131169142D01*
X138964342Y-131169142D02*
X138935771Y-131112000D01*
X138935771Y-131112000D02*
X138935771Y-130969142D01*
X138935771Y-130969142D02*
X138964342Y-130912000D01*
X138964342Y-130912000D02*
X138992914Y-130883428D01*
X138992914Y-130883428D02*
X139050057Y-130854857D01*
X139050057Y-130854857D02*
X139107200Y-130854857D01*
X139107200Y-130854857D02*
X139192914Y-130883428D01*
X139192914Y-130883428D02*
X139535771Y-131226285D01*
X139535771Y-131226285D02*
X139535771Y-130854857D01*
X130228628Y-138197714D02*
X130257200Y-138226286D01*
X130257200Y-138226286D02*
X130285771Y-138312000D01*
X130285771Y-138312000D02*
X130285771Y-138369143D01*
X130285771Y-138369143D02*
X130257200Y-138454857D01*
X130257200Y-138454857D02*
X130200057Y-138512000D01*
X130200057Y-138512000D02*
X130142914Y-138540571D01*
X130142914Y-138540571D02*
X130028628Y-138569143D01*
X130028628Y-138569143D02*
X129942914Y-138569143D01*
X129942914Y-138569143D02*
X129828628Y-138540571D01*
X129828628Y-138540571D02*
X129771485Y-138512000D01*
X129771485Y-138512000D02*
X129714342Y-138454857D01*
X129714342Y-138454857D02*
X129685771Y-138369143D01*
X129685771Y-138369143D02*
X129685771Y-138312000D01*
X129685771Y-138312000D02*
X129714342Y-138226286D01*
X129714342Y-138226286D02*
X129742914Y-138197714D01*
X130285771Y-137626286D02*
X130285771Y-137969143D01*
X130285771Y-137797714D02*
X129685771Y-137797714D01*
X129685771Y-137797714D02*
X129771485Y-137854857D01*
X129771485Y-137854857D02*
X129828628Y-137912000D01*
X129828628Y-137912000D02*
X129857200Y-137969143D01*
X129685771Y-137254857D02*
X129685771Y-137197714D01*
X129685771Y-137197714D02*
X129714342Y-137140571D01*
X129714342Y-137140571D02*
X129742914Y-137112000D01*
X129742914Y-137112000D02*
X129800057Y-137083428D01*
X129800057Y-137083428D02*
X129914342Y-137054857D01*
X129914342Y-137054857D02*
X130057200Y-137054857D01*
X130057200Y-137054857D02*
X130171485Y-137083428D01*
X130171485Y-137083428D02*
X130228628Y-137112000D01*
X130228628Y-137112000D02*
X130257200Y-137140571D01*
X130257200Y-137140571D02*
X130285771Y-137197714D01*
X130285771Y-137197714D02*
X130285771Y-137254857D01*
X130285771Y-137254857D02*
X130257200Y-137312000D01*
X130257200Y-137312000D02*
X130228628Y-137340571D01*
X130228628Y-137340571D02*
X130171485Y-137369142D01*
X130171485Y-137369142D02*
X130057200Y-137397714D01*
X130057200Y-137397714D02*
X129914342Y-137397714D01*
X129914342Y-137397714D02*
X129800057Y-137369142D01*
X129800057Y-137369142D02*
X129742914Y-137340571D01*
X129742914Y-137340571D02*
X129714342Y-137312000D01*
X129714342Y-137312000D02*
X129685771Y-137254857D01*
X130228628Y-136097714D02*
X130257200Y-136126286D01*
X130257200Y-136126286D02*
X130285771Y-136212000D01*
X130285771Y-136212000D02*
X130285771Y-136269143D01*
X130285771Y-136269143D02*
X130257200Y-136354857D01*
X130257200Y-136354857D02*
X130200057Y-136412000D01*
X130200057Y-136412000D02*
X130142914Y-136440571D01*
X130142914Y-136440571D02*
X130028628Y-136469143D01*
X130028628Y-136469143D02*
X129942914Y-136469143D01*
X129942914Y-136469143D02*
X129828628Y-136440571D01*
X129828628Y-136440571D02*
X129771485Y-136412000D01*
X129771485Y-136412000D02*
X129714342Y-136354857D01*
X129714342Y-136354857D02*
X129685771Y-136269143D01*
X129685771Y-136269143D02*
X129685771Y-136212000D01*
X129685771Y-136212000D02*
X129714342Y-136126286D01*
X129714342Y-136126286D02*
X129742914Y-136097714D01*
X130285771Y-135526286D02*
X130285771Y-135869143D01*
X130285771Y-135697714D02*
X129685771Y-135697714D01*
X129685771Y-135697714D02*
X129771485Y-135754857D01*
X129771485Y-135754857D02*
X129828628Y-135812000D01*
X129828628Y-135812000D02*
X129857200Y-135869143D01*
X130285771Y-134954857D02*
X130285771Y-135297714D01*
X130285771Y-135126285D02*
X129685771Y-135126285D01*
X129685771Y-135126285D02*
X129771485Y-135183428D01*
X129771485Y-135183428D02*
X129828628Y-135240571D01*
X129828628Y-135240571D02*
X129857200Y-135297714D01*
X130228628Y-134097714D02*
X130257200Y-134126286D01*
X130257200Y-134126286D02*
X130285771Y-134212000D01*
X130285771Y-134212000D02*
X130285771Y-134269143D01*
X130285771Y-134269143D02*
X130257200Y-134354857D01*
X130257200Y-134354857D02*
X130200057Y-134412000D01*
X130200057Y-134412000D02*
X130142914Y-134440571D01*
X130142914Y-134440571D02*
X130028628Y-134469143D01*
X130028628Y-134469143D02*
X129942914Y-134469143D01*
X129942914Y-134469143D02*
X129828628Y-134440571D01*
X129828628Y-134440571D02*
X129771485Y-134412000D01*
X129771485Y-134412000D02*
X129714342Y-134354857D01*
X129714342Y-134354857D02*
X129685771Y-134269143D01*
X129685771Y-134269143D02*
X129685771Y-134212000D01*
X129685771Y-134212000D02*
X129714342Y-134126286D01*
X129714342Y-134126286D02*
X129742914Y-134097714D01*
X130285771Y-133526286D02*
X130285771Y-133869143D01*
X130285771Y-133697714D02*
X129685771Y-133697714D01*
X129685771Y-133697714D02*
X129771485Y-133754857D01*
X129771485Y-133754857D02*
X129828628Y-133812000D01*
X129828628Y-133812000D02*
X129857200Y-133869143D01*
X129885771Y-133012000D02*
X130285771Y-133012000D01*
X129657200Y-133154857D02*
X130085771Y-133297714D01*
X130085771Y-133297714D02*
X130085771Y-132926285D01*
X157233809Y-126100485D02*
X157157619Y-126062390D01*
X157157619Y-126062390D02*
X157081428Y-125986200D01*
X157081428Y-125986200D02*
X156967142Y-125871914D01*
X156967142Y-125871914D02*
X156890952Y-125833819D01*
X156890952Y-125833819D02*
X156814761Y-125833819D01*
X156852857Y-126024295D02*
X156776666Y-125986200D01*
X156776666Y-125986200D02*
X156700476Y-125910009D01*
X156700476Y-125910009D02*
X156662380Y-125757628D01*
X156662380Y-125757628D02*
X156662380Y-125490961D01*
X156662380Y-125490961D02*
X156700476Y-125338580D01*
X156700476Y-125338580D02*
X156776666Y-125262390D01*
X156776666Y-125262390D02*
X156852857Y-125224295D01*
X156852857Y-125224295D02*
X157005238Y-125224295D01*
X157005238Y-125224295D02*
X157081428Y-125262390D01*
X157081428Y-125262390D02*
X157157619Y-125338580D01*
X157157619Y-125338580D02*
X157195714Y-125490961D01*
X157195714Y-125490961D02*
X157195714Y-125757628D01*
X157195714Y-125757628D02*
X157157619Y-125910009D01*
X157157619Y-125910009D02*
X157081428Y-125986200D01*
X157081428Y-125986200D02*
X157005238Y-126024295D01*
X157005238Y-126024295D02*
X156852857Y-126024295D01*
X157957618Y-126024295D02*
X157500475Y-126024295D01*
X157729047Y-126024295D02*
X157729047Y-125224295D01*
X157729047Y-125224295D02*
X157652856Y-125338580D01*
X157652856Y-125338580D02*
X157576666Y-125414771D01*
X157576666Y-125414771D02*
X157500475Y-125452866D01*
X152782524Y-134406295D02*
X152782524Y-133606295D01*
X152782524Y-133606295D02*
X152973000Y-133606295D01*
X152973000Y-133606295D02*
X153087286Y-133644390D01*
X153087286Y-133644390D02*
X153163476Y-133720580D01*
X153163476Y-133720580D02*
X153201571Y-133796771D01*
X153201571Y-133796771D02*
X153239667Y-133949152D01*
X153239667Y-133949152D02*
X153239667Y-134063438D01*
X153239667Y-134063438D02*
X153201571Y-134215819D01*
X153201571Y-134215819D02*
X153163476Y-134292009D01*
X153163476Y-134292009D02*
X153087286Y-134368200D01*
X153087286Y-134368200D02*
X152973000Y-134406295D01*
X152973000Y-134406295D02*
X152782524Y-134406295D01*
X154001571Y-134406295D02*
X153544428Y-134406295D01*
X153773000Y-134406295D02*
X153773000Y-133606295D01*
X153773000Y-133606295D02*
X153696809Y-133720580D01*
X153696809Y-133720580D02*
X153620619Y-133796771D01*
X153620619Y-133796771D02*
X153544428Y-133834866D01*
X158497524Y-129173895D02*
X158497524Y-128373895D01*
X158497524Y-128373895D02*
X158688000Y-128373895D01*
X158688000Y-128373895D02*
X158802286Y-128411990D01*
X158802286Y-128411990D02*
X158878476Y-128488180D01*
X158878476Y-128488180D02*
X158916571Y-128564371D01*
X158916571Y-128564371D02*
X158954667Y-128716752D01*
X158954667Y-128716752D02*
X158954667Y-128831038D01*
X158954667Y-128831038D02*
X158916571Y-128983419D01*
X158916571Y-128983419D02*
X158878476Y-129059609D01*
X158878476Y-129059609D02*
X158802286Y-129135800D01*
X158802286Y-129135800D02*
X158688000Y-129173895D01*
X158688000Y-129173895D02*
X158497524Y-129173895D01*
X159221333Y-128373895D02*
X159716571Y-128373895D01*
X159716571Y-128373895D02*
X159449905Y-128678657D01*
X159449905Y-128678657D02*
X159564190Y-128678657D01*
X159564190Y-128678657D02*
X159640381Y-128716752D01*
X159640381Y-128716752D02*
X159678476Y-128754847D01*
X159678476Y-128754847D02*
X159716571Y-128831038D01*
X159716571Y-128831038D02*
X159716571Y-129021514D01*
X159716571Y-129021514D02*
X159678476Y-129097704D01*
X159678476Y-129097704D02*
X159640381Y-129135800D01*
X159640381Y-129135800D02*
X159564190Y-129173895D01*
X159564190Y-129173895D02*
X159335619Y-129173895D01*
X159335619Y-129173895D02*
X159259428Y-129135800D01*
X159259428Y-129135800D02*
X159221333Y-129097704D01*
X158751524Y-133009295D02*
X158751524Y-132209295D01*
X158751524Y-132209295D02*
X158942000Y-132209295D01*
X158942000Y-132209295D02*
X159056286Y-132247390D01*
X159056286Y-132247390D02*
X159132476Y-132323580D01*
X159132476Y-132323580D02*
X159170571Y-132399771D01*
X159170571Y-132399771D02*
X159208667Y-132552152D01*
X159208667Y-132552152D02*
X159208667Y-132666438D01*
X159208667Y-132666438D02*
X159170571Y-132818819D01*
X159170571Y-132818819D02*
X159132476Y-132895009D01*
X159132476Y-132895009D02*
X159056286Y-132971200D01*
X159056286Y-132971200D02*
X158942000Y-133009295D01*
X158942000Y-133009295D02*
X158751524Y-133009295D01*
X159513428Y-132285485D02*
X159551524Y-132247390D01*
X159551524Y-132247390D02*
X159627714Y-132209295D01*
X159627714Y-132209295D02*
X159818190Y-132209295D01*
X159818190Y-132209295D02*
X159894381Y-132247390D01*
X159894381Y-132247390D02*
X159932476Y-132285485D01*
X159932476Y-132285485D02*
X159970571Y-132361676D01*
X159970571Y-132361676D02*
X159970571Y-132437866D01*
X159970571Y-132437866D02*
X159932476Y-132552152D01*
X159932476Y-132552152D02*
X159475333Y-133009295D01*
X159475333Y-133009295D02*
X159970571Y-133009295D01*
X132173143Y-141597371D02*
X132173143Y-140997371D01*
X132173143Y-140997371D02*
X132316000Y-140997371D01*
X132316000Y-140997371D02*
X132401714Y-141025942D01*
X132401714Y-141025942D02*
X132458857Y-141083085D01*
X132458857Y-141083085D02*
X132487428Y-141140228D01*
X132487428Y-141140228D02*
X132516000Y-141254514D01*
X132516000Y-141254514D02*
X132516000Y-141340228D01*
X132516000Y-141340228D02*
X132487428Y-141454514D01*
X132487428Y-141454514D02*
X132458857Y-141511657D01*
X132458857Y-141511657D02*
X132401714Y-141568800D01*
X132401714Y-141568800D02*
X132316000Y-141597371D01*
X132316000Y-141597371D02*
X132173143Y-141597371D01*
X133058857Y-140997371D02*
X132773143Y-140997371D01*
X132773143Y-140997371D02*
X132744571Y-141283085D01*
X132744571Y-141283085D02*
X132773143Y-141254514D01*
X132773143Y-141254514D02*
X132830286Y-141225942D01*
X132830286Y-141225942D02*
X132973143Y-141225942D01*
X132973143Y-141225942D02*
X133030286Y-141254514D01*
X133030286Y-141254514D02*
X133058857Y-141283085D01*
X133058857Y-141283085D02*
X133087428Y-141340228D01*
X133087428Y-141340228D02*
X133087428Y-141483085D01*
X133087428Y-141483085D02*
X133058857Y-141540228D01*
X133058857Y-141540228D02*
X133030286Y-141568800D01*
X133030286Y-141568800D02*
X132973143Y-141597371D01*
X132973143Y-141597371D02*
X132830286Y-141597371D01*
X132830286Y-141597371D02*
X132773143Y-141568800D01*
X132773143Y-141568800D02*
X132744571Y-141540228D01*
X158497524Y-118353495D02*
X158497524Y-117553495D01*
X158497524Y-117553495D02*
X158688000Y-117553495D01*
X158688000Y-117553495D02*
X158802286Y-117591590D01*
X158802286Y-117591590D02*
X158878476Y-117667780D01*
X158878476Y-117667780D02*
X158916571Y-117743971D01*
X158916571Y-117743971D02*
X158954667Y-117896352D01*
X158954667Y-117896352D02*
X158954667Y-118010638D01*
X158954667Y-118010638D02*
X158916571Y-118163019D01*
X158916571Y-118163019D02*
X158878476Y-118239209D01*
X158878476Y-118239209D02*
X158802286Y-118315400D01*
X158802286Y-118315400D02*
X158688000Y-118353495D01*
X158688000Y-118353495D02*
X158497524Y-118353495D01*
X159640381Y-117820161D02*
X159640381Y-118353495D01*
X159449905Y-117515400D02*
X159259428Y-118086828D01*
X159259428Y-118086828D02*
X159754667Y-118086828D01*
X133910266Y-128724295D02*
X133529314Y-128724295D01*
X133529314Y-128724295D02*
X133529314Y-127924295D01*
X134595980Y-128724295D02*
X134138837Y-128724295D01*
X134367409Y-128724295D02*
X134367409Y-127924295D01*
X134367409Y-127924295D02*
X134291218Y-128038580D01*
X134291218Y-128038580D02*
X134215028Y-128114771D01*
X134215028Y-128114771D02*
X134138837Y-128152866D01*
X147454809Y-129275485D02*
X147378619Y-129237390D01*
X147378619Y-129237390D02*
X147302428Y-129161200D01*
X147302428Y-129161200D02*
X147188142Y-129046914D01*
X147188142Y-129046914D02*
X147111952Y-129008819D01*
X147111952Y-129008819D02*
X147035761Y-129008819D01*
X147073857Y-129199295D02*
X146997666Y-129161200D01*
X146997666Y-129161200D02*
X146921476Y-129085009D01*
X146921476Y-129085009D02*
X146883380Y-128932628D01*
X146883380Y-128932628D02*
X146883380Y-128665961D01*
X146883380Y-128665961D02*
X146921476Y-128513580D01*
X146921476Y-128513580D02*
X146997666Y-128437390D01*
X146997666Y-128437390D02*
X147073857Y-128399295D01*
X147073857Y-128399295D02*
X147226238Y-128399295D01*
X147226238Y-128399295D02*
X147302428Y-128437390D01*
X147302428Y-128437390D02*
X147378619Y-128513580D01*
X147378619Y-128513580D02*
X147416714Y-128665961D01*
X147416714Y-128665961D02*
X147416714Y-128932628D01*
X147416714Y-128932628D02*
X147378619Y-129085009D01*
X147378619Y-129085009D02*
X147302428Y-129161200D01*
X147302428Y-129161200D02*
X147226238Y-129199295D01*
X147226238Y-129199295D02*
X147073857Y-129199295D01*
X147721475Y-128475485D02*
X147759571Y-128437390D01*
X147759571Y-128437390D02*
X147835761Y-128399295D01*
X147835761Y-128399295D02*
X148026237Y-128399295D01*
X148026237Y-128399295D02*
X148102428Y-128437390D01*
X148102428Y-128437390D02*
X148140523Y-128475485D01*
X148140523Y-128475485D02*
X148178618Y-128551676D01*
X148178618Y-128551676D02*
X148178618Y-128627866D01*
X148178618Y-128627866D02*
X148140523Y-128742152D01*
X148140523Y-128742152D02*
X147683380Y-129199295D01*
X147683380Y-129199295D02*
X148178618Y-129199295D01*
X147454809Y-125719485D02*
X147378619Y-125681390D01*
X147378619Y-125681390D02*
X147302428Y-125605200D01*
X147302428Y-125605200D02*
X147188142Y-125490914D01*
X147188142Y-125490914D02*
X147111952Y-125452819D01*
X147111952Y-125452819D02*
X147035761Y-125452819D01*
X147073857Y-125643295D02*
X146997666Y-125605200D01*
X146997666Y-125605200D02*
X146921476Y-125529009D01*
X146921476Y-125529009D02*
X146883380Y-125376628D01*
X146883380Y-125376628D02*
X146883380Y-125109961D01*
X146883380Y-125109961D02*
X146921476Y-124957580D01*
X146921476Y-124957580D02*
X146997666Y-124881390D01*
X146997666Y-124881390D02*
X147073857Y-124843295D01*
X147073857Y-124843295D02*
X147226238Y-124843295D01*
X147226238Y-124843295D02*
X147302428Y-124881390D01*
X147302428Y-124881390D02*
X147378619Y-124957580D01*
X147378619Y-124957580D02*
X147416714Y-125109961D01*
X147416714Y-125109961D02*
X147416714Y-125376628D01*
X147416714Y-125376628D02*
X147378619Y-125529009D01*
X147378619Y-125529009D02*
X147302428Y-125605200D01*
X147302428Y-125605200D02*
X147226238Y-125643295D01*
X147226238Y-125643295D02*
X147073857Y-125643295D01*
X147683380Y-124843295D02*
X148178618Y-124843295D01*
X148178618Y-124843295D02*
X147911952Y-125148057D01*
X147911952Y-125148057D02*
X148026237Y-125148057D01*
X148026237Y-125148057D02*
X148102428Y-125186152D01*
X148102428Y-125186152D02*
X148140523Y-125224247D01*
X148140523Y-125224247D02*
X148178618Y-125300438D01*
X148178618Y-125300438D02*
X148178618Y-125490914D01*
X148178618Y-125490914D02*
X148140523Y-125567104D01*
X148140523Y-125567104D02*
X148102428Y-125605200D01*
X148102428Y-125605200D02*
X148026237Y-125643295D01*
X148026237Y-125643295D02*
X147797666Y-125643295D01*
X147797666Y-125643295D02*
X147721475Y-125605200D01*
X147721475Y-125605200D02*
X147683380Y-125567104D01*
X141301667Y-133390295D02*
X141035000Y-133009342D01*
X140844524Y-133390295D02*
X140844524Y-132590295D01*
X140844524Y-132590295D02*
X141149286Y-132590295D01*
X141149286Y-132590295D02*
X141225476Y-132628390D01*
X141225476Y-132628390D02*
X141263571Y-132666485D01*
X141263571Y-132666485D02*
X141301667Y-132742676D01*
X141301667Y-132742676D02*
X141301667Y-132856961D01*
X141301667Y-132856961D02*
X141263571Y-132933152D01*
X141263571Y-132933152D02*
X141225476Y-132971247D01*
X141225476Y-132971247D02*
X141149286Y-133009342D01*
X141149286Y-133009342D02*
X140844524Y-133009342D01*
X142063571Y-133390295D02*
X141606428Y-133390295D01*
X141835000Y-133390295D02*
X141835000Y-132590295D01*
X141835000Y-132590295D02*
X141758809Y-132704580D01*
X141758809Y-132704580D02*
X141682619Y-132780771D01*
X141682619Y-132780771D02*
X141606428Y-132818866D01*
X146610267Y-133592495D02*
X146343600Y-133211542D01*
X146153124Y-133592495D02*
X146153124Y-132792495D01*
X146153124Y-132792495D02*
X146457886Y-132792495D01*
X146457886Y-132792495D02*
X146534076Y-132830590D01*
X146534076Y-132830590D02*
X146572171Y-132868685D01*
X146572171Y-132868685D02*
X146610267Y-132944876D01*
X146610267Y-132944876D02*
X146610267Y-133059161D01*
X146610267Y-133059161D02*
X146572171Y-133135352D01*
X146572171Y-133135352D02*
X146534076Y-133173447D01*
X146534076Y-133173447D02*
X146457886Y-133211542D01*
X146457886Y-133211542D02*
X146153124Y-133211542D01*
X146915028Y-132868685D02*
X146953124Y-132830590D01*
X146953124Y-132830590D02*
X147029314Y-132792495D01*
X147029314Y-132792495D02*
X147219790Y-132792495D01*
X147219790Y-132792495D02*
X147295981Y-132830590D01*
X147295981Y-132830590D02*
X147334076Y-132868685D01*
X147334076Y-132868685D02*
X147372171Y-132944876D01*
X147372171Y-132944876D02*
X147372171Y-133021066D01*
X147372171Y-133021066D02*
X147334076Y-133135352D01*
X147334076Y-133135352D02*
X146876933Y-133592495D01*
X146876933Y-133592495D02*
X147372171Y-133592495D01*
D11*
X145054073Y-122730666D02*
X144720740Y-122963999D01*
X145054073Y-123130666D02*
X144354073Y-123130666D01*
X144354073Y-123130666D02*
X144354073Y-122863999D01*
X144354073Y-122863999D02*
X144387406Y-122797333D01*
X144387406Y-122797333D02*
X144420740Y-122763999D01*
X144420740Y-122763999D02*
X144487406Y-122730666D01*
X144487406Y-122730666D02*
X144587406Y-122730666D01*
X144587406Y-122730666D02*
X144654073Y-122763999D01*
X144654073Y-122763999D02*
X144687406Y-122797333D01*
X144687406Y-122797333D02*
X144720740Y-122863999D01*
X144720740Y-122863999D02*
X144720740Y-123130666D01*
X145054073Y-122397333D02*
X145054073Y-122263999D01*
X145054073Y-122263999D02*
X145020740Y-122197333D01*
X145020740Y-122197333D02*
X144987406Y-122163999D01*
X144987406Y-122163999D02*
X144887406Y-122097333D01*
X144887406Y-122097333D02*
X144754073Y-122063999D01*
X144754073Y-122063999D02*
X144487406Y-122063999D01*
X144487406Y-122063999D02*
X144420740Y-122097333D01*
X144420740Y-122097333D02*
X144387406Y-122130666D01*
X144387406Y-122130666D02*
X144354073Y-122197333D01*
X144354073Y-122197333D02*
X144354073Y-122330666D01*
X144354073Y-122330666D02*
X144387406Y-122397333D01*
X144387406Y-122397333D02*
X144420740Y-122430666D01*
X144420740Y-122430666D02*
X144487406Y-122463999D01*
X144487406Y-122463999D02*
X144654073Y-122463999D01*
X144654073Y-122463999D02*
X144720740Y-122430666D01*
X144720740Y-122430666D02*
X144754073Y-122397333D01*
X144754073Y-122397333D02*
X144787406Y-122330666D01*
X144787406Y-122330666D02*
X144787406Y-122197333D01*
X144787406Y-122197333D02*
X144754073Y-122130666D01*
X144754073Y-122130666D02*
X144720740Y-122097333D01*
X144720740Y-122097333D02*
X144654073Y-122063999D01*
D10*
X157106809Y-121528485D02*
X157030619Y-121490390D01*
X157030619Y-121490390D02*
X156954428Y-121414200D01*
X156954428Y-121414200D02*
X156840142Y-121299914D01*
X156840142Y-121299914D02*
X156763952Y-121261819D01*
X156763952Y-121261819D02*
X156687761Y-121261819D01*
X156725857Y-121452295D02*
X156649666Y-121414200D01*
X156649666Y-121414200D02*
X156573476Y-121338009D01*
X156573476Y-121338009D02*
X156535380Y-121185628D01*
X156535380Y-121185628D02*
X156535380Y-120918961D01*
X156535380Y-120918961D02*
X156573476Y-120766580D01*
X156573476Y-120766580D02*
X156649666Y-120690390D01*
X156649666Y-120690390D02*
X156725857Y-120652295D01*
X156725857Y-120652295D02*
X156878238Y-120652295D01*
X156878238Y-120652295D02*
X156954428Y-120690390D01*
X156954428Y-120690390D02*
X157030619Y-120766580D01*
X157030619Y-120766580D02*
X157068714Y-120918961D01*
X157068714Y-120918961D02*
X157068714Y-121185628D01*
X157068714Y-121185628D02*
X157030619Y-121338009D01*
X157030619Y-121338009D02*
X156954428Y-121414200D01*
X156954428Y-121414200D02*
X156878238Y-121452295D01*
X156878238Y-121452295D02*
X156725857Y-121452295D01*
X157754428Y-120918961D02*
X157754428Y-121452295D01*
X157563952Y-120614200D02*
X157373475Y-121185628D01*
X157373475Y-121185628D02*
X157868714Y-121185628D01*
X150420267Y-132374295D02*
X150153600Y-131993342D01*
X149963124Y-132374295D02*
X149963124Y-131574295D01*
X149963124Y-131574295D02*
X150267886Y-131574295D01*
X150267886Y-131574295D02*
X150344076Y-131612390D01*
X150344076Y-131612390D02*
X150382171Y-131650485D01*
X150382171Y-131650485D02*
X150420267Y-131726676D01*
X150420267Y-131726676D02*
X150420267Y-131840961D01*
X150420267Y-131840961D02*
X150382171Y-131917152D01*
X150382171Y-131917152D02*
X150344076Y-131955247D01*
X150344076Y-131955247D02*
X150267886Y-131993342D01*
X150267886Y-131993342D02*
X149963124Y-131993342D01*
X151144076Y-131574295D02*
X150763124Y-131574295D01*
X150763124Y-131574295D02*
X150725028Y-131955247D01*
X150725028Y-131955247D02*
X150763124Y-131917152D01*
X150763124Y-131917152D02*
X150839314Y-131879057D01*
X150839314Y-131879057D02*
X151029790Y-131879057D01*
X151029790Y-131879057D02*
X151105981Y-131917152D01*
X151105981Y-131917152D02*
X151144076Y-131955247D01*
X151144076Y-131955247D02*
X151182171Y-132031438D01*
X151182171Y-132031438D02*
X151182171Y-132221914D01*
X151182171Y-132221914D02*
X151144076Y-132298104D01*
X151144076Y-132298104D02*
X151105981Y-132336200D01*
X151105981Y-132336200D02*
X151029790Y-132374295D01*
X151029790Y-132374295D02*
X150839314Y-132374295D01*
X150839314Y-132374295D02*
X150763124Y-132336200D01*
X150763124Y-132336200D02*
X150725028Y-132298104D01*
X139777667Y-125643295D02*
X139511000Y-125262342D01*
X139320524Y-125643295D02*
X139320524Y-124843295D01*
X139320524Y-124843295D02*
X139625286Y-124843295D01*
X139625286Y-124843295D02*
X139701476Y-124881390D01*
X139701476Y-124881390D02*
X139739571Y-124919485D01*
X139739571Y-124919485D02*
X139777667Y-124995676D01*
X139777667Y-124995676D02*
X139777667Y-125109961D01*
X139777667Y-125109961D02*
X139739571Y-125186152D01*
X139739571Y-125186152D02*
X139701476Y-125224247D01*
X139701476Y-125224247D02*
X139625286Y-125262342D01*
X139625286Y-125262342D02*
X139320524Y-125262342D01*
X140463381Y-124843295D02*
X140311000Y-124843295D01*
X140311000Y-124843295D02*
X140234809Y-124881390D01*
X140234809Y-124881390D02*
X140196714Y-124919485D01*
X140196714Y-124919485D02*
X140120524Y-125033771D01*
X140120524Y-125033771D02*
X140082428Y-125186152D01*
X140082428Y-125186152D02*
X140082428Y-125490914D01*
X140082428Y-125490914D02*
X140120524Y-125567104D01*
X140120524Y-125567104D02*
X140158619Y-125605200D01*
X140158619Y-125605200D02*
X140234809Y-125643295D01*
X140234809Y-125643295D02*
X140387190Y-125643295D01*
X140387190Y-125643295D02*
X140463381Y-125605200D01*
X140463381Y-125605200D02*
X140501476Y-125567104D01*
X140501476Y-125567104D02*
X140539571Y-125490914D01*
X140539571Y-125490914D02*
X140539571Y-125300438D01*
X140539571Y-125300438D02*
X140501476Y-125224247D01*
X140501476Y-125224247D02*
X140463381Y-125186152D01*
X140463381Y-125186152D02*
X140387190Y-125148057D01*
X140387190Y-125148057D02*
X140234809Y-125148057D01*
X140234809Y-125148057D02*
X140158619Y-125186152D01*
X140158619Y-125186152D02*
X140120524Y-125224247D01*
X140120524Y-125224247D02*
X140082428Y-125300438D01*
X147143714Y-117515295D02*
X146877047Y-117134342D01*
X146686571Y-117515295D02*
X146686571Y-116715295D01*
X146686571Y-116715295D02*
X146991333Y-116715295D01*
X146991333Y-116715295D02*
X147067523Y-116753390D01*
X147067523Y-116753390D02*
X147105618Y-116791485D01*
X147105618Y-116791485D02*
X147143714Y-116867676D01*
X147143714Y-116867676D02*
X147143714Y-116981961D01*
X147143714Y-116981961D02*
X147105618Y-117058152D01*
X147105618Y-117058152D02*
X147067523Y-117096247D01*
X147067523Y-117096247D02*
X146991333Y-117134342D01*
X146991333Y-117134342D02*
X146686571Y-117134342D01*
X147905618Y-117515295D02*
X147448475Y-117515295D01*
X147677047Y-117515295D02*
X147677047Y-116715295D01*
X147677047Y-116715295D02*
X147600856Y-116829580D01*
X147600856Y-116829580D02*
X147524666Y-116905771D01*
X147524666Y-116905771D02*
X147448475Y-116943866D01*
X148667523Y-117515295D02*
X148210380Y-117515295D01*
X148438952Y-117515295D02*
X148438952Y-116715295D01*
X148438952Y-116715295D02*
X148362761Y-116829580D01*
X148362761Y-116829580D02*
X148286571Y-116905771D01*
X148286571Y-116905771D02*
X148210380Y-116943866D01*
X136221667Y-89067295D02*
X135955000Y-88686342D01*
X135764524Y-89067295D02*
X135764524Y-88267295D01*
X135764524Y-88267295D02*
X136069286Y-88267295D01*
X136069286Y-88267295D02*
X136145476Y-88305390D01*
X136145476Y-88305390D02*
X136183571Y-88343485D01*
X136183571Y-88343485D02*
X136221667Y-88419676D01*
X136221667Y-88419676D02*
X136221667Y-88533961D01*
X136221667Y-88533961D02*
X136183571Y-88610152D01*
X136183571Y-88610152D02*
X136145476Y-88648247D01*
X136145476Y-88648247D02*
X136069286Y-88686342D01*
X136069286Y-88686342D02*
X135764524Y-88686342D01*
X136488333Y-88267295D02*
X136983571Y-88267295D01*
X136983571Y-88267295D02*
X136716905Y-88572057D01*
X136716905Y-88572057D02*
X136831190Y-88572057D01*
X136831190Y-88572057D02*
X136907381Y-88610152D01*
X136907381Y-88610152D02*
X136945476Y-88648247D01*
X136945476Y-88648247D02*
X136983571Y-88724438D01*
X136983571Y-88724438D02*
X136983571Y-88914914D01*
X136983571Y-88914914D02*
X136945476Y-88991104D01*
X136945476Y-88991104D02*
X136907381Y-89029200D01*
X136907381Y-89029200D02*
X136831190Y-89067295D01*
X136831190Y-89067295D02*
X136602619Y-89067295D01*
X136602619Y-89067295D02*
X136526428Y-89029200D01*
X136526428Y-89029200D02*
X136488333Y-88991104D01*
X141809667Y-121071295D02*
X141543000Y-120690342D01*
X141352524Y-121071295D02*
X141352524Y-120271295D01*
X141352524Y-120271295D02*
X141657286Y-120271295D01*
X141657286Y-120271295D02*
X141733476Y-120309390D01*
X141733476Y-120309390D02*
X141771571Y-120347485D01*
X141771571Y-120347485D02*
X141809667Y-120423676D01*
X141809667Y-120423676D02*
X141809667Y-120537961D01*
X141809667Y-120537961D02*
X141771571Y-120614152D01*
X141771571Y-120614152D02*
X141733476Y-120652247D01*
X141733476Y-120652247D02*
X141657286Y-120690342D01*
X141657286Y-120690342D02*
X141352524Y-120690342D01*
X142266809Y-120614152D02*
X142190619Y-120576057D01*
X142190619Y-120576057D02*
X142152524Y-120537961D01*
X142152524Y-120537961D02*
X142114428Y-120461771D01*
X142114428Y-120461771D02*
X142114428Y-120423676D01*
X142114428Y-120423676D02*
X142152524Y-120347485D01*
X142152524Y-120347485D02*
X142190619Y-120309390D01*
X142190619Y-120309390D02*
X142266809Y-120271295D01*
X142266809Y-120271295D02*
X142419190Y-120271295D01*
X142419190Y-120271295D02*
X142495381Y-120309390D01*
X142495381Y-120309390D02*
X142533476Y-120347485D01*
X142533476Y-120347485D02*
X142571571Y-120423676D01*
X142571571Y-120423676D02*
X142571571Y-120461771D01*
X142571571Y-120461771D02*
X142533476Y-120537961D01*
X142533476Y-120537961D02*
X142495381Y-120576057D01*
X142495381Y-120576057D02*
X142419190Y-120614152D01*
X142419190Y-120614152D02*
X142266809Y-120614152D01*
X142266809Y-120614152D02*
X142190619Y-120652247D01*
X142190619Y-120652247D02*
X142152524Y-120690342D01*
X142152524Y-120690342D02*
X142114428Y-120766533D01*
X142114428Y-120766533D02*
X142114428Y-120918914D01*
X142114428Y-120918914D02*
X142152524Y-120995104D01*
X142152524Y-120995104D02*
X142190619Y-121033200D01*
X142190619Y-121033200D02*
X142266809Y-121071295D01*
X142266809Y-121071295D02*
X142419190Y-121071295D01*
X142419190Y-121071295D02*
X142495381Y-121033200D01*
X142495381Y-121033200D02*
X142533476Y-120995104D01*
X142533476Y-120995104D02*
X142571571Y-120918914D01*
X142571571Y-120918914D02*
X142571571Y-120766533D01*
X142571571Y-120766533D02*
X142533476Y-120690342D01*
X142533476Y-120690342D02*
X142495381Y-120652247D01*
X142495381Y-120652247D02*
X142419190Y-120614152D01*
X138885771Y-134669142D02*
X139371485Y-134669142D01*
X139371485Y-134669142D02*
X139428628Y-134640571D01*
X139428628Y-134640571D02*
X139457200Y-134612000D01*
X139457200Y-134612000D02*
X139485771Y-134554857D01*
X139485771Y-134554857D02*
X139485771Y-134440571D01*
X139485771Y-134440571D02*
X139457200Y-134383428D01*
X139457200Y-134383428D02*
X139428628Y-134354857D01*
X139428628Y-134354857D02*
X139371485Y-134326285D01*
X139371485Y-134326285D02*
X138885771Y-134326285D01*
X138885771Y-134097714D02*
X138885771Y-133726286D01*
X138885771Y-133726286D02*
X139114342Y-133926286D01*
X139114342Y-133926286D02*
X139114342Y-133840571D01*
X139114342Y-133840571D02*
X139142914Y-133783429D01*
X139142914Y-133783429D02*
X139171485Y-133754857D01*
X139171485Y-133754857D02*
X139228628Y-133726286D01*
X139228628Y-133726286D02*
X139371485Y-133726286D01*
X139371485Y-133726286D02*
X139428628Y-133754857D01*
X139428628Y-133754857D02*
X139457200Y-133783429D01*
X139457200Y-133783429D02*
X139485771Y-133840571D01*
X139485771Y-133840571D02*
X139485771Y-134012000D01*
X139485771Y-134012000D02*
X139457200Y-134069143D01*
X139457200Y-134069143D02*
X139428628Y-134097714D01*
X139777667Y-123611295D02*
X139511000Y-123230342D01*
X139320524Y-123611295D02*
X139320524Y-122811295D01*
X139320524Y-122811295D02*
X139625286Y-122811295D01*
X139625286Y-122811295D02*
X139701476Y-122849390D01*
X139701476Y-122849390D02*
X139739571Y-122887485D01*
X139739571Y-122887485D02*
X139777667Y-122963676D01*
X139777667Y-122963676D02*
X139777667Y-123077961D01*
X139777667Y-123077961D02*
X139739571Y-123154152D01*
X139739571Y-123154152D02*
X139701476Y-123192247D01*
X139701476Y-123192247D02*
X139625286Y-123230342D01*
X139625286Y-123230342D02*
X139320524Y-123230342D01*
X140044333Y-122811295D02*
X140577667Y-122811295D01*
X140577667Y-122811295D02*
X140234809Y-123611295D01*
X142571667Y-131992295D02*
X142305000Y-131611342D01*
X142114524Y-131992295D02*
X142114524Y-131192295D01*
X142114524Y-131192295D02*
X142419286Y-131192295D01*
X142419286Y-131192295D02*
X142495476Y-131230390D01*
X142495476Y-131230390D02*
X142533571Y-131268485D01*
X142533571Y-131268485D02*
X142571667Y-131344676D01*
X142571667Y-131344676D02*
X142571667Y-131458961D01*
X142571667Y-131458961D02*
X142533571Y-131535152D01*
X142533571Y-131535152D02*
X142495476Y-131573247D01*
X142495476Y-131573247D02*
X142419286Y-131611342D01*
X142419286Y-131611342D02*
X142114524Y-131611342D01*
X143257381Y-131458961D02*
X143257381Y-131992295D01*
X143066905Y-131154200D02*
X142876428Y-131725628D01*
X142876428Y-131725628D02*
X143371667Y-131725628D01*
X141047714Y-119039295D02*
X140781047Y-118658342D01*
X140590571Y-119039295D02*
X140590571Y-118239295D01*
X140590571Y-118239295D02*
X140895333Y-118239295D01*
X140895333Y-118239295D02*
X140971523Y-118277390D01*
X140971523Y-118277390D02*
X141009618Y-118315485D01*
X141009618Y-118315485D02*
X141047714Y-118391676D01*
X141047714Y-118391676D02*
X141047714Y-118505961D01*
X141047714Y-118505961D02*
X141009618Y-118582152D01*
X141009618Y-118582152D02*
X140971523Y-118620247D01*
X140971523Y-118620247D02*
X140895333Y-118658342D01*
X140895333Y-118658342D02*
X140590571Y-118658342D01*
X141809618Y-119039295D02*
X141352475Y-119039295D01*
X141581047Y-119039295D02*
X141581047Y-118239295D01*
X141581047Y-118239295D02*
X141504856Y-118353580D01*
X141504856Y-118353580D02*
X141428666Y-118429771D01*
X141428666Y-118429771D02*
X141352475Y-118467866D01*
X142304857Y-118239295D02*
X142381047Y-118239295D01*
X142381047Y-118239295D02*
X142457238Y-118277390D01*
X142457238Y-118277390D02*
X142495333Y-118315485D01*
X142495333Y-118315485D02*
X142533428Y-118391676D01*
X142533428Y-118391676D02*
X142571523Y-118544057D01*
X142571523Y-118544057D02*
X142571523Y-118734533D01*
X142571523Y-118734533D02*
X142533428Y-118886914D01*
X142533428Y-118886914D02*
X142495333Y-118963104D01*
X142495333Y-118963104D02*
X142457238Y-119001200D01*
X142457238Y-119001200D02*
X142381047Y-119039295D01*
X142381047Y-119039295D02*
X142304857Y-119039295D01*
X142304857Y-119039295D02*
X142228666Y-119001200D01*
X142228666Y-119001200D02*
X142190571Y-118963104D01*
X142190571Y-118963104D02*
X142152476Y-118886914D01*
X142152476Y-118886914D02*
X142114380Y-118734533D01*
X142114380Y-118734533D02*
X142114380Y-118544057D01*
X142114380Y-118544057D02*
X142152476Y-118391676D01*
X142152476Y-118391676D02*
X142190571Y-118315485D01*
X142190571Y-118315485D02*
X142228666Y-118277390D01*
X142228666Y-118277390D02*
X142304857Y-118239295D01*
G36*
X153365200Y-116689180D02*
G01*
X153391694Y-116715674D01*
X153425952Y-116784190D01*
X153425952Y-116891637D01*
X153391693Y-116960153D01*
X153361286Y-116990561D01*
X153292771Y-117024819D01*
X153004524Y-117024819D01*
X153004524Y-116651009D01*
X153250687Y-116651009D01*
X153365200Y-116689180D01*
G37*
G36*
X153313668Y-116209077D02*
G01*
X153344075Y-116239484D01*
X153378333Y-116308000D01*
X153378333Y-116367828D01*
X153344075Y-116436344D01*
X153313668Y-116466751D01*
X153245152Y-116501009D01*
X153004524Y-116501009D01*
X153004524Y-116174819D01*
X153245152Y-116174819D01*
X153313668Y-116209077D01*
G37*
G36*
X154361287Y-116209077D02*
G01*
X154433229Y-116281019D01*
X154473571Y-116442386D01*
X154473571Y-116757251D01*
X154433229Y-116918617D01*
X154361286Y-116990561D01*
X154292771Y-117024819D01*
X154137705Y-117024819D01*
X154069189Y-116990561D01*
X153997246Y-116918617D01*
X153956905Y-116757251D01*
X153956905Y-116442386D01*
X153997246Y-116281019D01*
X154069189Y-116209077D01*
X154137705Y-116174819D01*
X154292771Y-116174819D01*
X154361287Y-116209077D01*
G37*
G36*
X155408906Y-116209077D02*
G01*
X155480848Y-116281019D01*
X155521190Y-116442386D01*
X155521190Y-116757251D01*
X155480848Y-116918617D01*
X155408905Y-116990561D01*
X155340390Y-117024819D01*
X155185324Y-117024819D01*
X155116808Y-116990561D01*
X155044865Y-116918617D01*
X155004524Y-116757251D01*
X155004524Y-116442386D01*
X155044865Y-116281019D01*
X155116808Y-116209077D01*
X155185324Y-116174819D01*
X155340390Y-116174819D01*
X155408906Y-116209077D01*
G37*
G36*
X156638003Y-117285930D02*
G01*
X152743413Y-117285930D01*
X152743413Y-116099819D01*
X152854524Y-116099819D01*
X152854524Y-117099819D01*
X152855965Y-117114451D01*
X152867164Y-117141487D01*
X152887856Y-117162179D01*
X152914892Y-117173378D01*
X152929524Y-117174819D01*
X153310476Y-117174819D01*
X153325108Y-117173378D01*
X153327597Y-117172346D01*
X153330285Y-117172156D01*
X153344017Y-117166901D01*
X153439255Y-117119282D01*
X153445554Y-117115317D01*
X153447382Y-117114560D01*
X153449438Y-117112872D01*
X153451698Y-117111450D01*
X153452998Y-117109950D01*
X153458748Y-117105232D01*
X153506366Y-117057613D01*
X153511084Y-117051863D01*
X153512583Y-117050564D01*
X153514004Y-117048305D01*
X153515694Y-117046247D01*
X153516451Y-117044417D01*
X153520415Y-117038121D01*
X153568034Y-116942883D01*
X153573289Y-116929152D01*
X153573480Y-116926462D01*
X153574511Y-116923974D01*
X153575952Y-116909342D01*
X153575952Y-116766485D01*
X153574511Y-116751853D01*
X153573480Y-116749364D01*
X153573289Y-116746675D01*
X153568034Y-116732944D01*
X153520415Y-116637706D01*
X153516450Y-116631406D01*
X153515693Y-116629579D01*
X153514004Y-116627522D01*
X153512583Y-116625263D01*
X153511084Y-116623963D01*
X153506366Y-116618214D01*
X153458747Y-116570595D01*
X153447382Y-116561268D01*
X153444891Y-116560236D01*
X153442856Y-116558471D01*
X153436788Y-116555762D01*
X153458747Y-116533804D01*
X153463465Y-116528054D01*
X153464964Y-116526755D01*
X153466385Y-116524495D01*
X153468074Y-116522439D01*
X153468831Y-116520611D01*
X153472796Y-116514312D01*
X153513376Y-116433152D01*
X153806905Y-116433152D01*
X153806905Y-116766485D01*
X153807156Y-116769038D01*
X153806994Y-116770131D01*
X153807803Y-116775604D01*
X153808346Y-116781117D01*
X153808768Y-116782138D01*
X153809144Y-116784675D01*
X153856763Y-116975151D01*
X153861710Y-116988997D01*
X153865029Y-116993476D01*
X153867163Y-116998628D01*
X153876491Y-117009994D01*
X153971729Y-117105233D01*
X153977479Y-117109953D01*
X153978778Y-117111450D01*
X153981032Y-117112869D01*
X153983094Y-117114561D01*
X153984926Y-117115319D01*
X153991221Y-117119282D01*
X154086459Y-117166901D01*
X154100190Y-117172156D01*
X154102879Y-117172347D01*
X154105368Y-117173378D01*
X154120000Y-117174819D01*
X154310476Y-117174819D01*
X154325108Y-117173378D01*
X154327597Y-117172346D01*
X154330285Y-117172156D01*
X154344017Y-117166901D01*
X154439255Y-117119282D01*
X154445554Y-117115317D01*
X154447382Y-117114560D01*
X154449438Y-117112871D01*
X154451698Y-117111450D01*
X154452997Y-117109951D01*
X154458747Y-117105233D01*
X154553986Y-117009993D01*
X154563313Y-116998628D01*
X154565446Y-116993476D01*
X154568766Y-116988997D01*
X154573713Y-116975151D01*
X154621332Y-116784675D01*
X154621707Y-116782138D01*
X154622130Y-116781117D01*
X154622672Y-116775604D01*
X154623482Y-116770131D01*
X154623319Y-116769038D01*
X154623571Y-116766485D01*
X154623571Y-116433152D01*
X154854524Y-116433152D01*
X154854524Y-116766485D01*
X154854775Y-116769038D01*
X154854613Y-116770131D01*
X154855422Y-116775604D01*
X154855965Y-116781117D01*
X154856387Y-116782138D01*
X154856763Y-116784675D01*
X154904382Y-116975151D01*
X154909329Y-116988997D01*
X154912648Y-116993476D01*
X154914782Y-116998628D01*
X154924110Y-117009994D01*
X155019348Y-117105233D01*
X155025098Y-117109953D01*
X155026397Y-117111450D01*
X155028651Y-117112869D01*
X155030713Y-117114561D01*
X155032545Y-117115319D01*
X155038840Y-117119282D01*
X155134078Y-117166901D01*
X155147809Y-117172156D01*
X155150498Y-117172347D01*
X155152987Y-117173378D01*
X155167619Y-117174819D01*
X155358095Y-117174819D01*
X155372727Y-117173378D01*
X155375216Y-117172346D01*
X155377904Y-117172156D01*
X155391636Y-117166901D01*
X155486874Y-117119282D01*
X155493173Y-117115317D01*
X155495001Y-117114560D01*
X155497057Y-117112871D01*
X155499317Y-117111450D01*
X155500616Y-117109951D01*
X155506366Y-117105233D01*
X155601605Y-117009993D01*
X155610932Y-116998628D01*
X155613065Y-116993476D01*
X155616385Y-116988997D01*
X155621332Y-116975151D01*
X155668951Y-116784675D01*
X155669326Y-116782138D01*
X155669749Y-116781117D01*
X155670291Y-116775604D01*
X155671101Y-116770131D01*
X155670938Y-116769038D01*
X155671190Y-116766485D01*
X155671190Y-116433152D01*
X155670938Y-116430598D01*
X155671101Y-116429506D01*
X155670291Y-116424032D01*
X155669749Y-116418520D01*
X155669326Y-116417498D01*
X155668951Y-116414962D01*
X155621332Y-116224486D01*
X155616385Y-116210640D01*
X155613066Y-116206161D01*
X155610932Y-116201008D01*
X155601604Y-116189643D01*
X155506366Y-116094405D01*
X155500616Y-116089686D01*
X155499317Y-116088188D01*
X155497057Y-116086766D01*
X155495134Y-116085187D01*
X155808346Y-116085187D01*
X155808346Y-116114451D01*
X155819545Y-116141487D01*
X155840237Y-116162179D01*
X155867273Y-116173378D01*
X155881905Y-116174819D01*
X156092619Y-116174819D01*
X156092619Y-117099819D01*
X156094060Y-117114451D01*
X156105259Y-117141487D01*
X156125951Y-117162179D01*
X156152987Y-117173378D01*
X156182251Y-117173378D01*
X156209287Y-117162179D01*
X156229979Y-117141487D01*
X156241178Y-117114451D01*
X156242619Y-117099819D01*
X156242619Y-116174819D01*
X156453333Y-116174819D01*
X156467965Y-116173378D01*
X156495001Y-116162179D01*
X156515693Y-116141487D01*
X156526892Y-116114451D01*
X156526892Y-116085187D01*
X156515693Y-116058151D01*
X156495001Y-116037459D01*
X156467965Y-116026260D01*
X156453333Y-116024819D01*
X155881905Y-116024819D01*
X155867273Y-116026260D01*
X155840237Y-116037459D01*
X155819545Y-116058151D01*
X155808346Y-116085187D01*
X155495134Y-116085187D01*
X155495001Y-116085078D01*
X155493173Y-116084320D01*
X155486874Y-116080356D01*
X155391636Y-116032737D01*
X155377904Y-116027482D01*
X155375216Y-116027291D01*
X155372727Y-116026260D01*
X155358095Y-116024819D01*
X155167619Y-116024819D01*
X155152987Y-116026260D01*
X155150498Y-116027290D01*
X155147809Y-116027482D01*
X155134078Y-116032737D01*
X155038840Y-116080356D01*
X155032545Y-116084318D01*
X155030713Y-116085077D01*
X155028651Y-116086768D01*
X155026397Y-116088188D01*
X155025098Y-116089684D01*
X155019348Y-116094405D01*
X154924110Y-116189643D01*
X154914783Y-116201008D01*
X154912649Y-116206158D01*
X154909329Y-116210640D01*
X154904382Y-116224486D01*
X154856763Y-116414962D01*
X154856387Y-116417498D01*
X154855965Y-116418520D01*
X154855422Y-116424032D01*
X154854613Y-116429506D01*
X154854775Y-116430598D01*
X154854524Y-116433152D01*
X154623571Y-116433152D01*
X154623319Y-116430598D01*
X154623482Y-116429506D01*
X154622672Y-116424032D01*
X154622130Y-116418520D01*
X154621707Y-116417498D01*
X154621332Y-116414962D01*
X154573713Y-116224486D01*
X154568766Y-116210640D01*
X154565447Y-116206161D01*
X154563313Y-116201008D01*
X154553985Y-116189643D01*
X154458747Y-116094405D01*
X154452997Y-116089686D01*
X154451698Y-116088188D01*
X154449438Y-116086766D01*
X154447382Y-116085078D01*
X154445554Y-116084320D01*
X154439255Y-116080356D01*
X154344017Y-116032737D01*
X154330285Y-116027482D01*
X154327597Y-116027291D01*
X154325108Y-116026260D01*
X154310476Y-116024819D01*
X154120000Y-116024819D01*
X154105368Y-116026260D01*
X154102879Y-116027290D01*
X154100190Y-116027482D01*
X154086459Y-116032737D01*
X153991221Y-116080356D01*
X153984926Y-116084318D01*
X153983094Y-116085077D01*
X153981032Y-116086768D01*
X153978778Y-116088188D01*
X153977479Y-116089684D01*
X153971729Y-116094405D01*
X153876491Y-116189643D01*
X153867164Y-116201008D01*
X153865030Y-116206158D01*
X153861710Y-116210640D01*
X153856763Y-116224486D01*
X153809144Y-116414962D01*
X153808768Y-116417498D01*
X153808346Y-116418520D01*
X153807803Y-116424032D01*
X153806994Y-116429506D01*
X153807156Y-116430598D01*
X153806905Y-116433152D01*
X153513376Y-116433152D01*
X153520415Y-116419074D01*
X153525670Y-116405343D01*
X153525861Y-116402653D01*
X153526892Y-116400165D01*
X153528333Y-116385533D01*
X153528333Y-116290295D01*
X153526892Y-116275663D01*
X153525861Y-116273174D01*
X153525670Y-116270485D01*
X153520415Y-116256754D01*
X153472796Y-116161516D01*
X153468831Y-116155216D01*
X153468074Y-116153389D01*
X153466385Y-116151332D01*
X153464964Y-116149073D01*
X153463465Y-116147773D01*
X153458747Y-116142024D01*
X153411128Y-116094405D01*
X153405378Y-116089686D01*
X153404079Y-116088188D01*
X153401819Y-116086766D01*
X153399763Y-116085078D01*
X153397935Y-116084320D01*
X153391636Y-116080356D01*
X153296398Y-116032737D01*
X153282666Y-116027482D01*
X153279978Y-116027291D01*
X153277489Y-116026260D01*
X153262857Y-116024819D01*
X152929524Y-116024819D01*
X152914892Y-116026260D01*
X152887856Y-116037459D01*
X152867164Y-116058151D01*
X152855965Y-116085187D01*
X152854524Y-116099819D01*
X152743413Y-116099819D01*
X152743413Y-115913708D01*
X156638003Y-115913708D01*
X156638003Y-117285930D01*
G37*
G36*
X148034444Y-104839930D02*
G01*
X144995556Y-104839930D01*
X144995556Y-103844295D01*
X145106667Y-103844295D01*
X145106667Y-103939533D01*
X145108108Y-103954165D01*
X145109139Y-103956654D01*
X145109330Y-103959342D01*
X145114585Y-103973074D01*
X145162204Y-104068312D01*
X145166168Y-104074611D01*
X145166926Y-104076439D01*
X145168614Y-104078495D01*
X145170036Y-104080755D01*
X145171534Y-104082054D01*
X145176253Y-104087804D01*
X145223872Y-104135423D01*
X145229621Y-104140141D01*
X145230921Y-104141640D01*
X145233180Y-104143061D01*
X145235237Y-104144750D01*
X145237064Y-104145507D01*
X145243364Y-104149472D01*
X145338602Y-104197091D01*
X145339671Y-104197500D01*
X145340107Y-104197823D01*
X145346243Y-104200015D01*
X145352333Y-104202346D01*
X145352873Y-104202384D01*
X145353953Y-104202770D01*
X145536443Y-104248392D01*
X145613430Y-104286886D01*
X145643837Y-104317293D01*
X145678095Y-104385809D01*
X145678095Y-104445637D01*
X145643836Y-104514153D01*
X145613429Y-104544561D01*
X145544914Y-104578819D01*
X145336694Y-104578819D01*
X145205384Y-104535049D01*
X145191047Y-104531789D01*
X145161857Y-104533864D01*
X145135684Y-104546950D01*
X145116510Y-104569057D01*
X145107256Y-104596820D01*
X145109331Y-104626010D01*
X145122417Y-104652183D01*
X145144524Y-104671357D01*
X145157950Y-104677351D01*
X145300806Y-104724970D01*
X145308061Y-104726619D01*
X145309892Y-104727378D01*
X145312545Y-104727639D01*
X145315143Y-104728230D01*
X145317117Y-104728089D01*
X145324524Y-104728819D01*
X145562619Y-104728819D01*
X145577251Y-104727378D01*
X145579740Y-104726346D01*
X145582428Y-104726156D01*
X145596160Y-104720901D01*
X145691398Y-104673282D01*
X145697697Y-104669317D01*
X145699525Y-104668560D01*
X145701581Y-104666872D01*
X145703841Y-104665450D01*
X145705141Y-104663950D01*
X145710891Y-104659232D01*
X145758509Y-104611613D01*
X145763227Y-104605863D01*
X145764726Y-104604564D01*
X145766147Y-104602305D01*
X145767837Y-104600247D01*
X145768594Y-104598417D01*
X145772558Y-104592121D01*
X145820177Y-104496883D01*
X145825432Y-104483152D01*
X145825623Y-104480462D01*
X145826654Y-104477974D01*
X145828095Y-104463342D01*
X145828095Y-104368104D01*
X145826654Y-104353472D01*
X145825623Y-104350983D01*
X145825432Y-104348294D01*
X145820177Y-104334563D01*
X145772558Y-104239325D01*
X145768593Y-104233025D01*
X145767836Y-104231198D01*
X145766147Y-104229141D01*
X145764726Y-104226882D01*
X145763227Y-104225582D01*
X145758509Y-104219833D01*
X145710890Y-104172214D01*
X145705140Y-104167495D01*
X145703841Y-104165997D01*
X145701581Y-104164575D01*
X145699525Y-104162887D01*
X145697697Y-104162129D01*
X145691398Y-104158165D01*
X145596160Y-104110546D01*
X145595090Y-104110136D01*
X145594655Y-104109814D01*
X145588509Y-104107618D01*
X145582428Y-104105291D01*
X145581888Y-104105252D01*
X145580809Y-104104867D01*
X145398319Y-104059244D01*
X145321332Y-104020751D01*
X145290925Y-103990344D01*
X145256667Y-103921828D01*
X145256667Y-103862000D01*
X145290925Y-103793484D01*
X145321332Y-103763077D01*
X145389848Y-103728819D01*
X145598068Y-103728819D01*
X145729377Y-103772589D01*
X145743714Y-103775849D01*
X145772904Y-103773774D01*
X145799078Y-103760688D01*
X145818252Y-103738580D01*
X145827506Y-103710818D01*
X145825431Y-103681628D01*
X145812928Y-103656623D01*
X146011481Y-103656623D01*
X146013469Y-103671191D01*
X146251564Y-104671191D01*
X146253293Y-104676210D01*
X146253533Y-104678012D01*
X146254475Y-104679640D01*
X146256354Y-104685091D01*
X146262740Y-104693915D01*
X146268195Y-104703337D01*
X146271252Y-104705677D01*
X146273511Y-104708798D01*
X146282786Y-104714505D01*
X146291433Y-104721124D01*
X146295153Y-104722116D01*
X146298433Y-104724134D01*
X146309187Y-104725858D01*
X146319709Y-104728664D01*
X146323524Y-104728157D01*
X146327328Y-104728767D01*
X146337926Y-104726243D01*
X146348717Y-104724810D01*
X146352048Y-104722881D01*
X146355796Y-104721989D01*
X146364620Y-104715602D01*
X146374042Y-104710148D01*
X146376382Y-104707090D01*
X146379503Y-104704832D01*
X146385210Y-104695556D01*
X146391829Y-104686910D01*
X146393854Y-104681510D01*
X146394839Y-104679910D01*
X146395126Y-104678118D01*
X146396992Y-104673144D01*
X146514999Y-104230613D01*
X146633008Y-104673144D01*
X146634873Y-104678119D01*
X146635161Y-104679910D01*
X146636145Y-104681509D01*
X146638171Y-104686911D01*
X146644791Y-104695559D01*
X146650497Y-104704832D01*
X146653617Y-104707090D01*
X146655958Y-104710148D01*
X146665379Y-104715602D01*
X146674204Y-104721989D01*
X146677951Y-104722881D01*
X146681283Y-104724810D01*
X146692076Y-104726244D01*
X146702672Y-104728767D01*
X146706473Y-104728157D01*
X146710292Y-104728665D01*
X146720823Y-104725856D01*
X146731567Y-104724134D01*
X146734843Y-104722118D01*
X146738567Y-104721125D01*
X146747217Y-104714503D01*
X146756489Y-104708798D01*
X146758747Y-104705677D01*
X146761805Y-104703337D01*
X146767260Y-104693914D01*
X146773646Y-104685091D01*
X146775523Y-104679642D01*
X146776467Y-104678013D01*
X146776706Y-104676209D01*
X146778436Y-104671191D01*
X146786056Y-104639187D01*
X147155727Y-104639187D01*
X147155727Y-104668451D01*
X147166926Y-104695487D01*
X147187618Y-104716179D01*
X147214654Y-104727378D01*
X147229286Y-104728819D01*
X147848333Y-104728819D01*
X147862965Y-104727378D01*
X147890001Y-104716179D01*
X147910693Y-104695487D01*
X147921892Y-104668451D01*
X147921892Y-104639187D01*
X147910693Y-104612151D01*
X147890001Y-104591459D01*
X147862965Y-104580260D01*
X147848333Y-104578819D01*
X147410352Y-104578819D01*
X147853747Y-104135423D01*
X147863075Y-104124058D01*
X147864106Y-104121567D01*
X147865871Y-104119533D01*
X147871865Y-104106107D01*
X147919484Y-103963251D01*
X147921133Y-103955995D01*
X147921892Y-103954165D01*
X147922153Y-103951511D01*
X147922744Y-103948914D01*
X147922603Y-103946939D01*
X147923333Y-103939533D01*
X147923333Y-103844295D01*
X147921892Y-103829663D01*
X147920861Y-103827174D01*
X147920670Y-103824485D01*
X147915415Y-103810754D01*
X147867796Y-103715516D01*
X147863831Y-103709216D01*
X147863074Y-103707389D01*
X147861385Y-103705332D01*
X147859964Y-103703073D01*
X147858465Y-103701773D01*
X147853747Y-103696024D01*
X147806128Y-103648405D01*
X147800378Y-103643686D01*
X147799079Y-103642188D01*
X147796819Y-103640766D01*
X147794763Y-103639078D01*
X147792935Y-103638320D01*
X147786636Y-103634356D01*
X147691398Y-103586737D01*
X147677666Y-103581482D01*
X147674978Y-103581291D01*
X147672489Y-103580260D01*
X147657857Y-103578819D01*
X147419762Y-103578819D01*
X147405130Y-103580260D01*
X147402641Y-103581290D01*
X147399952Y-103581482D01*
X147386221Y-103586737D01*
X147290983Y-103634356D01*
X147284683Y-103638320D01*
X147282856Y-103639078D01*
X147280799Y-103640766D01*
X147278540Y-103642188D01*
X147277240Y-103643686D01*
X147271491Y-103648405D01*
X147223872Y-103696024D01*
X147214545Y-103707389D01*
X147203346Y-103734426D01*
X147203346Y-103763688D01*
X147214545Y-103790725D01*
X147235237Y-103811417D01*
X147262274Y-103822616D01*
X147291536Y-103822616D01*
X147318573Y-103811417D01*
X147329938Y-103802090D01*
X147368951Y-103763077D01*
X147437467Y-103728819D01*
X147640152Y-103728819D01*
X147708668Y-103763077D01*
X147739075Y-103793484D01*
X147773333Y-103862000D01*
X147773333Y-103927363D01*
X147735161Y-104041876D01*
X147176253Y-104600786D01*
X147166926Y-104612151D01*
X147155727Y-104639187D01*
X146786056Y-104639187D01*
X147016532Y-103671191D01*
X147018520Y-103656623D01*
X147013887Y-103627728D01*
X146998551Y-103602806D01*
X146974844Y-103585650D01*
X146946376Y-103578871D01*
X146917481Y-103583504D01*
X146892559Y-103598840D01*
X146875402Y-103622547D01*
X146870612Y-103636448D01*
X146701359Y-104347303D01*
X146587468Y-103920208D01*
X146586182Y-103916780D01*
X146585991Y-103915339D01*
X146584999Y-103913626D01*
X146582305Y-103906442D01*
X146576290Y-103898583D01*
X146571329Y-103890015D01*
X146567470Y-103887061D01*
X146564518Y-103883204D01*
X146555953Y-103878245D01*
X146548091Y-103872227D01*
X146543394Y-103870974D01*
X146539193Y-103868542D01*
X146529386Y-103867239D01*
X146519816Y-103864687D01*
X146514997Y-103865327D01*
X146510185Y-103864688D01*
X146500624Y-103867237D01*
X146490807Y-103868542D01*
X146486601Y-103870976D01*
X146481909Y-103872228D01*
X146474049Y-103878243D01*
X146465482Y-103883204D01*
X146462528Y-103887062D01*
X146458671Y-103890015D01*
X146453712Y-103898580D01*
X146447695Y-103906441D01*
X146444998Y-103913630D01*
X146444009Y-103915340D01*
X146443817Y-103916779D01*
X146442532Y-103920208D01*
X146328640Y-104347303D01*
X146159389Y-103636447D01*
X146154599Y-103622547D01*
X146137442Y-103598840D01*
X146112520Y-103583504D01*
X146083625Y-103578871D01*
X146055157Y-103585649D01*
X146031450Y-103602806D01*
X146016114Y-103627728D01*
X146011481Y-103656623D01*
X145812928Y-103656623D01*
X145812344Y-103655455D01*
X145790237Y-103636281D01*
X145776812Y-103630287D01*
X145633955Y-103582668D01*
X145626701Y-103581018D01*
X145624870Y-103580260D01*
X145622215Y-103579998D01*
X145619618Y-103579408D01*
X145617643Y-103579548D01*
X145610238Y-103578819D01*
X145372143Y-103578819D01*
X145357511Y-103580260D01*
X145355022Y-103581290D01*
X145352333Y-103581482D01*
X145338602Y-103586737D01*
X145243364Y-103634356D01*
X145237064Y-103638320D01*
X145235237Y-103639078D01*
X145233180Y-103640766D01*
X145230921Y-103642188D01*
X145229621Y-103643686D01*
X145223872Y-103648405D01*
X145176253Y-103696024D01*
X145171534Y-103701773D01*
X145170036Y-103703073D01*
X145168614Y-103705332D01*
X145166926Y-103707389D01*
X145166168Y-103709216D01*
X145162204Y-103715516D01*
X145114585Y-103810754D01*
X145109330Y-103824486D01*
X145109139Y-103827173D01*
X145108108Y-103829663D01*
X145106667Y-103844295D01*
X144995556Y-103844295D01*
X144995556Y-103467708D01*
X148034444Y-103467708D01*
X148034444Y-104839930D01*
G37*
G36*
X154765444Y-104839930D02*
G01*
X151726556Y-104839930D01*
X151726556Y-103844295D01*
X151837667Y-103844295D01*
X151837667Y-103939533D01*
X151839108Y-103954165D01*
X151840139Y-103956654D01*
X151840330Y-103959342D01*
X151845585Y-103973074D01*
X151893204Y-104068312D01*
X151897168Y-104074611D01*
X151897926Y-104076439D01*
X151899614Y-104078495D01*
X151901036Y-104080755D01*
X151902534Y-104082054D01*
X151907253Y-104087804D01*
X151954872Y-104135423D01*
X151960621Y-104140141D01*
X151961921Y-104141640D01*
X151964180Y-104143061D01*
X151966237Y-104144750D01*
X151968064Y-104145507D01*
X151974364Y-104149472D01*
X152069602Y-104197091D01*
X152070671Y-104197500D01*
X152071107Y-104197823D01*
X152077243Y-104200015D01*
X152083333Y-104202346D01*
X152083873Y-104202384D01*
X152084953Y-104202770D01*
X152267443Y-104248392D01*
X152344430Y-104286886D01*
X152374837Y-104317293D01*
X152409095Y-104385809D01*
X152409095Y-104445637D01*
X152374836Y-104514153D01*
X152344429Y-104544561D01*
X152275914Y-104578819D01*
X152067694Y-104578819D01*
X151936384Y-104535049D01*
X151922047Y-104531789D01*
X151892857Y-104533864D01*
X151866684Y-104546950D01*
X151847510Y-104569057D01*
X151838256Y-104596820D01*
X151840331Y-104626010D01*
X151853417Y-104652183D01*
X151875524Y-104671357D01*
X151888950Y-104677351D01*
X152031806Y-104724970D01*
X152039061Y-104726619D01*
X152040892Y-104727378D01*
X152043545Y-104727639D01*
X152046143Y-104728230D01*
X152048117Y-104728089D01*
X152055524Y-104728819D01*
X152293619Y-104728819D01*
X152308251Y-104727378D01*
X152310740Y-104726346D01*
X152313428Y-104726156D01*
X152327160Y-104720901D01*
X152422398Y-104673282D01*
X152428697Y-104669317D01*
X152430525Y-104668560D01*
X152432581Y-104666872D01*
X152434841Y-104665450D01*
X152436141Y-104663950D01*
X152441891Y-104659232D01*
X152489509Y-104611613D01*
X152494227Y-104605863D01*
X152495726Y-104604564D01*
X152497147Y-104602305D01*
X152498837Y-104600247D01*
X152499594Y-104598417D01*
X152503558Y-104592121D01*
X152551177Y-104496883D01*
X152556432Y-104483152D01*
X152556623Y-104480462D01*
X152557654Y-104477974D01*
X152559095Y-104463342D01*
X152559095Y-104368104D01*
X152557654Y-104353472D01*
X152556623Y-104350983D01*
X152556432Y-104348294D01*
X152551177Y-104334563D01*
X152503558Y-104239325D01*
X152499593Y-104233025D01*
X152498836Y-104231198D01*
X152497147Y-104229141D01*
X152495726Y-104226882D01*
X152494227Y-104225582D01*
X152489509Y-104219833D01*
X152441890Y-104172214D01*
X152436140Y-104167495D01*
X152434841Y-104165997D01*
X152432581Y-104164575D01*
X152430525Y-104162887D01*
X152428697Y-104162129D01*
X152422398Y-104158165D01*
X152327160Y-104110546D01*
X152326090Y-104110136D01*
X152325655Y-104109814D01*
X152319509Y-104107618D01*
X152313428Y-104105291D01*
X152312888Y-104105252D01*
X152311809Y-104104867D01*
X152129319Y-104059244D01*
X152052332Y-104020751D01*
X152021925Y-103990344D01*
X151987667Y-103921828D01*
X151987667Y-103862000D01*
X152021925Y-103793484D01*
X152052332Y-103763077D01*
X152120848Y-103728819D01*
X152329068Y-103728819D01*
X152460377Y-103772589D01*
X152474714Y-103775849D01*
X152503904Y-103773774D01*
X152530078Y-103760688D01*
X152549252Y-103738580D01*
X152558506Y-103710818D01*
X152556431Y-103681628D01*
X152543928Y-103656623D01*
X152742481Y-103656623D01*
X152744469Y-103671191D01*
X152982564Y-104671191D01*
X152984293Y-104676210D01*
X152984533Y-104678012D01*
X152985475Y-104679640D01*
X152987354Y-104685091D01*
X152993740Y-104693915D01*
X152999195Y-104703337D01*
X153002252Y-104705677D01*
X153004511Y-104708798D01*
X153013786Y-104714505D01*
X153022433Y-104721124D01*
X153026153Y-104722116D01*
X153029433Y-104724134D01*
X153040187Y-104725858D01*
X153050709Y-104728664D01*
X153054524Y-104728157D01*
X153058328Y-104728767D01*
X153068926Y-104726243D01*
X153079717Y-104724810D01*
X153083048Y-104722881D01*
X153086796Y-104721989D01*
X153095620Y-104715602D01*
X153105042Y-104710148D01*
X153107382Y-104707090D01*
X153110503Y-104704832D01*
X153116210Y-104695556D01*
X153122829Y-104686910D01*
X153124854Y-104681510D01*
X153125839Y-104679910D01*
X153126126Y-104678118D01*
X153127992Y-104673144D01*
X153245999Y-104230613D01*
X153364008Y-104673144D01*
X153365873Y-104678119D01*
X153366161Y-104679910D01*
X153367145Y-104681509D01*
X153369171Y-104686911D01*
X153375791Y-104695559D01*
X153381497Y-104704832D01*
X153384617Y-104707090D01*
X153386958Y-104710148D01*
X153396379Y-104715602D01*
X153405204Y-104721989D01*
X153408951Y-104722881D01*
X153412283Y-104724810D01*
X153423076Y-104726244D01*
X153433672Y-104728767D01*
X153437473Y-104728157D01*
X153441292Y-104728665D01*
X153451823Y-104725856D01*
X153462567Y-104724134D01*
X153465843Y-104722118D01*
X153469567Y-104721125D01*
X153478217Y-104714503D01*
X153487489Y-104708798D01*
X153489747Y-104705677D01*
X153492805Y-104703337D01*
X153498260Y-104693914D01*
X153504646Y-104685091D01*
X153506523Y-104679642D01*
X153507467Y-104678013D01*
X153507706Y-104676209D01*
X153509436Y-104671191D01*
X153747532Y-103671191D01*
X153749520Y-103656623D01*
X153746724Y-103639187D01*
X153886727Y-103639187D01*
X153886727Y-103668451D01*
X153897926Y-103695487D01*
X153918618Y-103716179D01*
X153945654Y-103727378D01*
X153960286Y-103728819D01*
X154414051Y-103728819D01*
X154189557Y-103985383D01*
X154185035Y-103991707D01*
X154183640Y-103993103D01*
X154183091Y-103994426D01*
X154181006Y-103997344D01*
X154177104Y-104008881D01*
X154172441Y-104020139D01*
X154172441Y-104022669D01*
X154171631Y-104025065D01*
X154172441Y-104037218D01*
X154172441Y-104049403D01*
X154173408Y-104051739D01*
X154173577Y-104054263D01*
X154178979Y-104065188D01*
X154183640Y-104076439D01*
X154185426Y-104078225D01*
X154186549Y-104080495D01*
X154195721Y-104088520D01*
X154204332Y-104097131D01*
X154206668Y-104098099D01*
X154208573Y-104099765D01*
X154220110Y-104103666D01*
X154231368Y-104108330D01*
X154234938Y-104108681D01*
X154236294Y-104109140D01*
X154238261Y-104109008D01*
X154246000Y-104109771D01*
X154371152Y-104109771D01*
X154439668Y-104144029D01*
X154470075Y-104174436D01*
X154504333Y-104242952D01*
X154504333Y-104445637D01*
X154470074Y-104514153D01*
X154439667Y-104544561D01*
X154371152Y-104578819D01*
X154120848Y-104578819D01*
X154052332Y-104544561D01*
X154013320Y-104505548D01*
X154001954Y-104496220D01*
X153974918Y-104485021D01*
X153945655Y-104485021D01*
X153918619Y-104496219D01*
X153897926Y-104516912D01*
X153886727Y-104543948D01*
X153886727Y-104573211D01*
X153897925Y-104600247D01*
X153907252Y-104611612D01*
X153954871Y-104659232D01*
X153960620Y-104663950D01*
X153961921Y-104665450D01*
X153964180Y-104666872D01*
X153966237Y-104668560D01*
X153968064Y-104669317D01*
X153974364Y-104673282D01*
X154069602Y-104720901D01*
X154083333Y-104726156D01*
X154086022Y-104726347D01*
X154088511Y-104727378D01*
X154103143Y-104728819D01*
X154388857Y-104728819D01*
X154403489Y-104727378D01*
X154405978Y-104726346D01*
X154408666Y-104726156D01*
X154422398Y-104720901D01*
X154517636Y-104673282D01*
X154523935Y-104669317D01*
X154525763Y-104668560D01*
X154527819Y-104666872D01*
X154530079Y-104665450D01*
X154531379Y-104663950D01*
X154537129Y-104659232D01*
X154584747Y-104611613D01*
X154589465Y-104605863D01*
X154590964Y-104604564D01*
X154592385Y-104602305D01*
X154594075Y-104600247D01*
X154594832Y-104598417D01*
X154598796Y-104592121D01*
X154646415Y-104496883D01*
X154651670Y-104483152D01*
X154651861Y-104480462D01*
X154652892Y-104477974D01*
X154654333Y-104463342D01*
X154654333Y-104225247D01*
X154652892Y-104210615D01*
X154651861Y-104208126D01*
X154651670Y-104205437D01*
X154646415Y-104191706D01*
X154598796Y-104096468D01*
X154594831Y-104090168D01*
X154594074Y-104088341D01*
X154592385Y-104086284D01*
X154590964Y-104084025D01*
X154589465Y-104082725D01*
X154584747Y-104076976D01*
X154537128Y-104029357D01*
X154531378Y-104024638D01*
X154530079Y-104023140D01*
X154527819Y-104021718D01*
X154525763Y-104020030D01*
X154523935Y-104019272D01*
X154517636Y-104015308D01*
X154422398Y-103967689D01*
X154408880Y-103962516D01*
X154635776Y-103703207D01*
X154640297Y-103696882D01*
X154641693Y-103695487D01*
X154642241Y-103694163D01*
X154644327Y-103691246D01*
X154648228Y-103679708D01*
X154652892Y-103668451D01*
X154652892Y-103665920D01*
X154653702Y-103663525D01*
X154652892Y-103651371D01*
X154652892Y-103639187D01*
X154651924Y-103636850D01*
X154651756Y-103634327D01*
X154646353Y-103623401D01*
X154641693Y-103612151D01*
X154639906Y-103610364D01*
X154638784Y-103608095D01*
X154629611Y-103600069D01*
X154621001Y-103591459D01*
X154618664Y-103590490D01*
X154616760Y-103588825D01*
X154605222Y-103584923D01*
X154593965Y-103580260D01*
X154590394Y-103579908D01*
X154589039Y-103579450D01*
X154587071Y-103579581D01*
X154579333Y-103578819D01*
X153960286Y-103578819D01*
X153945654Y-103580260D01*
X153918618Y-103591459D01*
X153897926Y-103612151D01*
X153886727Y-103639187D01*
X153746724Y-103639187D01*
X153744887Y-103627728D01*
X153729551Y-103602806D01*
X153705844Y-103585650D01*
X153677376Y-103578871D01*
X153648481Y-103583504D01*
X153623559Y-103598840D01*
X153606402Y-103622547D01*
X153601612Y-103636448D01*
X153432359Y-104347303D01*
X153318468Y-103920208D01*
X153317182Y-103916780D01*
X153316991Y-103915339D01*
X153315999Y-103913626D01*
X153313305Y-103906442D01*
X153307290Y-103898583D01*
X153302329Y-103890015D01*
X153298470Y-103887061D01*
X153295518Y-103883204D01*
X153286953Y-103878245D01*
X153279091Y-103872227D01*
X153274394Y-103870974D01*
X153270193Y-103868542D01*
X153260386Y-103867239D01*
X153250816Y-103864687D01*
X153245997Y-103865327D01*
X153241185Y-103864688D01*
X153231624Y-103867237D01*
X153221807Y-103868542D01*
X153217601Y-103870976D01*
X153212909Y-103872228D01*
X153205049Y-103878243D01*
X153196482Y-103883204D01*
X153193528Y-103887062D01*
X153189671Y-103890015D01*
X153184712Y-103898580D01*
X153178695Y-103906441D01*
X153175998Y-103913630D01*
X153175009Y-103915340D01*
X153174817Y-103916779D01*
X153173532Y-103920208D01*
X153059640Y-104347303D01*
X152890389Y-103636447D01*
X152885599Y-103622547D01*
X152868442Y-103598840D01*
X152843520Y-103583504D01*
X152814625Y-103578871D01*
X152786157Y-103585649D01*
X152762450Y-103602806D01*
X152747114Y-103627728D01*
X152742481Y-103656623D01*
X152543928Y-103656623D01*
X152543344Y-103655455D01*
X152521237Y-103636281D01*
X152507812Y-103630287D01*
X152364955Y-103582668D01*
X152357701Y-103581018D01*
X152355870Y-103580260D01*
X152353215Y-103579998D01*
X152350618Y-103579408D01*
X152348643Y-103579548D01*
X152341238Y-103578819D01*
X152103143Y-103578819D01*
X152088511Y-103580260D01*
X152086022Y-103581290D01*
X152083333Y-103581482D01*
X152069602Y-103586737D01*
X151974364Y-103634356D01*
X151968064Y-103638320D01*
X151966237Y-103639078D01*
X151964180Y-103640766D01*
X151961921Y-103642188D01*
X151960621Y-103643686D01*
X151954872Y-103648405D01*
X151907253Y-103696024D01*
X151902534Y-103701773D01*
X151901036Y-103703073D01*
X151899614Y-103705332D01*
X151897926Y-103707389D01*
X151897168Y-103709216D01*
X151893204Y-103715516D01*
X151845585Y-103810754D01*
X151840330Y-103824486D01*
X151840139Y-103827173D01*
X151839108Y-103829663D01*
X151837667Y-103844295D01*
X151726556Y-103844295D01*
X151726556Y-103467708D01*
X154765444Y-103467708D01*
X154765444Y-104839930D01*
G37*
G36*
X141302003Y-104839930D02*
G01*
X138264556Y-104839930D01*
X138264556Y-103844295D01*
X138375667Y-103844295D01*
X138375667Y-103939533D01*
X138377108Y-103954165D01*
X138378139Y-103956654D01*
X138378330Y-103959342D01*
X138383585Y-103973074D01*
X138431204Y-104068312D01*
X138435168Y-104074611D01*
X138435926Y-104076439D01*
X138437614Y-104078495D01*
X138439036Y-104080755D01*
X138440534Y-104082054D01*
X138445253Y-104087804D01*
X138492872Y-104135423D01*
X138498621Y-104140141D01*
X138499921Y-104141640D01*
X138502180Y-104143061D01*
X138504237Y-104144750D01*
X138506064Y-104145507D01*
X138512364Y-104149472D01*
X138607602Y-104197091D01*
X138608671Y-104197500D01*
X138609107Y-104197823D01*
X138615243Y-104200015D01*
X138621333Y-104202346D01*
X138621873Y-104202384D01*
X138622953Y-104202770D01*
X138805443Y-104248392D01*
X138882430Y-104286886D01*
X138912837Y-104317293D01*
X138947095Y-104385809D01*
X138947095Y-104445637D01*
X138912836Y-104514153D01*
X138882429Y-104544561D01*
X138813914Y-104578819D01*
X138605694Y-104578819D01*
X138474384Y-104535049D01*
X138460047Y-104531789D01*
X138430857Y-104533864D01*
X138404684Y-104546950D01*
X138385510Y-104569057D01*
X138376256Y-104596820D01*
X138378331Y-104626010D01*
X138391417Y-104652183D01*
X138413524Y-104671357D01*
X138426950Y-104677351D01*
X138569806Y-104724970D01*
X138577061Y-104726619D01*
X138578892Y-104727378D01*
X138581545Y-104727639D01*
X138584143Y-104728230D01*
X138586117Y-104728089D01*
X138593524Y-104728819D01*
X138831619Y-104728819D01*
X138846251Y-104727378D01*
X138848740Y-104726346D01*
X138851428Y-104726156D01*
X138865160Y-104720901D01*
X138960398Y-104673282D01*
X138966697Y-104669317D01*
X138968525Y-104668560D01*
X138970581Y-104666872D01*
X138972841Y-104665450D01*
X138974141Y-104663950D01*
X138979891Y-104659232D01*
X139027509Y-104611613D01*
X139032227Y-104605863D01*
X139033726Y-104604564D01*
X139035147Y-104602305D01*
X139036837Y-104600247D01*
X139037594Y-104598417D01*
X139041558Y-104592121D01*
X139089177Y-104496883D01*
X139094432Y-104483152D01*
X139094623Y-104480462D01*
X139095654Y-104477974D01*
X139097095Y-104463342D01*
X139097095Y-104368104D01*
X139095654Y-104353472D01*
X139094623Y-104350983D01*
X139094432Y-104348294D01*
X139089177Y-104334563D01*
X139041558Y-104239325D01*
X139037593Y-104233025D01*
X139036836Y-104231198D01*
X139035147Y-104229141D01*
X139033726Y-104226882D01*
X139032227Y-104225582D01*
X139027509Y-104219833D01*
X138979890Y-104172214D01*
X138974140Y-104167495D01*
X138972841Y-104165997D01*
X138970581Y-104164575D01*
X138968525Y-104162887D01*
X138966697Y-104162129D01*
X138960398Y-104158165D01*
X138865160Y-104110546D01*
X138864090Y-104110136D01*
X138863655Y-104109814D01*
X138857509Y-104107618D01*
X138851428Y-104105291D01*
X138850888Y-104105252D01*
X138849809Y-104104867D01*
X138667319Y-104059244D01*
X138590332Y-104020751D01*
X138559925Y-103990344D01*
X138525667Y-103921828D01*
X138525667Y-103862000D01*
X138559925Y-103793484D01*
X138590332Y-103763077D01*
X138658848Y-103728819D01*
X138867068Y-103728819D01*
X138998377Y-103772589D01*
X139012714Y-103775849D01*
X139041904Y-103773774D01*
X139068078Y-103760688D01*
X139087252Y-103738580D01*
X139096506Y-103710818D01*
X139094431Y-103681628D01*
X139081928Y-103656623D01*
X139280481Y-103656623D01*
X139282469Y-103671191D01*
X139520564Y-104671191D01*
X139522293Y-104676210D01*
X139522533Y-104678012D01*
X139523475Y-104679640D01*
X139525354Y-104685091D01*
X139531740Y-104693915D01*
X139537195Y-104703337D01*
X139540252Y-104705677D01*
X139542511Y-104708798D01*
X139551786Y-104714505D01*
X139560433Y-104721124D01*
X139564153Y-104722116D01*
X139567433Y-104724134D01*
X139578187Y-104725858D01*
X139588709Y-104728664D01*
X139592524Y-104728157D01*
X139596328Y-104728767D01*
X139606926Y-104726243D01*
X139617717Y-104724810D01*
X139621048Y-104722881D01*
X139624796Y-104721989D01*
X139633620Y-104715602D01*
X139643042Y-104710148D01*
X139645382Y-104707090D01*
X139648503Y-104704832D01*
X139654210Y-104695556D01*
X139660829Y-104686910D01*
X139662854Y-104681510D01*
X139663839Y-104679910D01*
X139664126Y-104678118D01*
X139665992Y-104673144D01*
X139783999Y-104230613D01*
X139902008Y-104673144D01*
X139903873Y-104678119D01*
X139904161Y-104679910D01*
X139905145Y-104681509D01*
X139907171Y-104686911D01*
X139913791Y-104695559D01*
X139919497Y-104704832D01*
X139922617Y-104707090D01*
X139924958Y-104710148D01*
X139934379Y-104715602D01*
X139943204Y-104721989D01*
X139946951Y-104722881D01*
X139950283Y-104724810D01*
X139961076Y-104726244D01*
X139971672Y-104728767D01*
X139975473Y-104728157D01*
X139979292Y-104728665D01*
X139989823Y-104725856D01*
X140000567Y-104724134D01*
X140003843Y-104722118D01*
X140007567Y-104721125D01*
X140016217Y-104714503D01*
X140025489Y-104708798D01*
X140027747Y-104705677D01*
X140030805Y-104703337D01*
X140036260Y-104693914D01*
X140042646Y-104685091D01*
X140044523Y-104679642D01*
X140045467Y-104678013D01*
X140045706Y-104676209D01*
X140047436Y-104671191D01*
X140223874Y-103930152D01*
X140471494Y-103930152D01*
X140473568Y-103959342D01*
X140486655Y-103985517D01*
X140508763Y-104004690D01*
X140536524Y-104013944D01*
X140565714Y-104011870D01*
X140579446Y-104006615D01*
X140674684Y-103958996D01*
X140680983Y-103955031D01*
X140682811Y-103954274D01*
X140684867Y-103952585D01*
X140687127Y-103951164D01*
X140688426Y-103949665D01*
X140694176Y-103944947D01*
X140756619Y-103882504D01*
X140756619Y-104578819D01*
X140545905Y-104578819D01*
X140531273Y-104580260D01*
X140504237Y-104591459D01*
X140483545Y-104612151D01*
X140472346Y-104639187D01*
X140472346Y-104668451D01*
X140483545Y-104695487D01*
X140504237Y-104716179D01*
X140531273Y-104727378D01*
X140545905Y-104728819D01*
X141117333Y-104728819D01*
X141131965Y-104727378D01*
X141159001Y-104716179D01*
X141179693Y-104695487D01*
X141190892Y-104668451D01*
X141190892Y-104639187D01*
X141179693Y-104612151D01*
X141159001Y-104591459D01*
X141131965Y-104580260D01*
X141117333Y-104578819D01*
X140906619Y-104578819D01*
X140906619Y-103653819D01*
X140906613Y-103653766D01*
X140906619Y-103653740D01*
X140906603Y-103653663D01*
X140905178Y-103639187D01*
X140902336Y-103632326D01*
X140900880Y-103625045D01*
X140896790Y-103618938D01*
X140893979Y-103612151D01*
X140888730Y-103606902D01*
X140884597Y-103600730D01*
X140878480Y-103596652D01*
X140873287Y-103591459D01*
X140866427Y-103588617D01*
X140860248Y-103584498D01*
X140853039Y-103583072D01*
X140846251Y-103580260D01*
X140838824Y-103580260D01*
X140831540Y-103578819D01*
X140824335Y-103580260D01*
X140816987Y-103580260D01*
X140810126Y-103583101D01*
X140802846Y-103584558D01*
X140796740Y-103588646D01*
X140789951Y-103591459D01*
X140784700Y-103596709D01*
X140778531Y-103600841D01*
X140769310Y-103612099D01*
X140769259Y-103612151D01*
X140769249Y-103612173D01*
X140769215Y-103612216D01*
X140678095Y-103748896D01*
X140596716Y-103830275D01*
X140512364Y-103872451D01*
X140499921Y-103880283D01*
X140480748Y-103902391D01*
X140471494Y-103930152D01*
X140223874Y-103930152D01*
X140285532Y-103671191D01*
X140287520Y-103656623D01*
X140282887Y-103627728D01*
X140267551Y-103602806D01*
X140243844Y-103585650D01*
X140215376Y-103578871D01*
X140186481Y-103583504D01*
X140161559Y-103598840D01*
X140144402Y-103622547D01*
X140139612Y-103636448D01*
X139970359Y-104347303D01*
X139856468Y-103920208D01*
X139855182Y-103916780D01*
X139854991Y-103915339D01*
X139853999Y-103913626D01*
X139851305Y-103906442D01*
X139845290Y-103898583D01*
X139840329Y-103890015D01*
X139836470Y-103887061D01*
X139833518Y-103883204D01*
X139824953Y-103878245D01*
X139817091Y-103872227D01*
X139812394Y-103870974D01*
X139808193Y-103868542D01*
X139798386Y-103867239D01*
X139788816Y-103864687D01*
X139783997Y-103865327D01*
X139779185Y-103864688D01*
X139769624Y-103867237D01*
X139759807Y-103868542D01*
X139755601Y-103870976D01*
X139750909Y-103872228D01*
X139743049Y-103878243D01*
X139734482Y-103883204D01*
X139731528Y-103887062D01*
X139727671Y-103890015D01*
X139722712Y-103898580D01*
X139716695Y-103906441D01*
X139713998Y-103913630D01*
X139713009Y-103915340D01*
X139712817Y-103916779D01*
X139711532Y-103920208D01*
X139597640Y-104347303D01*
X139428389Y-103636447D01*
X139423599Y-103622547D01*
X139406442Y-103598840D01*
X139381520Y-103583504D01*
X139352625Y-103578871D01*
X139324157Y-103585649D01*
X139300450Y-103602806D01*
X139285114Y-103627728D01*
X139280481Y-103656623D01*
X139081928Y-103656623D01*
X139081344Y-103655455D01*
X139059237Y-103636281D01*
X139045812Y-103630287D01*
X138902955Y-103582668D01*
X138895701Y-103581018D01*
X138893870Y-103580260D01*
X138891215Y-103579998D01*
X138888618Y-103579408D01*
X138886643Y-103579548D01*
X138879238Y-103578819D01*
X138641143Y-103578819D01*
X138626511Y-103580260D01*
X138624022Y-103581290D01*
X138621333Y-103581482D01*
X138607602Y-103586737D01*
X138512364Y-103634356D01*
X138506064Y-103638320D01*
X138504237Y-103639078D01*
X138502180Y-103640766D01*
X138499921Y-103642188D01*
X138498621Y-103643686D01*
X138492872Y-103648405D01*
X138445253Y-103696024D01*
X138440534Y-103701773D01*
X138439036Y-103703073D01*
X138437614Y-103705332D01*
X138435926Y-103707389D01*
X138435168Y-103709216D01*
X138431204Y-103715516D01*
X138383585Y-103810754D01*
X138378330Y-103824486D01*
X138378139Y-103827173D01*
X138377108Y-103829663D01*
X138375667Y-103844295D01*
X138264556Y-103844295D01*
X138264556Y-103467708D01*
X141302003Y-103467708D01*
X141302003Y-104839930D01*
G37*
D12*
%TO.C,C13*%
X132730052Y-132416800D02*
X132207548Y-132416800D01*
X132730052Y-130946800D02*
X132207548Y-130946800D01*
%TO.C,RST*%
X143470000Y-113166000D02*
X143470000Y-113266000D01*
X143470000Y-111466000D02*
X139070000Y-111466000D01*
X139070000Y-114966000D02*
X143470000Y-114966000D01*
X139070000Y-113166000D02*
X139070000Y-113266000D01*
%TO.C,C8*%
X159950000Y-112827748D02*
X159950000Y-113350252D01*
X158480000Y-112827748D02*
X158480000Y-113350252D01*
%TO.C,C7*%
X142585252Y-110903000D02*
X142062748Y-110903000D01*
X142585252Y-109433000D02*
X142062748Y-109433000D01*
%TO.C,C9*%
X133562600Y-86731052D02*
X133562600Y-86208548D01*
X135032600Y-86731052D02*
X135032600Y-86208548D01*
%TO.C,C12*%
X136351648Y-130845200D02*
X136874152Y-130845200D01*
X136351648Y-132315200D02*
X136874152Y-132315200D01*
%TO.C,C10*%
X132730052Y-137068200D02*
X132207548Y-137068200D01*
X132730052Y-138538200D02*
X132207548Y-138538200D01*
%TO.C,C11*%
X132730052Y-135036200D02*
X132207548Y-135036200D01*
X132730052Y-136506200D02*
X132207548Y-136506200D01*
%TO.C,C14*%
X132730052Y-133004200D02*
X132207548Y-133004200D01*
X132730052Y-134474200D02*
X132207548Y-134474200D01*
%TO.C,Q1*%
X152422000Y-124102000D02*
X150472000Y-124102000D01*
X152422000Y-124102000D02*
X154372000Y-124102000D01*
X152422000Y-129222000D02*
X150472000Y-129222000D01*
X152422000Y-129222000D02*
X154372000Y-129222000D01*
X149722000Y-124197000D02*
X149482000Y-123867000D01*
X149962000Y-123867000D01*
X149722000Y-124197000D01*
G36*
X149722000Y-124197000D02*
G01*
X149482000Y-123867000D01*
X149962000Y-123867000D01*
X149722000Y-124197000D01*
G37*
%TO.C,J2*%
X143472000Y-137528000D02*
X143472000Y-139448000D01*
X143472000Y-143163000D02*
X143472000Y-141458000D01*
X152632000Y-139448000D02*
X152632000Y-137528000D01*
X152632000Y-141458000D02*
X152632000Y-143163000D01*
X152632000Y-143163000D02*
X143472000Y-143163000D01*
%TO.C,D1*%
X154248400Y-133412400D02*
X154248400Y-130152400D01*
X152548400Y-133412400D02*
X152548400Y-130152400D01*
X152548400Y-133412400D02*
X154248400Y-133412400D01*
%TO.C,D3*%
X156409200Y-126801600D02*
X156409200Y-130061600D01*
X158109200Y-126801600D02*
X158109200Y-130061600D01*
X158109200Y-126801600D02*
X156409200Y-126801600D01*
%TO.C,D2*%
X154411000Y-131797000D02*
X154411000Y-133497000D01*
X154411000Y-131797000D02*
X157671000Y-131797000D01*
X154411000Y-133497000D02*
X157671000Y-133497000D01*
%TO.C,D5*%
X134605800Y-138985200D02*
X131345800Y-138985200D01*
X134605800Y-140685200D02*
X131345800Y-140685200D01*
X134605800Y-140685200D02*
X134605800Y-138985200D01*
%TO.C,D4*%
X156409200Y-120001200D02*
X158109200Y-120001200D01*
X156409200Y-120001200D02*
X156409200Y-116741200D01*
X158109200Y-120001200D02*
X158109200Y-116741200D01*
%TO.C,L1*%
X131658600Y-126193600D02*
X131658600Y-127218600D01*
X131658600Y-126193600D02*
X132683600Y-126193600D01*
X131658600Y-130413600D02*
X131658600Y-129388600D01*
X131658600Y-130413600D02*
X132683600Y-130413600D01*
X136428600Y-126193600D02*
X135403600Y-126193600D01*
X136428600Y-126193600D02*
X136428600Y-127218600D01*
X136428600Y-130413600D02*
X135403600Y-130413600D01*
X136428600Y-130413600D02*
X136428600Y-129388600D01*
%TO.C,Q2*%
X146642000Y-130397000D02*
X147292000Y-130397000D01*
X146642000Y-130397000D02*
X145992000Y-130397000D01*
X146642000Y-127277000D02*
X147292000Y-127277000D01*
X146642000Y-127277000D02*
X145992000Y-127277000D01*
X148044500Y-130677000D02*
X147564500Y-130677000D01*
X147804500Y-130347000D01*
X148044500Y-130677000D01*
G36*
X148044500Y-130677000D02*
G01*
X147564500Y-130677000D01*
X147804500Y-130347000D01*
X148044500Y-130677000D01*
G37*
%TO.C,Q3*%
X146642000Y-126841000D02*
X147292000Y-126841000D01*
X146642000Y-126841000D02*
X145992000Y-126841000D01*
X146642000Y-123721000D02*
X147292000Y-123721000D01*
X146642000Y-123721000D02*
X145992000Y-123721000D01*
X148044500Y-127121000D02*
X147564500Y-127121000D01*
X147804500Y-126791000D01*
X148044500Y-127121000D01*
G36*
X148044500Y-127121000D02*
G01*
X147564500Y-127121000D01*
X147804500Y-126791000D01*
X148044500Y-127121000D01*
G37*
%TO.C,R1*%
X142220800Y-135239336D02*
X142220800Y-135693464D01*
X140750800Y-135239336D02*
X140750800Y-135693464D01*
%TO.C,R2*%
X146970664Y-130845200D02*
X146516536Y-130845200D01*
X146970664Y-132315200D02*
X146516536Y-132315200D01*
%TO.C,R9*%
X146996064Y-121879000D02*
X146541936Y-121879000D01*
X146996064Y-123349000D02*
X146541936Y-123349000D01*
%TO.C,Q4*%
X152422000Y-118514000D02*
X150472000Y-118514000D01*
X152422000Y-118514000D02*
X154372000Y-118514000D01*
X152422000Y-123634000D02*
X150472000Y-123634000D01*
X152422000Y-123634000D02*
X154372000Y-123634000D01*
X149722000Y-118609000D02*
X149482000Y-118279000D01*
X149962000Y-118279000D01*
X149722000Y-118609000D01*
G36*
X149722000Y-118609000D02*
G01*
X149482000Y-118279000D01*
X149962000Y-118279000D01*
X149722000Y-118609000D01*
G37*
%TO.C,R5*%
X150326536Y-129600600D02*
X150780664Y-129600600D01*
X150326536Y-131070600D02*
X150780664Y-131070600D01*
%TO.C,R6*%
X142932064Y-124546000D02*
X142477936Y-124546000D01*
X142932064Y-126016000D02*
X142477936Y-126016000D01*
%TO.C,R11*%
X148393000Y-119920064D02*
X148393000Y-119465936D01*
X146923000Y-119920064D02*
X146923000Y-119465936D01*
%TO.C,R3*%
X137090000Y-85937936D02*
X137090000Y-86392064D01*
X135620000Y-85937936D02*
X135620000Y-86392064D01*
%TO.C,R8*%
X144964064Y-119974000D02*
X144509936Y-119974000D01*
X144964064Y-121444000D02*
X144509936Y-121444000D01*
%TO.C,U2*%
X138852000Y-76948000D02*
X138852000Y-83148000D01*
X138852000Y-76948000D02*
X157252000Y-76948000D01*
X138852000Y-101798000D02*
X138852000Y-102798000D01*
X138852000Y-102798000D02*
X140352000Y-102798000D01*
X157252000Y-76948000D02*
X157252000Y-83148000D01*
X157252000Y-102798000D02*
X155752000Y-102798000D01*
X157252000Y-102798000D02*
X157252000Y-101798000D01*
X138852000Y-83823000D02*
X138352000Y-83823000D01*
X138852000Y-83323000D01*
X138852000Y-83823000D01*
G36*
X138852000Y-83823000D02*
G01*
X138352000Y-83823000D01*
X138852000Y-83323000D01*
X138852000Y-83823000D01*
G37*
%TO.C,U3*%
X135182000Y-132788000D02*
X134942000Y-132458000D01*
X135422000Y-132458000D01*
X135182000Y-132788000D01*
G36*
X135182000Y-132788000D02*
G01*
X134942000Y-132458000D01*
X135422000Y-132458000D01*
X135182000Y-132788000D01*
G37*
X136482000Y-135858000D02*
X137282000Y-135858000D01*
X136482000Y-135858000D02*
X135682000Y-135858000D01*
X136482000Y-132738000D02*
X137282000Y-132738000D01*
X136482000Y-132738000D02*
X135682000Y-132738000D01*
%TO.C,R7*%
X142932064Y-122514000D02*
X142477936Y-122514000D01*
X142932064Y-123984000D02*
X142477936Y-123984000D01*
%TO.C,R4*%
X142932064Y-129245000D02*
X142477936Y-129245000D01*
X142932064Y-130715000D02*
X142477936Y-130715000D01*
%TO.C,R10*%
X144964064Y-119412000D02*
X144509936Y-119412000D01*
X144964064Y-117942000D02*
X144509936Y-117942000D01*
%TO.C,BOOT*%
X152570000Y-113166000D02*
X152570000Y-113266000D01*
X152570000Y-114966000D02*
X156970000Y-114966000D01*
X156970000Y-111466000D02*
X152570000Y-111466000D01*
X156970000Y-113166000D02*
X156970000Y-113266000D01*
%TO.C,SW2*%
X145852000Y-106662000D02*
X145852000Y-106562000D01*
X145852000Y-108362000D02*
X150252000Y-108362000D01*
D13*
X147036000Y-102548000D02*
X148052000Y-102548000D01*
D12*
X147036000Y-104862000D02*
X145852000Y-104862000D01*
D13*
X147036000Y-104862000D02*
X147036000Y-102548000D01*
X149068000Y-102548000D02*
X148052000Y-102548000D01*
X149068000Y-104862000D02*
X149068000Y-102548000D01*
D12*
X149068000Y-104862000D02*
X150252000Y-104862000D01*
X150252000Y-106662000D02*
X150252000Y-106562000D01*
%TO.C,SW3*%
X157002000Y-106662000D02*
X157002000Y-106562000D01*
X155818000Y-104862000D02*
X157002000Y-104862000D01*
D13*
X155818000Y-104862000D02*
X155818000Y-102548000D01*
X155818000Y-102548000D02*
X154802000Y-102548000D01*
X153786000Y-104862000D02*
X153786000Y-102548000D01*
D12*
X153786000Y-104862000D02*
X152602000Y-104862000D01*
D13*
X153786000Y-102548000D02*
X154802000Y-102548000D01*
D12*
X152602000Y-108362000D02*
X157002000Y-108362000D01*
X152602000Y-106662000D02*
X152602000Y-106562000D01*
%TO.C,SW1*%
X143502000Y-106662000D02*
X143502000Y-106562000D01*
X142318000Y-104862000D02*
X143502000Y-104862000D01*
D13*
X142318000Y-104862000D02*
X142318000Y-102548000D01*
X142318000Y-102548000D02*
X141302000Y-102548000D01*
X140286000Y-104862000D02*
X140286000Y-102548000D01*
D12*
X140286000Y-104862000D02*
X139102000Y-104862000D01*
D13*
X140286000Y-102548000D02*
X141302000Y-102548000D01*
D12*
X139102000Y-108362000D02*
X143502000Y-108362000D01*
X139102000Y-106662000D02*
X139102000Y-106562000D01*
%TD*%
M02*
